<svg xmlns="http://www.w3.org/2000/svg" width="20" height="20" viewBox="0 0 20 20">
  <g id="Group_210" data-name="Group 210" transform="translate(-4464 -845)">
    <path id="Icon_awesome-wallet" data-name="Icon awesome-wallet" d="M18.016,6H3.125a.625.625,0,1,1,0-1.25h15a.625.625,0,0,0,.625-.625A1.875,1.875,0,0,0,16.875,2.25H2.5A2.5,2.5,0,0,0,0,4.75v12.5a2.5,2.5,0,0,0,2.5,2.5H18.016A1.934,1.934,0,0,0,20,17.875v-10A1.934,1.934,0,0,0,18.016,6ZM16.25,14.125a1.25,1.25,0,1,1,1.25-1.25A1.25,1.25,0,0,1,16.25,14.125Z" transform="translate(4464 843.75)" fill="#575757"/>
    <rect id="Rectangle_62" data-name="Rectangle 62" width="20" height="20" transform="translate(4464 845)" fill="#575757" opacity="0"/>
  </g>
</svg>
