<svg id="icon_toolbar_contact" xmlns="http://www.w3.org/2000/svg" width="20" height="20.026" viewBox="0 0 20 20.026">
  <g id="customer-service-headset-svgrepo-com" transform="translate(0 -7.791)">
    <g id="Layer_5_47_" transform="translate(0 8.791)">
      <path id="Path_424" data-name="Path 424" d="M18.339,15.336h-.722c-.2,0-.2-.129-.211-.194A7.117,7.117,0,0,0,10.34,8.791H9.66A7.118,7.118,0,0,0,2.6,15.064c-.011.09-.016.273-.182.273H1.661c-.5,0-1.661.524-1.661,3.171V19.9c0,1.963,1.163,2.416,1.661,2.416H4.075a.908.908,0,0,0,.906-.906V16.242a.908.908,0,0,0-.906-.906s-.114-.01-.085-.212a5.748,5.748,0,0,1,5.67-4.948h.679A5.731,5.731,0,0,1,16,15.067c.013.089.062.269-.077.269a.908.908,0,0,0-.906.906v5.165a.908.908,0,0,0,.906.906h.453c.125,0,.1.1.092.15-.369,1.668-1.2,3.56-3.06,3.56H12.031a.213.213,0,0,1-.2-.152,1.315,1.315,0,0,0-1.155-.685H9.4a1.316,1.316,0,1,0,0,2.632h1.27a1.315,1.315,0,0,0,1.164-.7c.019-.036.035-.112.184-.112H13.41c1.264,0,2.956-.628,3.837-3.622.094-.319.17-.637.232-.943a.126.126,0,0,1,.145-.126h.715c.5,0,1.661-.453,1.661-2.416V18.508C20,15.9,18.837,15.336,18.339,15.336Z" transform="translate(0 -8.791)" fill="#696969"/>
    </g>
  </g>
  <rect id="Rectangle_2790" data-name="Rectangle 2790" width="20" height="20" fill="#fff" opacity="0"/>
</svg>
