<?xml version="1.0" encoding="utf-8"?>
<!-- Generator: Adobe Illustrator 26.3.1, SVG Export Plug-In . SVG Version: 6.00 Build 0)  -->
<svg version="1.1" id="coin_btc_btm" xmlns="http://www.w3.org/2000/svg" xmlns:xlink="http://www.w3.org/1999/xlink" x="0px"
	 y="0px" viewBox="0 0 32 32" style="enable-background:new 0 0 32 32;" xml:space="preserve">
<style type="text/css">
	.st0{fill:none;}
	.st1{fill:#B30017;}
	.st2{fill:#F7931A;}
	.st3{fill:#FFFFFF;}
</style>
<path class="st0" d="M31.5,19.9c-2.1,8.6-10.8,13.8-19.4,11.7S-1.7,20.7,0.5,12.1S11.3-1.7,19.9,0.5c0,0,0,0,0,0
	C28.4,2.6,33.7,11.3,31.5,19.9L31.5,19.9z"/>
<path class="st1" d="M16,31c3.3,0,6.5-1.1,9.2-3.1c1.3-1,2.4-2.2,3.3-3.6c0.9-1.4,1.6-2.9,2-4.6l0-0.1c1-3.9,0.4-7.9-1.7-11.4
	c-2.1-3.4-5.3-5.9-9.2-6.8C18.4,1.2,17.2,1,16,1c-3.3,0-6.5,1.1-9.2,3.1c-1.3,1-2.4,2.2-3.3,3.6c-0.9,1.4-1.6,3-2,4.7
	c-1,3.9-0.4,7.9,1.7,11.4c2.1,3.4,5.3,5.9,9.2,6.8C13.6,30.9,14.8,31,16,31 M16,32c-1.3,0-2.6-0.2-3.9-0.5
	C3.6,29.4-1.7,20.7,0.5,12.1C2.6,3.6,11.3-1.7,19.9,0.5c8.6,2.1,13.8,10.8,11.7,19.4l0,0C29.7,27.1,23.2,32,16,32z"/>
<g id="_1421344023328" transform="translate(-5770 813.998)">
	<path id="Path_336" class="st2" d="M5799.6-794.6c-1.9,7.5-9.5,12.1-17,10.2s-12.1-9.5-10.2-17c1.9-7.5,9.5-12.1,17-10.2
		c0,0,0,0,0,0C5796.9-809.7,5801.5-802.1,5799.6-794.6C5799.6-794.6,5799.6-794.6,5799.6-794.6L5799.6-794.6L5799.6-794.6z"/>
	<path id="Path_337" class="st3" d="M5792.2-800c0.3-1.9-1.1-2.9-3.1-3.5l0.6-2.5l-1.5-0.4l-0.6,2.5c-0.4-0.1-0.8-0.2-1.2-0.3
		l0.6-2.5l-1.5-0.4l-0.6,2.5c-0.3-0.1-0.7-0.2-1-0.2v0l-2.1-0.5l-0.4,1.6c0,0,1.1,0.3,1.1,0.3c0.4,0.1,0.8,0.5,0.7,0.9l-0.7,2.9
		c0.1,0,0.1,0,0.2,0.1l-0.2,0l-1,4c-0.1,0.3-0.4,0.5-0.7,0.4c0,0-1.1-0.3-1.1-0.3l-0.8,1.8l2,0.5c0.4,0.1,0.7,0.2,1.1,0.3l-0.6,2.6
		l1.5,0.4l0.6-2.5c0.4,0.1,0.8,0.2,1.2,0.3l-0.6,2.5l1.5,0.4l0.6-2.5c2.6,0.5,4.6,0.3,5.4-2.1c0.7-1.3,0.1-3-1.2-3.6
		c-0.1,0-0.1-0.1-0.2-0.1C5791.3-798,5792.1-798.9,5792.2-800L5792.2-800L5792.2-800z M5788.7-795.1c-0.5,1.9-3.7,0.9-4.7,0.6
		l0.8-3.4C5785.8-797.6,5789.2-797.1,5788.7-795.1L5788.7-795.1z M5789.1-800c-0.4,1.7-3.1,0.9-4,0.6l0.8-3.1
		C5786.8-802.2,5789.6-801.8,5789.1-800L5789.1-800z"/>
</g>
<path id="Rectangle_2828" class="st1" d="M7,26h18c0.6,0,1,0.4,1,1v4c0,0.6-0.4,1-1,1H7c-0.6,0-1-0.4-1-1v-4C6,26.5,6.4,26,7,26z"/>
<g>
	<path class="st3" d="M13.8,29.3c-0.1-0.1-0.3-0.1-0.4-0.1v0c0.1,0,0.3-0.1,0.4-0.1c0.1-0.1,0.2-0.2,0.3-0.3
		c0.1-0.1,0.1-0.2,0.1-0.4v0c0-0.2,0-0.3-0.1-0.5s-0.2-0.2-0.4-0.3c-0.2-0.1-0.4-0.1-0.6-0.1h-0.7h-0.4h-0.4V31h0.4h0.4H13
		c0.3,0,0.5,0,0.7-0.1c0.2-0.1,0.3-0.2,0.4-0.4c0.1-0.2,0.2-0.3,0.2-0.5v0c0-0.2,0-0.3-0.1-0.4S13.9,29.4,13.8,29.3z M12.7,28.1
		c0.1,0,0.3,0,0.4,0.1s0.1,0.2,0.1,0.3v0c0,0.1,0,0.2-0.1,0.3c-0.1,0.1-0.2,0.1-0.4,0.1h-0.4v-0.8H12.7z M13.3,29.9
		c0,0.1,0,0.3-0.1,0.3c-0.1,0.1-0.2,0.1-0.4,0.1h-0.5v-0.9h0.5c0.1,0,0.2,0,0.3,0c0.1,0,0.2,0.1,0.2,0.1
		C13.2,29.8,13.3,29.8,13.3,29.9L13.3,29.9z"/>
	<polygon class="st3" points="14.2,28.2 15.1,28.2 15.1,31 16,31 16,28.2 17,28.2 17,27.5 14.2,27.5 	"/>
	<polygon class="st3" points="19.9,27.5 19.1,29.8 19,29.8 18.2,27.5 17.1,27.5 17.1,31 17.9,31 17.9,28.8 17.9,28.8 18.8,31 
		19.3,31 20.2,28.8 20.2,28.8 20.2,31 21,31 21,27.5 	"/>
</g>
</svg>
