<svg id="coin_shib" xmlns="http://www.w3.org/2000/svg" width="32" height="32" viewBox="0 0 32 32">
  <g id="Group_938" transform="translate(-953.469 -231.962)">
    <g id="Group_931" transform="translate(953.47 233.009)">
      <path id="Path_8573" d="M1139.607,254.966a20.38,20.38,0,0,0-2.248,2.667l-.212-.069a15.391,15.391,0,0,0-3.767-.73c-.385-.03-1.819-.03-2.288,0a13.306,13.306,0,0,0-3.732.735c-.049.02-.094.035-.138.049a20.063,20.063,0,0,0-2.322-2.648,16.141,16.141,0,0,1,13.164-.7c.458.173.907.375,1.346.592Z" transform="translate(-1116.448 -253.196)" fill="#f00500"/>
      <path id="Path_8574" d="M984.26,398.307a15.394,15.394,0,0,1-2.761,4.841,17.167,17.167,0,0,1-2.159,2.115,15.933,15.933,0,0,1-6.227,3.072,16.318,16.318,0,0,1-7.652,0,15.9,15.9,0,0,1-6.227-3.072,17.167,17.167,0,0,1-2.159-2.115,15.216,15.216,0,0,1-2.761-14.83,16.1,16.1,0,0,1,1.257-2.712c.232-.394.518-.838.656-1.021.473,2.036,1.055,3.826,1.272,4.472a1.1,1.1,0,0,1-.054.108,17.877,17.877,0,0,0-1.918,6.957c0,.03,0,.064,0,.094a4.3,4.3,0,0,0,.1,1.5,9.646,9.646,0,0,0,3.293,4.472c2.924,2.485,6.887,4.279,9.89,4.486,3.131.212,7.75-1.617,10.827-4.289a15.46,15.46,0,0,0,1.361-1.366,7.483,7.483,0,0,0,.725-.966c-.01,0,0-.01.02-.02s.03-.025.02-.035,0-.02.02-.025.025-.015.02-.025,0-.02.02-.025a.022.022,0,0,0,.015-.03c0-.01,0-.02.01-.02s.02-.015.02-.025.01-.025.02-.025a.021.021,0,0,0,.02-.02.517.517,0,0,1,.064-.113c.074-.113.37-.641.409-.73a6.8,6.8,0,0,0,.542-1.77,5.033,5.033,0,0,0,.044-.887c0-.02,0-.054-.01-.108-.01-.1-.015-.246-.025-.394-.01-.222-.03-.532-.044-.685a14.462,14.462,0,0,0-1.869-6,1.712,1.712,0,0,1-.108-.207.288.288,0,0,1-.02-.039h0c.153-.458.779-2.376,1.277-4.57l.01.01.074.1c.128.173.468.685.621.932a15.144,15.144,0,0,1,1.4,12.966Z" transform="translate(-953.47 -377.836)" fill="#f00500"/>
      <path id="Path_8575" d="M1344.672,516.73a1.659,1.659,0,0,1-.478.488,8.242,8.242,0,0,1-3.136,1.183,3.855,3.855,0,0,1-1.622.044c-.138-.069-.158-.123-.108-.3a2.4,2.4,0,0,1,.961-1.154c.266-.192,1.346-.848,1.849-1.124a6.531,6.531,0,0,1,1.952-.789,1,1,0,0,1,.37,0c.089.034.187.3.227.611A8.057,8.057,0,0,1,1344.672,516.73Z" transform="translate(-1320.281 -502.151)"/>
      <path id="Path_8576" d="M1107.162,519.349a.535.535,0,0,1-.345.148,5.578,5.578,0,0,1-.971-.025,10.208,10.208,0,0,1-2.963-.853,3.733,3.733,0,0,1-1.021-.685l-.138-.143-.015-.187a5.154,5.154,0,0,1,.02-1.021,1.342,1.342,0,0,1,.153-.434c.04-.049.04-.049.217-.049a2.133,2.133,0,0,1,.7.128,13.578,13.578,0,0,1,2.608,1.3,4.521,4.521,0,0,1,1.509,1.173A.985.985,0,0,1,1107.162,519.349Z" transform="translate(-1094.387 -503.138)"/>
      <path id="Path_8577" d="M1215.4,631.929c0,.015-.059.251-.133.532s-.133.508-.133.518a.843.843,0,0,1-.158,0h-.158l-.217.513c-.118.281-.227.542-.242.582l-.03.069-.1-.168-.1-.168v-1.366l-.039.01c-.084.02-.68.1-.942.123a13.437,13.437,0,0,1-3.239-.069c-.173-.025-.32-.044-.325-.039s0,.32.01.71l.015.7-.084.128c-.044.069-.089.128-.089.133s-.064-.064-.177-.291a3.331,3.331,0,0,1-.276-.749l-.035-.143-.153.01-.153.015-.039-.182c-.02-.1-.044-.251-.054-.335l-.015-.158-.128-.113c-.074-.064-.148-.128-.163-.138a.108.108,0,0,1-.035-.084v-.059l.616,0,.616,0,.02.064.02.064.212.01c.118,0,.493.015.828.025l.616.015.158-.247.163-.247h.207l0-.513-.005-.513-.271-.118a2.645,2.645,0,0,1-1.578-1.356,1.891,1.891,0,0,1-.049-.641,1.963,1.963,0,0,1,.03-.641.717.717,0,0,1,.508-.5,11.737,11.737,0,0,1,1.469-.025l1.371,0,.153.074a.857.857,0,0,1,.37.291.815.815,0,0,1,.153.582,4.337,4.337,0,0,1-.074.947,2.046,2.046,0,0,1-.286.567,2.627,2.627,0,0,1-1.1.774l-.118.044.005.518,0,.518.109.01.108.01.148.222.143.222h.661c.365,0,.685,0,.715.01.049.01.059,0,.109-.079l.059-.089h.567A1.791,1.791,0,0,1,1215.4,631.929Z" transform="translate(-1195.641 -608.856)"/>
      <path id="Path_8578" d="M1254.721,741.819c-.094.054-.158.079-.173.069s-.084-.064-.158-.118l-.133-.108-.138.148c-.3.325-.311.34-.4.345-.138.015-.168-.01-.335-.261-.089-.128-.158-.237-.158-.237s-.064-.01-.138-.015l-.138-.015-.064.133-.064.133-.113-.034a2.4,2.4,0,0,1-.261-.1l-.148-.074V741.4l1.311,0,1.311,0,.005.133C1254.932,741.7,1254.938,741.7,1254.721,741.819Z" transform="translate(-1237.567 -717.331)"/>
    </g>
    <path id="Path_8579" d="M1022.171,582.362c0-.02,0-.054-.01-.108a10.484,10.484,0,0,0-7.7,2.381s-1.011-4.634-5.744-4.634-6.488,4.634-6.488,4.634a8.521,8.521,0,0,0-7.484-2.46c0,.03,0,.064,0,.094a4.293,4.293,0,0,0,.1,1.5,9.645,9.645,0,0,0,3.293,4.472c2.924,2.485,6.887,4.279,9.89,4.486,3.131.212,7.75-1.617,10.827-4.289a15.472,15.472,0,0,0,1.361-1.366,7.483,7.483,0,0,0,.725-.966c-.01,0,0-.01.02-.02s.03-.025.02-.035,0-.02.02-.025.025-.015.02-.025,0-.02.02-.025a.022.022,0,0,0,.015-.03c0-.01,0-.02.01-.02s.02-.015.02-.025.01-.025.02-.025a.021.021,0,0,0,.02-.02.514.514,0,0,1,.064-.113c.074-.113.37-.641.409-.73a6.8,6.8,0,0,0,.542-1.77A5.978,5.978,0,0,0,1022.171,582.362Zm-12.325,6.015c-.094.054-.158.079-.173.069s-.084-.064-.158-.118l-.133-.108-.138.148c-.3.325-.311.34-.4.345-.138.015-.168-.01-.335-.261-.089-.128-.158-.237-.158-.237s-.064-.01-.138-.015l-.138-.015-.064.133-.064.133-.113-.034a2.411,2.411,0,0,1-.261-.1l-.148-.074v-.281l1.311,0,1.311,0,0,.133C1010.057,588.258,1010.062,588.253,1009.845,588.376Zm2.465-.887c-.074.281-.133.508-.133.518a.842.842,0,0,1-.158,0h-.158l-.212.518c-.118.281-.227.542-.242.582l-.03.069-.1-.168-.1-.168v-1.366l-.039.01c-.084.02-.68.1-.942.123a13.438,13.438,0,0,1-3.239-.069c-.173-.025-.32-.044-.325-.039s0,.32.01.71l.015.7-.084.128c-.044.069-.089.128-.089.133s-.064-.064-.177-.291a3.334,3.334,0,0,1-.276-.749l-.034-.143-.153.01-.153.015-.039-.182c-.02-.1-.044-.251-.054-.335l-.015-.158-.128-.113c-.074-.064-.148-.128-.163-.138a.108.108,0,0,1-.035-.084v-.059l.616,0,.616,0,.02.064.02.064.212.01c.118,0,.493.015.828.025l.616.015.158-.247.163-.247h.207l0-.513,0-.513-.271-.118a2.645,2.645,0,0,1-1.578-1.356,1.891,1.891,0,0,1-.049-.641,1.956,1.956,0,0,1,.03-.641.717.717,0,0,1,.508-.5,11.736,11.736,0,0,1,1.469-.025l1.371,0,.153.074a.857.857,0,0,1,.37.291.815.815,0,0,1,.153.582,4.337,4.337,0,0,1-.074.947,2.043,2.043,0,0,1-.286.567,2.626,2.626,0,0,1-1.1.774l-.118.044,0,.518,0,.518.108.01.108.01.148.222.143.222h.661c.365,0,.685,0,.715.01.049.01.059,0,.108-.079l.059-.089h.567a2.388,2.388,0,0,1,.567.02A3.4,3.4,0,0,0,1012.31,587.489Z" transform="translate(-39.222 -330.879)" fill="#fff"/>
    <path id="Path_8580" d="M985.493,624.1a4.554,4.554,0,0,0-.493.094" transform="translate(-29.976 -372.804)" fill="none"/>
    <path id="Path_8581" d="M1551.639,625.764s-.158-.035-.439-.064" transform="translate(-568.261 -374.325)" fill="none"/>
    <path id="Path_8582" d="M1022.392,250.98c-.01-.222-.03-.532-.044-.685a14.464,14.464,0,0,0-1.869-6,1.7,1.7,0,0,1-.109-.207.3.3,0,0,1-.02-.039h0c.153-.459.779-2.376,1.277-4.57.675-2.978,1.1-6.459-.207-7.5,0,0-2.268-.168-5.3,2.81a20.366,20.366,0,0,0-2.248,2.667l-.212-.069a15.389,15.389,0,0,0-3.767-.73c-.385-.03-1.819-.03-2.288,0a13.3,13.3,0,0,0-3.732.735c-.049.02-.094.035-.138.049a20.072,20.072,0,0,0-2.322-2.648c-3.16-2.993-5.512-2.82-5.512-2.82-1.39,1.08-.917,4.718-.2,7.795.473,2.036,1.055,3.826,1.272,4.472a1.123,1.123,0,0,1-.054.108A17.876,17.876,0,0,0,995,251.3a8.515,8.515,0,0,1,7.489,2.46s1.755-4.634,6.488-4.634,5.744,4.634,5.744,4.634a10.508,10.508,0,0,1,7.7-2.381C1022.412,251.276,1022.4,251.128,1022.392,250.98ZM997.9,242.372s-1.844-4.61-1.371-7.242h0a2.54,2.54,0,0,1,.458-1.129s2.09.207,5.463,3.954a9.637,9.637,0,0,0-1.5.971.017.017,0,0,1-.01,0,11.854,11.854,0,0,0-3.042,3.441Zm7.824,6.848a.536.536,0,0,1-.345.148,5.577,5.577,0,0,1-.971-.025,10.207,10.207,0,0,1-2.963-.853,3.731,3.731,0,0,1-1.021-.685l-.138-.143-.015-.187a5.153,5.153,0,0,1,.02-1.021,1.339,1.339,0,0,1,.153-.434c.039-.049.039-.049.217-.049a2.134,2.134,0,0,1,.7.128,13.574,13.574,0,0,1,2.608,1.3,4.523,4.523,0,0,1,1.509,1.173A.985.985,0,0,1,1005.728,249.22Zm11.616-1.632a1.66,1.66,0,0,1-.478.488,8.242,8.242,0,0,1-3.136,1.183,3.854,3.854,0,0,1-1.622.044c-.138-.069-.158-.123-.109-.3a2.4,2.4,0,0,1,.961-1.154c.266-.192,1.346-.848,1.849-1.124a6.532,6.532,0,0,1,1.952-.789,1,1,0,0,1,.37,0c.089.035.187.3.227.611A8.047,8.047,0,0,1,1017.344,247.588Zm-.818-8.662-.01,0a9.207,9.207,0,0,0-1.45-.971c3.259-3.747,5.275-3.954,5.275-3.954a2.675,2.675,0,0,1,.444,1.129h0c.458,2.633-1.321,7.247-1.321,7.247a11.744,11.744,0,0,0-2.938-3.446Z" transform="translate(-39.483)" fill="#ffa409"/>
    <path id="Path_8583" d="M1377.125,343.2c-.01.01-.015.025-.025.035" transform="translate(-402.745 -105.753)" fill="none"/>
    <path id="Path_8584" d="M1508.435,476.9c-.025.069-.035.1-.035.1" transform="translate(-527.571 -232.862)" fill="none"/>
    <g id="Group_934" transform="translate(975.583 233.996)">
      <g id="Group_933" transform="translate(0 0)">
        <g id="Group_932">
          <path id="Path_8585" d="M1407.724,274.329c-.385-.049-2.2-.059-4.265,3.8l-.01,0a9.2,9.2,0,0,0-1.449-.971c3.259-3.747,5.275-3.954,5.275-3.954A2.617,2.617,0,0,1,1407.724,274.329Z" transform="translate(-1402 -273.2)" fill="#ff9300"/>
        </g>
        <path id="Path_8586" d="M1434.543,303.159a11.7,11.7,0,0,0-2.943-3.446c2.061-3.86,3.875-3.85,4.265-3.8h0C1436.323,298.549,1434.543,303.159,1434.543,303.159Z" transform="translate(-1430.141 -294.782)" fill="#ff8300"/>
        <path id="Path_8587" d="M1518.174,296.115l-.074-.015Z" transform="translate(-1512.376 -294.971)" fill="#ff8300"/>
      </g>
    </g>
    <path id="Path_8588" d="M1172.153,343.107c-.049-.069-.1-.138-.153-.207" transform="translate(-207.756 -105.468)" fill="none"/>
    <path id="Path_8589" d="M1035,480.8c.054.168.089.256.089.256" transform="translate(-77.511 -236.569)" fill="none"/>
    <g id="Group_937" transform="translate(956.972 233.996)">
      <g id="Group_936" transform="translate(0 0)">
        <g id="Group_935" transform="translate(0.074)">
          <path id="Path_8590" d="M1031.926,277.154a9.641,9.641,0,0,0-1.5.971.017.017,0,0,1-.01,0c-2.135-3.865-4.013-3.85-4.417-3.8a2.54,2.54,0,0,1,.458-1.129S1028.554,273.407,1031.926,277.154Z" transform="translate(-1026 -273.2)" fill="#ff9300"/>
        </g>
        <path id="Path_8591" d="M1029.019,299.712a11.816,11.816,0,0,0-3.047,3.446s-1.844-4.61-1.371-7.247h0C1025,295.862,1026.884,295.852,1029.019,299.712Z" transform="translate(-1024.523 -294.782)" fill="#ff8300"/>
        <path id="Path_8592" d="M1024.579,296.1l-.079.015Z" transform="translate(-1024.5 -294.971)" fill="#ff8300"/>
      </g>
    </g>
    <path id="Path_8593" d="M1363.151,447.311s-1.578.1-1.38-1.134a1.629,1.629,0,0,1,1.775-1.331c.345.049,1.726.542,1.479,1.578s-.592.838-.789.887A7.813,7.813,0,0,1,1363.151,447.311Z" transform="translate(-388.155 -202.38)" fill="#fff"/>
    <path id="Path_8594" d="M1127.151,447.311s-1.578.1-1.38-1.134a1.629,1.629,0,0,1,1.775-1.331c.345.049,1.726.542,1.479,1.578s-.592.838-.789.887A7.813,7.813,0,0,1,1127.151,447.311Z" transform="translate(-163.79 -202.38)" fill="#fff"/>
  </g>
  <rect id="Rectangle_2811" data-name="Rectangle 2811" width="32" height="32" fill="#fff" opacity="0"/>
</svg>
