<svg xmlns="http://www.w3.org/2000/svg" width="20" height="20" viewBox="0 0 20 20">
  <g id="Group_303" data-name="Group 303" transform="translate(3023.489 -590.677)">
    <path id="Ellipse_1" data-name="Ellipse 1" d="M8-2A9.992,9.992,0,0,1,18,8,9.992,9.992,0,0,1,8,18,9.992,9.992,0,0,1-2,8,9.992,9.992,0,0,1,8-2ZM8,16.667A8.664,8.664,0,0,0,14.128,1.872a8.667,8.667,0,1,0-9.5,14.114A8.612,8.612,0,0,0,8,16.667Z" transform="translate(-3021.489 592.677)" fill="#fff"/>
    <path id="Line_1" data-name="Line 1" d="M17.333-.667H-1.333A.667.667,0,0,1-2-1.333.667.667,0,0,1-1.333-2H17.333A.667.667,0,0,1,18-1.333.667.667,0,0,1,17.333-.667Z" transform="translate(-3021.489 602.01)" fill="#fff"/>
    <path id="Ellipse_2" data-name="Ellipse 2" d="M2.4-2a2.687,2.687,0,0,1,1.938.942A6.978,6.978,0,0,1,5.659,1.153,19.046,19.046,0,0,1,6.8,8a19.046,19.046,0,0,1-1.141,6.847,6.978,6.978,0,0,1-1.321,2.211A2.687,2.687,0,0,1,2.4,18a2.687,2.687,0,0,1-1.938-.942A6.978,6.978,0,0,1-.859,14.847,19.046,19.046,0,0,1-2,8,19.046,19.046,0,0,1-.859,1.153,6.978,6.978,0,0,1,.462-1.058,2.687,2.687,0,0,1,2.4-2Zm0,18.667c.686,0,1.441-.865,2.021-2.315A17.7,17.7,0,0,0,5.467,8,17.7,17.7,0,0,0,4.421,1.648C3.841.2,3.086-.667,2.4-.667S.959.2.379,1.648A17.7,17.7,0,0,0-.667,8,17.7,17.7,0,0,0,.379,14.352C.959,15.8,1.714,16.667,2.4,16.667Z" transform="translate(-3015.889 592.677)" fill="#fff"/>
    <path id="Path_1" data-name="Path 1" d="M14.967,13.059A9.971,9.971,0,0,1,7.9,10.13a.667.667,0,0,1,.943-.943,8.659,8.659,0,0,0,12.257,0,.667.667,0,0,1,.943.943,9.971,9.971,0,0,1-7.071,2.929Z" transform="translate(-3028.457 584.551)" fill="#fff"/>
    <path id="Path_2" data-name="Path 2" d="M8.368,43.66A.667.667,0,0,1,7.9,42.522a9.992,9.992,0,0,1,14.142,0,.667.667,0,1,1-.943.943,8.659,8.659,0,0,0-12.257,0A.665.665,0,0,1,8.368,43.66Z" transform="translate(-3028.457 564.15)" fill="#fff"/>
  </g>
</svg>
