<svg id="pic_logo_btm" xmlns="http://www.w3.org/2000/svg" width="148.41" height="18" viewBox="0 0 148.41 18">
  <path id="Path_1" data-name="Path 1" d="M0,16.329,1.734,1.943h2.96s1.122-.409,3.163,1.429,6.225,5.611,6.225,5.611L15,2.148h5.918L19.692,14.186s-.2,2.143-2.143,2.143-2.448.51-5.1-1.939-5.611-5-5.611-5L6.02,16.534s-5.816,0-6.02-.2" transform="translate(0 1.341)" fill="#3c3c3c"/>
  <path id="Path_2" data-name="Path 2" d="M15.228,1.957H21.4l-1.275,9.795s-.358,1.173,1.02,1.173h3.418A1.353,1.353,0,0,0,26.093,11.6c.2-1.529,1.124-9.488,1.124-9.488h5.867L31.757,14.558s-.153,1.99-1.939,1.99H16.044s-2.653.254-2.3-1.887,1.48-12.7,1.48-12.7" transform="translate(9.668 1.378)" fill="#3c3c3c"/>
  <path id="Path_3" data-name="Path 3" d="M26.3,16.456,28.087,2.019h3.674a2.4,2.4,0,0,1,1.836.714c.766.817,4.591,4.643,4.591,4.643H38.6L44.77,2.528a2.917,2.917,0,0,1,1.785-.51h3.674L48.494,16.405H42.168l.917-7.4-4.794,3.877H37.219L33.19,9.161l-.868,7.3Z" transform="translate(18.543 1.419)" fill="#3c3c3c"/>
  <path id="Path_4" data-name="Path 4" d="M43.1,1.987,41.413,16.476h6.07L49.321,2.038s-6.225,0-6.225-.051" transform="translate(29.195 1.4)" fill="#3c3c3c"/>
  <path id="Path_5" data-name="Path 5" d="M47.314,16.47,48.782,3.884s.409-1.838,1.889-1.838H52.61a3.907,3.907,0,0,1,2.041.766c1.115.972,6.682,6.174,6.682,6.174l.97-6.939h5.969l-1.326,12.04s-.2,2.346-2.194,2.346H62.915A4.106,4.106,0,0,1,60.057,14.9c-1.478-1.582-5.764-5.562-5.764-5.562l-.917,7.142-5.981.075a.079.079,0,0,1-.08-.089" transform="translate(33.354 1.441)" fill="#3c3c3c"/>
  <path id="Path_6" data-name="Path 6" d="M64.586,2H79.775l-.382,3.635H69.521A1.366,1.366,0,0,0,67.99,6.824c-.191,1.338-.5,5.088-.5,5.088s-.269.919,1.224.919h9.756l-.5,3.558H63.131s-2.334-.077-2.066-1.95S62.328,3.685,62.328,3.685,62.366,2,64.586,2" transform="translate(43.032 1.41)" fill="#3c3c3c"/>
  <path id="Path_7" data-name="Path 7" d="M66.546,4.942H74.81l-.459,3.712h-8.38Z" transform="translate(46.506 3.482)" fill="#3c3c3c"/>
  <path id="Path_8" data-name="Path 8" d="M73.961,5.532,74.5,2.05h15.88s1.836-.191,1.8,1.338-.612,6.237-.612,6.237-.153,2.029-1.569,2.029H88.769L92.022,16.4h-6.39l-3.291-4.668H81.268l.46-3.6H84.6s1.262-.153,1.262-.994V6.3s.116-.728-.994-.689-10.9-.077-10.9-.077" transform="translate(52.139 1.439)" fill="#3c3c3c"/>
  <path id="Path_9" data-name="Path 9" d="M74.26,5.121h6.083l-.956,9.106H73.265Z" transform="translate(51.647 3.609)" fill="#3c3c3c"/>
  <path id="Path_10" data-name="Path 10" d="M79.156,2.438l.019-1.052A1.277,1.277,0,0,1,80.515.008H90.808s1.913-.191,1.8,1.338-.726,8.189-.726,8.189-.153,1.606-1.34,1.606H89.123l.651-7.422s.037-1.3-1.684-1.3-8.82.019-8.934.019" transform="translate(55.801 0)" fill="#3c3c3c"/>
</svg>
