<svg id="coin_matic" xmlns="http://www.w3.org/2000/svg" width="32" height="32" viewBox="0 0 32 32">
  <g id="polygon-matic-logo" transform="translate(0 1.101)">
    <path id="Path_1256" data-name="Path 1256" d="M24.23,8.506a2.129,2.129,0,0,0-2.005,0l-4.679,2.757-3.175,1.755-4.6,2.757a2.129,2.129,0,0,1-2.005,0L4.178,13.6a2.037,2.037,0,0,1-1-1.755V7.67a2.061,2.061,0,0,1,1-1.755L7.77,3.827a2.129,2.129,0,0,1,2.005,0L13.368,6a2.037,2.037,0,0,1,1,1.755v2.757l3.175-1.838V5.832a2.061,2.061,0,0,0-1-1.755L9.859.151a2.129,2.129,0,0,0-2.005,0L1,4.161A1.838,1.838,0,0,0,0,5.832v7.854A2.061,2.061,0,0,0,1,15.44L7.77,19.367a2.129,2.129,0,0,0,2.005,0l4.6-2.674,3.175-1.838,4.6-2.674a2.129,2.129,0,0,1,2.005,0l3.593,2.089a2.037,2.037,0,0,1,1,1.755V20.2a2.061,2.061,0,0,1-1,1.755L24.23,24.046a2.129,2.129,0,0,1-2.005,0l-3.593-2.089a2.037,2.037,0,0,1-1-1.755V17.529l-3.175,1.838v2.757a2.061,2.061,0,0,0,1,1.755l6.768,3.927a2.129,2.129,0,0,0,2.005,0L31,23.879a2.037,2.037,0,0,0,1-1.755V14.187a2.061,2.061,0,0,0-1-1.755Z" transform="translate(0 0)" fill="#8247e5"/>
  </g>
  <rect id="Rectangle_2812" data-name="Rectangle 2812" width="32" height="32" fill="#fff" opacity="0"/>
</svg>
