<svg id="icon_toolbar_deleteaccount" xmlns="http://www.w3.org/2000/svg" width="20" height="20" viewBox="0 0 20 20">
  <g id="_-Product-Icons" data-name="ðŸ”-Product-Icons" transform="translate(-2 -2)">
    <g id="ic_fluent_delete_forever_28_filled" transform="translate(4 2)">
      <path id="_-Color" data-name="ðŸŽ¨-Color" d="M16.4,13.2A4.4,4.4,0,1,1,12,17.6,4.4,4.4,0,0,1,16.4,13.2ZM12,2a3.2,3.2,0,0,1,3.2,3.04l0,.16h4a.8.8,0,0,1,.093,1.595L19.2,6.8h-.679l-.475,5.866a5.2,5.2,0,0,0-5.4,8.535H9.413a3,3,0,0,1-2.99-2.758L5.478,6.8H4.8a.8.8,0,0,1-.795-.707L4,6a.8.8,0,0,1,.707-.795L4.8,5.2h4A3.2,3.2,0,0,1,12,2Zm2.985,13.619-.055-.046a.4.4,0,0,0-.455,0l-.055.046-.046.055a.4.4,0,0,0,0,.455l.046.055L15.835,17.6l-1.414,1.413-.046.055a.4.4,0,0,0,0,.455l.046.055.055.046a.4.4,0,0,0,.455,0l.055-.046L16.4,18.166l1.415,1.415.055.046a.4.4,0,0,0,.455,0l.055-.046.046-.055a.4.4,0,0,0,0-.455l-.046-.055L16.966,17.6l1.418-1.416.046-.055a.4.4,0,0,0,0-.455l-.046-.055-.055-.046a.4.4,0,0,0-.455,0l-.055.046L16.4,17.035l-1.416-1.416-.055-.046ZM12,3.6a1.6,1.6,0,0,0-1.6,1.481l0,.119h3.2l0-.119A1.6,1.6,0,0,0,12,3.6Z" transform="translate(-4 -2)" fill="#d93f3f"/>
    </g>
  </g>
  <rect id="Rectangle_2832" data-name="Rectangle 2832" width="20" height="20" fill="#d93f3f" opacity="0"/>
</svg>
