<svg id="coin_fil" xmlns="http://www.w3.org/2000/svg" width="32" height="32.001" viewBox="0 0 32 32.001">
  <path id="Path_1260" data-name="Path 1260" d="M16,32A16,16,0,1,1,32,16.16,16.064,16.064,0,0,1,16,32" transform="translate(0 0.001)" fill="#0090ff" fill-rule="evenodd"/>
  <path id="Path_1261" data-name="Path 1261" d="M19.6,15.339l-.48,2.56,4.56.64-.32,1.2-4.48-.64c-.32,1.04-.48,2.16-.88,3.12-.4,1.12-.8,2.24-1.28,3.28a4.318,4.318,0,0,1-3.28,2.56,3.206,3.206,0,0,1-2.56-.48,1.065,1.065,0,0,1-.48-.72,1.146,1.146,0,0,1,.4-.88,1.442,1.442,0,0,1,.8.08,3.552,3.552,0,0,1,.64.88,1.142,1.142,0,0,0,1.76.24,4.833,4.833,0,0,0,1.36-2.4c.48-1.92.96-3.76,1.36-5.68v-.32l-4.24-.64.16-1.2,4.4.64.56-2.48-4.56-.72.16-1.28,4.72.64c.16-.48.24-.88.4-1.28A11.872,11.872,0,0,1,20.08,8.3a4.217,4.217,0,0,1,3.76-2,2.481,2.481,0,0,1,1.92.8.68.68,0,0,1,.24.4,1.341,1.341,0,0,1-.24.96.769.769,0,0,1-1.04-.16c-.24-.24-.4-.48-.64-.72a1.091,1.091,0,0,0-1.76-.16,5.124,5.124,0,0,0-1.04,1.52c-.56,1.68-.96,3.44-1.52,5.2l4.4.64-.32,1.2-4.24-.64" transform="translate(-2.08 -1.258)" fill="#fff" fill-rule="evenodd"/>
</svg>
