<svg id="pic_kyc_passed" xmlns="http://www.w3.org/2000/svg" width="140" height="140" viewBox="0 0 140 140">
  <rect id="Rectangle_2769" data-name="Rectangle 2769" width="140" height="140" fill="#fff" opacity="0"/>
  <g id="Group_346" data-name="Group 346" transform="translate(-10269 -2092)">
    <g id="notepad-svgrepo-com" transform="translate(10283.285 2102)">
      <g id="Group_345" data-name="Group 345" transform="translate(0)">
        <g id="Group_344" data-name="Group 344">
          <path id="Path_442" data-name="Path 442" d="M125.467,221.867h-4a2,2,0,1,0,0,4h4a2,2,0,1,0,0-4Z" transform="translate(-95.467 -169.867)" fill="#fffe79"/>
          <path id="Path_443" data-name="Path 443" d="M125.467,375.467h-4a2,2,0,1,0,0,4h4a2,2,0,1,0,0-4Z" transform="translate(-95.467 -287.467)" fill="#fffe79"/>
          <path id="Path_444" data-name="Path 444" d="M125.467,273.067h-4a2,2,0,1,0,0,4h4a2,2,0,1,0,0-4Z" transform="translate(-95.467 -209.067)" fill="#fffe79"/>
          <path id="Path_445" data-name="Path 445" d="M65.2,68.267h-12a2,2,0,0,0-2,2v86a8.008,8.008,0,0,0,8,8h46a2,2,0,0,0,0-4h-46a4,4,0,0,1-4-4v-84h10a2,2,0,1,0,0-4Z" transform="translate(-43.2 -52.267)" fill="#fffe79"/>
          <path id="Path_446" data-name="Path 446" d="M125.467,324.267h-4a2,2,0,1,0,0,4h4a2,2,0,1,0,0-4Z" transform="translate(-95.467 -248.267)" fill="#fffe79"/>
          <path id="Path_447" data-name="Path 447" d="M360.4,72.267h10v50a2,2,0,1,0,4,0v-52a2,2,0,0,0-2-2h-12a2,2,0,0,0,0,4Z" transform="translate(-278.4 -52.267)" fill="#fffe79"/>
          <path id="Path_448" data-name="Path 448" d="M187.733,275.067a2,2,0,0,0,2,2h36a2,2,0,1,0,0-4h-36A2,2,0,0,0,187.733,275.067Z" transform="translate(-147.733 -209.067)" fill="#fffe79"/>
          <path id="Path_449" data-name="Path 449" d="M205.733,379.467a2,2,0,1,0,0-4h-16a2,2,0,1,0,0,4Z" transform="translate(-147.733 -287.467)" fill="#fffe79"/>
          <path id="Path_450" data-name="Path 450" d="M360.4,38.133h12a6.593,6.593,0,0,1,6,6v52a2,2,0,0,0,4,0v-52a10.534,10.534,0,0,0-10-10h-12a2,2,0,1,0,0,4Z" transform="translate(-278.399 -26.133)" fill="#fffe79"/>
          <path id="Path_451" data-name="Path 451" d="M374.984,393.118,366.4,401.7l-4.586-4.586a2,2,0,0,0-2.828,2.828l6,6a2,2,0,0,0,2.828,0l10-10a2,2,0,1,0-2.828-2.828Z" transform="translate(-278.398 -300.532)" fill="#fffe79"/>
          <path id="Path_452" data-name="Path 452" d="M215.734,326.267a2,2,0,0,0-2-2h-24a2,2,0,1,0,0,4h24A2,2,0,0,0,215.734,326.267Z" transform="translate(-147.734 -248.267)" fill="#fffe79"/>
          <path id="Path_453" data-name="Path 453" d="M83.066,142.134h-56a6.593,6.593,0,0,1-6-6v-92a6.593,6.593,0,0,1,6-6h12a2,2,0,1,0,0-4h-12a10.534,10.534,0,0,0-10,10v92a10.534,10.534,0,0,0,10,10h56a2,2,0,0,0,0-4Z" transform="translate(-17.066 -26.134)" fill="#fffe79"/>
          <path id="Path_454" data-name="Path 454" d="M138.533,24h44a2,2,0,0,0,2-2V10a2,2,0,0,0-2-2H171.847a12,12,0,0,0-22.628,0H138.533a2,2,0,0,0-2,2V22A2,2,0,0,0,138.533,24Zm2-12h10.2a2,2,0,0,0,1.958-1.6,8,8,0,0,1,15.68,0,2,2,0,0,0,1.958,1.6h10.2v8h-40Z" transform="translate(-108.533)" fill="#fffe79"/>
          <path id="Path_455" data-name="Path 455" d="M329.2,324.267a22,22,0,1,0,22,22A22.026,22.026,0,0,0,329.2,324.267Zm0,40a18,18,0,1,1,18-18A18.021,18.021,0,0,1,329.2,364.267Z" transform="translate(-239.2 -248.267)" fill="#fffe79"/>
          <path id="Path_456" data-name="Path 456" d="M121.467,174.667h4a2,2,0,1,0,0-4h-4a2,2,0,1,0,0,4Z" transform="translate(-95.467 -130.667)" fill="#fffe79"/>
          <path id="Path_457" data-name="Path 457" d="M225.866,34.133a4,4,0,1,0,4,4A4,4,0,0,0,225.866,34.133Z" transform="translate(-173.866 -26.133)" fill="#fffe79"/>
          <path id="Path_458" data-name="Path 458" d="M189.734,225.867h28a2,2,0,0,0,0-4h-28a2,2,0,0,0,0,4Z" transform="translate(-147.734 -169.867)" fill="#fffe79"/>
          <path id="Path_459" data-name="Path 459" d="M189.734,174.667h32a2,2,0,0,0,0-4h-32a2,2,0,0,0,0,4Z" transform="translate(-147.734 -130.667)" fill="#fffe79"/>
        </g>
      </g>
    </g>
    <rect id="Rectangle_114" data-name="Rectangle 114" width="120" height="120" transform="translate(10279 2102)" fill="#fffe79" opacity="0"/>
  </g>
</svg>
