<svg id="icon_main_copy" xmlns="http://www.w3.org/2000/svg" width="20" height="20" viewBox="0 0 20 20">
  <path id="Icon_awesome-copy" data-name="Icon awesome-copy" d="M12.5,17.5v1.563a.937.937,0,0,1-.937.938H.938A.937.937,0,0,1,0,19.063V4.688A.937.937,0,0,1,.938,3.75H3.75V15.313A2.19,2.19,0,0,0,5.938,17.5Zm0-13.437V0H5.938A.937.937,0,0,0,5,.938V15.313a.937.937,0,0,0,.938.937H16.563a.937.937,0,0,0,.938-.937V5H13.438A.94.94,0,0,1,12.5,4.063ZM17.225,2.85,14.65.275A.938.938,0,0,0,13.987,0H13.75V3.75H17.5V3.513a.937.937,0,0,0-.275-.663Z" transform="translate(1)" fill="#fff"/>
  <rect id="Rectangle_82" data-name="Rectangle 82" width="20" height="20" fill="#fff" opacity="0"/>
</svg>
