<svg id="litecoin-ltc-logo" xmlns="http://www.w3.org/2000/svg" width="32" height="32" viewBox="0 0 32 32">
  <circle id="Ellipse_7" data-name="Ellipse 7" cx="14.268" cy="14.268" r="14.268" transform="translate(1.732 1.732)" fill="#fff"/>
  <path id="Path_377" data-name="Path 377" d="M16,0A16,16,0,1,0,32,16h0A15.953,15.953,0,0,0,16.093,0Zm.271,16.542L14.605,22.16h8.91a.449.449,0,0,1,.465.434v.147l-.775,2.673a.577.577,0,0,1-.581.426H8.988l2.286-7.787-2.557.775L9.3,17.046l2.557-.775L15.07,5.346a.585.585,0,0,1,.581-.426H19.1a.449.449,0,0,1,.465.434V5.5l-2.712,9.22,2.557-.775-.542,1.86Z" fill="#345d9d"/>
</svg>
