<svg xmlns="http://www.w3.org/2000/svg" width="32" height="32" viewBox="0 0 32 32">
  <g id="Group_322" data-name="Group 322" transform="translate(709 -2163)">
    <g id="Layer_x0020_1" transform="translate(-703 2163)">
      <g id="_1421394342400">
        <g id="Group_162" data-name="Group 162">
          <path id="Path_371" data-name="Path 371" d="M383.715,0,383.5.729V21.888l.215.214,9.822-5.806Z" transform="translate(-373.893)" fill="#343434"/>
          <path id="Path_372" data-name="Path 372" d="M9.822,0,0,16.3,9.822,22.1V0Z" fill="#8c8c8c"/>
          <path id="Path_373" data-name="Path 373" d="M387.361,730.693l-.121.148v7.537l.121.353,9.828-13.841Z" transform="translate(-377.539 -706.731)" fill="#3c3c3b"/>
          <path id="Path_374" data-name="Path 374" d="M9.822,738.731v-8.038L0,724.89Z" transform="translate(0 -706.731)" fill="#8c8c8c"/>
          <path id="Path_375" data-name="Path 375" d="M392.07,482.6l9.822-5.806-9.822-4.464Z" transform="translate(-382.248 -460.497)" fill="#141414"/>
          <path id="Path_376" data-name="Path 376" d="M0,476.794,9.822,482.6V472.33Z" transform="translate(0 -460.497)" fill="#393939"/>
        </g>
      </g>
    </g>
    <rect id="Rectangle_87" data-name="Rectangle 87" width="32" height="32" transform="translate(-709 2163)" fill="#fff" opacity="0"/>
  </g>
</svg>
