<svg xmlns="http://www.w3.org/2000/svg" width="131.921" height="16" viewBox="0 0 131.921 16">
  <g id="Group_310" data-name="Group 310" transform="translate(0 0)">
    <g id="Group_148" data-name="Group 148" transform="translate(0 0.001)">
      <path id="Path_1" data-name="Path 1" d="M0,14.727,1.541,1.939H4.172s1-.364,2.811,1.27S12.517,8.2,12.517,8.2l.815-6.076h5.26L17.5,12.822s-.182,1.9-1.9,1.9S13.423,15.18,11.065,13,6.077,8.56,6.077,8.56l-.726,6.348s-5.169,0-5.351-.182" transform="translate(0 0.981)" fill="#b30017"/>
      <path id="Path_2" data-name="Path 2" d="M15.059,1.957h5.488l-1.134,8.707s-.318,1.043.906,1.043h3.039a1.2,1.2,0,0,0,1.359-1.179c.182-1.359,1-8.434,1-8.434h5.215L29.752,13.158s-.136,1.769-1.723,1.769H15.785s-2.358.226-2.041-1.678S15.059,1.957,15.059,1.957" transform="translate(7.07 1.008)" fill="#b30017"/>
      <path id="Path_3" data-name="Path 3" d="M26.3,14.852,27.889,2.018h3.266a2.135,2.135,0,0,1,1.632.635c.68.726,4.081,4.127,4.081,4.127h.362l5.488-4.309A2.593,2.593,0,0,1,44.3,2.018h3.266L46.028,14.806H40.405l.815-6.576-4.262,3.446h-.953l-3.581-3.31-.771,6.485Z" transform="translate(13.559 1.038)" fill="#fff"/>
      <path id="Path_4" data-name="Path 4" d="M42.909,1.987l-1.5,12.879h5.4L48.442,2.032s-5.533,0-5.533-.045" transform="translate(21.349 1.024)" fill="#fff"/>
      <path id="Path_5" data-name="Path 5" d="M47.314,14.867l1.3-11.187s.364-1.634,1.679-1.634h1.723a3.473,3.473,0,0,1,1.814.68c.991.864,5.939,5.488,5.939,5.488l.862-6.168h5.306l-1.179,10.7s-.182,2.085-1.95,2.085H61.181a3.65,3.65,0,0,1-2.54-1.359c-1.314-1.406-5.124-4.944-5.124-4.944L52.7,14.879l-5.316.067a.071.071,0,0,1-.071-.079" transform="translate(24.391 1.054)" fill="#fff"/>
      <path id="Path_6" data-name="Path 6" d="M64.192,2h13.5l-.339,3.231H68.579a1.215,1.215,0,0,0-1.361,1.055c-.17,1.19-.441,4.522-.441,4.522s-.239.817,1.088.817h8.672L76.1,14.79H62.9s-2.075-.068-1.837-1.734S62.185,3.5,62.185,3.5,62.219,2,64.192,2" transform="translate(31.469 1.031)" fill="#fff"/>
      <path id="Path_7" data-name="Path 7" d="M66.482,4.942h7.346l-.408,3.3H65.971Z" transform="translate(34.009 2.547)" fill="#fff"/>
      <path id="Path_8" data-name="Path 8" d="M73.961,5.144l.476-3.095H88.552s1.632-.17,1.6,1.19-.544,5.544-.544,5.544-.136,1.8-1.394,1.8H87.123L90.015,14.8h-5.68L81.41,10.654h-.953l.409-3.2h2.551s1.121-.136,1.121-.884V5.824s.1-.647-.884-.612-9.693-.068-9.693-.068" transform="translate(38.128 1.052)" fill="#fff"/>
      <path id="Path_9" data-name="Path 9" d="M74.15,5.121h5.407l-.85,8.094H73.265Z" transform="translate(37.769 2.639)" fill="#fff"/>
      <path id="Path_10" data-name="Path 10" d="M79.156,2.167l.017-.935A1.136,1.136,0,0,1,80.364.007h9.149s1.7-.17,1.6,1.19-.646,7.279-.646,7.279S90.328,9.9,89.274,9.9H88.016l.579-6.6s.033-1.156-1.5-1.156-7.84.017-7.941.017" transform="translate(40.806 -0.001)" fill="#b30017"/>
    </g>
  </g>
</svg>
