<?xml version="1.0" encoding="utf-8"?>
<!-- Generator: Adobe Illustrator 26.3.1, SVG Export Plug-In . SVG Version: 6.00 Build 0)  -->
<svg version="1.1" id="coin_eth_btm" xmlns="http://www.w3.org/2000/svg" xmlns:xlink="http://www.w3.org/1999/xlink" x="0px"
	 y="0px" viewBox="0 0 32 32" style="enable-background:new 0 0 32 32;" xml:space="preserve">
<style type="text/css">
	.st0{fill:#343434;}
	.st1{fill:#8C8C8C;}
	.st2{fill:#3C3C3B;}
	.st3{fill:#141414;}
	.st4{fill:#393939;}
	.st5{fill:#FFFFFF;fill-opacity:0;}
	.st6{fill:none;}
	.st7{fill:#B30017;}
	.st8{fill:#FFFFFF;}
</style>
<g id="coin_eth" transform="translate(-5823 788)">
	<g id="Layer_x0020_1" transform="translate(5.25)">
		<g id="_1421394342400">
			<g id="Group_162">
				<path id="Path_371" class="st0" d="M5833.6-786l-0.2,0.6v18.5l0.2,0.2l8.6-5.1L5833.6-786z"/>
				<path id="Path_372" class="st1" d="M5833.6-786l-8.6,14.3l8.6,5.1V-786z"/>
				<path id="Path_373" class="st2" d="M5833.6-765l-0.1,0.1v6.6l0.1,0.3l8.6-12.1L5833.6-765z"/>
				<path id="Path_374" class="st1" d="M5833.6-758v-7l-8.6-5.1L5833.6-758z"/>
				<path id="Path_375" class="st3" d="M5833.6-766.7l8.6-5.1l-8.6-3.9V-766.7z"/>
				<path id="Path_376" class="st4" d="M5825-771.7l8.6,5.1v-9L5825-771.7z"/>
			</g>
		</g>
	</g>
	<rect id="Rectangle_87" x="5825" y="-786" class="st5" width="28" height="28"/>
</g>
<path class="st6" d="M31.5,19.9c-2.1,8.6-10.8,13.8-19.4,11.7S-1.7,20.7,0.5,12.1S11.3-1.7,19.9,0.5c0,0,0,0,0,0
	C28.4,2.6,33.7,11.3,31.5,19.9L31.5,19.9z"/>
<path class="st7" d="M16,31c3.3,0,6.5-1.1,9.2-3.1c1.3-1,2.4-2.2,3.3-3.6c0.9-1.4,1.6-2.9,2-4.6l0-0.1c1-3.9,0.4-7.9-1.7-11.4
	c-2.1-3.4-5.3-5.9-9.2-6.8C18.4,1.2,17.2,1,16,1c-3.3,0-6.5,1.1-9.2,3.1c-1.3,1-2.4,2.2-3.3,3.6c-0.9,1.4-1.6,3-2,4.7
	c-1,3.9-0.4,7.9,1.7,11.4c2.1,3.4,5.3,5.9,9.2,6.8C13.6,30.9,14.8,31,16,31 M16,32c-1.3,0-2.6-0.2-3.9-0.5
	C3.6,29.4-1.7,20.7,0.5,12.1C2.6,3.6,11.3-1.7,19.9,0.5c8.6,2.1,13.8,10.8,11.7,19.4l0,0C29.7,27.1,23.2,32,16,32z"/>
<path id="Rectangle_2828" class="st7" d="M7,26h18c0.6,0,1,0.4,1,1v4c0,0.6-0.4,1-1,1H7c-0.6,0-1-0.4-1-1v-4C6,26.5,6.4,26,7,26z"/>
<g>
	<path class="st8" d="M13.8,29.3c-0.1-0.1-0.3-0.1-0.4-0.1v0c0.1,0,0.3-0.1,0.4-0.1c0.1-0.1,0.2-0.2,0.3-0.3
		c0.1-0.1,0.1-0.2,0.1-0.4v0c0-0.2,0-0.3-0.1-0.5s-0.2-0.2-0.4-0.3c-0.2-0.1-0.4-0.1-0.6-0.1h-0.7h-0.4h-0.4V31h0.4h0.4H13
		c0.3,0,0.5,0,0.7-0.1c0.2-0.1,0.3-0.2,0.4-0.4c0.1-0.2,0.2-0.3,0.2-0.5v0c0-0.2,0-0.3-0.1-0.4S13.9,29.4,13.8,29.3z M12.7,28.1
		c0.1,0,0.3,0,0.4,0.1s0.1,0.2,0.1,0.3v0c0,0.1,0,0.2-0.1,0.3c-0.1,0.1-0.2,0.1-0.4,0.1h-0.4v-0.8H12.7z M13.3,29.9
		c0,0.1,0,0.3-0.1,0.3c-0.1,0.1-0.2,0.1-0.4,0.1h-0.5v-0.9h0.5c0.1,0,0.2,0,0.3,0c0.1,0,0.2,0.1,0.2,0.1
		C13.2,29.8,13.3,29.8,13.3,29.9L13.3,29.9z"/>
	<polygon class="st8" points="14.2,28.2 15.1,28.2 15.1,31 16,31 16,28.2 17,28.2 17,27.5 14.2,27.5 	"/>
	<polygon class="st8" points="19.9,27.5 19.1,29.8 19,29.8 18.2,27.5 17.1,27.5 17.1,31 17.9,31 17.9,28.8 17.9,28.8 18.8,31 
		19.3,31 20.2,28.8 20.2,28.8 20.2,31 21,31 21,27.5 	"/>
</g>
</svg>
