<svg id="icon_toolbar_news" xmlns="http://www.w3.org/2000/svg" width="32" height="32" viewBox="0 0 32 32">
  <path id="XMLID_2215_" d="M31.845,13.893a3.793,3.793,0,0,0-1.879-2.366,5.618,5.618,0,0,0-3.549-.383L24.4,4.011a1.365,1.365,0,0,0-1.009-.974,1.422,1.422,0,0,0-1.357.418C17.057,9.022,15,10.379,9.506,12.78L5.191,14.033A7.228,7.228,0,0,0,7.175,28.194a7.145,7.145,0,0,0,1.7-.209l.452,1.635a5.2,5.2,0,0,0,1.357,2.262l.731.7a1.5,1.5,0,0,0,.974.383,1.376,1.376,0,0,0,.939-2.4l-.731-.7a2.286,2.286,0,0,1-.592-1.009l-.452-1.635,2.018-.592c5.776-.87,8.386-.8,15.449,1.218a1.48,1.48,0,0,0,.383.07,1.317,1.317,0,0,0,.974-.418,1.387,1.387,0,0,0,.348-1.357l-2.053-7.133A5.546,5.546,0,0,0,31.5,16.886,3.719,3.719,0,0,0,31.845,13.893ZM5.087,24.854a4.438,4.438,0,0,1,.87-8.142l3.132-.9,1.427,5.045.974,3.48-3.132.9A4.308,4.308,0,0,1,5.087,24.854Zm14.162-1.531a37.446,37.446,0,0,0-4.976.383l-2.018-7.133-.487-1.74A29.683,29.683,0,0,0,22.415,7.178l4.941,17.363A30.536,30.536,0,0,0,19.249,23.323Zm9.882-7.9a2.509,2.509,0,0,1-1.218.87l-.7-2.436a2.641,2.641,0,0,1,1.5.139,1.061,1.061,0,0,1,.487.626A1.1,1.1,0,0,1,29.131,15.424Zm-8.838-2.3a1.22,1.22,0,0,1-.278,1.7,32.242,32.242,0,0,1-2.818,1.74,1.1,1.1,0,0,1-.557.139,1.2,1.2,0,0,1-1.079-.661,1.215,1.215,0,0,1,.522-1.635,24.694,24.694,0,0,0,2.505-1.531A1.158,1.158,0,0,1,20.292,13.128Z" transform="translate(-0.01 -2.003)" fill="#696969"/>
  <rect id="Rectangle_85" data-name="Rectangle 85" width="32" height="32" fill="#fff" opacity="0"/>
</svg>
