<svg id="pic_emptybox" xmlns="http://www.w3.org/2000/svg" width="140" height="140" viewBox="0 0 140 140">
  <g id="Group_471" data-name="Group 471" transform="translate(2006 -1155)">
    <g id="Group_470" data-name="Group 470" transform="translate(-1996 1170)">
      <path id="Path_1114" data-name="Path 1114" d="M61.465,111.837a.983.983,0,0,1-.492-.132l-50.2-28.983a.984.984,0,0,1-.492-.852V38.681a.984.984,0,0,1,.492-.852l50.2-28.982a.984.984,0,0,1,.984,0l50.2,28.982-.984,1.7-49.708-28.7L12.249,39.249V81.3l49.216,28.415L110.68,81.3V68.558h1.967V81.871a.984.984,0,0,1-.492.852l-50.2,28.983A.983.983,0,0,1,61.465,111.837Z" transform="translate(-1.613 -3.054)" fill="#383838"/>
      <path id="Path_1115" data-name="Path 1115" d="M80.812,69.2,68.446,62.062,56.2,69.13l-.984-1.7,12.733-7.352a.984.984,0,0,1,.984,0L81.8,67.5Z" transform="translate(-8.594 -11.092)" fill="#383838"/>
      <path id="Line_31" data-name="Line 31" d="M49.868,29.821-.5.838.482-.867,50.849,28.116Z" transform="translate(9.661 35.641)" fill="#383838"/>
      <path id="Line_32" data-name="Line 32" d="M.967,43.194-1,43.186-.833,0,1.134,0Z" transform="translate(59.868 64.61)" fill="#383838"/>
      <path id="Path_1116" data-name="Path 1116" d="M80.019,98.044a.984.984,0,0,1-.921-.638l-9.014-24a.984.984,0,0,1,.428-1.2l50.032-28.983a.984.984,0,0,1,1.414.506l8.965,23.939a.984.984,0,0,1-.427,1.2L80.514,97.91A.983.983,0,0,1,80.019,98.044Zm-7.8-24.553,8.313,22.134L128.791,67.58l-8.266-22.072Z" transform="translate(-10.987 -8.448)" fill="#383838"/>
      <path id="Path_1117" data-name="Path 1117" d="M.984,71.176A.984.984,0,0,1,.05,69.882L8.768,43.695l1.867.621-7.9,23.719,6.468-3.759.988,1.7L1.478,71.043A.982.982,0,0,1,.984,71.176Z" transform="translate(0 -8.446)" fill="#383838"/>
      <path id="Line_33" data-name="Line 33" d="M.967,43.19H-1V0H.967Z" transform="translate(59.868 6.644)" fill="#383838"/>
      <path id="Line_34" data-name="Line 34" d="M4.2,8.269a.983.983,0,0,1-.853-.492L-.868.475A.984.984,0,0,1-.508-.868a.984.984,0,0,1,1.344.36l4.215,7.3A.984.984,0,0,1,4.2,8.269Z" transform="translate(25.369 4.72)" fill="#383838"/>
      <path id="Line_35" data-name="Line 35" d="M-.016,9.4A.984.984,0,0,1-1,8.415V-.016A.984.984,0,0,1-.016-1a.984.984,0,0,1,.984.984V8.415A.984.984,0,0,1-.016,9.4Z" transform="translate(38.336 1)" fill="#383838"/>
      <path id="Line_36" data-name="Line 36" d="M7.284,5.183a.979.979,0,0,1-.491-.132L-.508.835A.984.984,0,0,1-.868-.508.984.984,0,0,1,.475-.868l7.3,4.215a.984.984,0,0,1-.493,1.836Z" transform="translate(15.664 14.09)" fill="#383838"/>
    </g>
    <path id="Path_1118" data-name="Path 1118" d="M8.976,0,0,12.134,12.41,19.3l7.7-9.021.828.478,4.979,13.162-6.139-3.544L18.3,16.763l-1.878,1.383,1.689,4.446L31.44,30.285,22.866,8.019l-4.18-2.414-8.138,9.438L5.409,12.077l5.3-7.23.7.4,1.514,4.306,2.188-2.712L13.591,2.665Z" transform="translate(-1977.312 1228.314)" fill="#383838"/>
  </g>
  <rect id="Rectangle_2765" data-name="Rectangle 2765" width="140" height="140" fill="#383838" opacity="0"/>
</svg>
