<svg id="coin_doge" xmlns="http://www.w3.org/2000/svg" width="32" height="32" viewBox="0 0 32 32">
  <g id="Layer_1" data-name="Layer 1">
    <g id="Layer_1-2" data-name="Layer_1">
      <circle id="Ellipse_23" data-name="Ellipse 23" cx="16" cy="16" r="16" fill="#988430"/>
      <circle id="Ellipse_24" data-name="Ellipse 24" cx="15.487" cy="15.487" r="15.487" transform="translate(0.513 0.513)" fill="#7a6a2a"/>
      <circle id="Ellipse_25" data-name="Ellipse 25" cx="15.161" cy="15.161" r="15.161" transform="translate(0.839 0.839)" fill="#ba9f33"/>
      <path id="Path_1135" data-name="Path 1135" d="M136.713,721.089c-.091-.083-.186-.166-.274-.248s-.179-.166-.269-.248l-.269-.256c-.044-.044-.091-.083-.135-.127l-.14-.122c-.357-.339-.717-.678-1.069-1.018.365.334.722.666,1.087,1l.127.127c.044.044.091.083.135.127l.269.248c.091.083.179.166.269.256s.179.173.269.256Zm-4.743-.051s1.3.134,1.934.225c.588.083,2.426.365,2.426.365Zm0,0c.365.031.73.07,1.1.109.186.018.365.039.544.057l.274.031.269.039,1.087.173.544.091c.179.031.357.065.544.1-.179-.018-.365-.044-.544-.07l-.544-.078-1.087-.16c-.091-.013-.179-.031-.269-.044l-.274-.032c-.179-.018-.365-.044-.544-.065-.365-.044-.73-.091-1.1-.147Zm4.23.929s-1.388.352-1.856.487-1.856.551-1.856.551l3.713-1.038Z" transform="translate(-129.718 -706.798)" fill="#cfb66c" fill-rule="evenodd"/>
      <path id="Path_1136" data-name="Path 1136" d="M166.632,888.8c-.308.091-.614.179-.927.262l-.927.248-.922.269-.461.127c-.153.044-.308.083-.466.127.153-.051.308-.1.461-.148l.461-.147c.308-.1.614-.187.922-.282.313-.078.621-.161.935-.236.3-.075.611-.15.924-.22h0Zm-3.518,1.893c.153-.057,1.913-.878,2.322-1.069.2-.1.8-.307.8-.307Z" transform="translate(-160.149 -873.631)" fill="#cfb66c" fill-rule="evenodd"/>
      <path id="Path_1137" data-name="Path 1137" d="M173.69,921.272c.134-.051.261-.114.391-.173l.383-.179.769-.37c.256-.122.5-.256.769-.37.135-.057.269-.1.4-.147l.2-.065c.07-.018.135-.039.2-.057-.256.122-.525.225-.782.344s-.518.231-.782.344l-.782.344c-.262.106-.518.22-.78.329h0Zm.171.717s1.595-.935,2.144-1.235c.287-.16,1.217-.621,1.217-.621Z" transform="translate(-170.726 -904.21)" fill="#cfb66c" fill-rule="evenodd"/>
      <path id="Path_1138" data-name="Path 1138" d="M183.71,934.511c.269-.166.544-.334.818-.5l.41-.249c.14-.083.274-.16.417-.243s.274-.166.417-.243a1.491,1.491,0,0,1,.212-.109l.217-.109c.287-.14.575-.282.878-.4-.274.174-.557.321-.839.474-.14.078-.282.148-.422.225s-.274.161-.417.236-.274.16-.417.235l-.422.23-.852.461h0Zm3.347-1.652s-.992.761-1.313,1-1.266.927-1.266.927Z" transform="translate(-180.575 -916.733)" fill="#cfb66c" fill-rule="evenodd"/>
      <path id="Path_1139" data-name="Path 1139" d="M684.067,697.885l-.507-.961.3-1.2,2.1-.813-.9-1.838.443-1.856.831-1.662,2.568-.4,1.887-1.8,4.075.308.8,4.357-1.54,5.486-.878,2.84-3.557.135-1.652-1.144-1.934-.808Z" transform="translate(-671.894 -675.619)" fill="#e2cc85" fill-rule="evenodd"/>
      <path id="Path_1140" data-name="Path 1140" d="M404.755,1088.373a3,3,0,0,1-1.331.173c-.243-.326-1.944-.479-1.944-.479a.951.951,0,0,0-.588.091,6.545,6.545,0,0,1-1.069.217c-.334.083-.666-.352-.922-.443a3.6,3.6,0,0,1-.6-.326l-.717-.07-1.439-.609-2.287-2.278-.621.973-.192,1.2.691,1.427,1.861,1.7,3.63.922,2.151-.634,2.7-1.139.676-.725Z" transform="translate(-386.342 -1066.139)" fill="#f1d789" fill-rule="evenodd"/>
      <path id="Path_1141" data-name="Path 1141" d="M304.486,690.244l.461-1.4.549-.9,1.768-.148-.531,1.548-1.478,2.63.614,2.348-1.087.544-.334-.513-.269-1.175-.018-1.32Z" transform="translate(-298.969 -676.062)" fill="#f4ecb4" fill-rule="evenodd"/>
      <path id="Path_1142" data-name="Path 1142" d="M311.374,855.066l-.339-.474a.778.778,0,0,1-.039-.422c.051-.2.044-.212.018-.287s-.243-.334-.23-.557-.018-.3.147-.479a.6.6,0,0,0,.122-.474l.225.14.051-.078a.23.23,0,0,1,.083.166c.018-.14-.057-.787.114-.935s.474.691.474.691l-.186-1.217-.479-1.248-.852-1.139-.051-1.256v-.109a4.226,4.226,0,0,0-.5,1.075c-.078.326.109.722.07,1.191s-.07.43.044.614.391.564.282.839c-.1.236-.422.07-.422.07a.708.708,0,0,1-.153.261.58.58,0,0,0-.127-.256c-.005.044-.018.1-.018.1s-.057-.179-.114-.4c-.077-.3-.16-.7-.236-.909-.031.122-.109.492-.109.492l.044.57.212.782.2.512.2.627.173.421.14.321.122.722.588.621.313.14.228-.117h0Z" transform="translate(-303.874 -832.928)" fill="#f3e19d" fill-rule="evenodd"/>
      <path id="Path_1143" data-name="Path 1143" d="M299.691,717.048a4.922,4.922,0,0,0-.544,1.439,9.518,9.518,0,0,0-.154,2.47,10.231,10.231,0,0,0,.344,2.035,11.339,11.339,0,0,0,.735,1.727l.018-.039a2.73,2.73,0,0,1-.212-.531c-.07-.274-.1-.6-.161-.748a3.571,3.571,0,0,1-.2-.456,1.948,1.948,0,0,0-.186-.652,1.322,1.322,0,0,1-.148-.518c-.026-.326.013-.691-.018-.992a3.989,3.989,0,0,1-.044-1.1c.052-.262.321-1,.487-1.595.109-.378.044-.7.243-1.025a2.9,2.9,0,0,0,.365-.813c.051-.181-.528.8-.528.8h0Z" transform="translate(-293.866 -704.005)" fill="#f2e8b0" fill-rule="evenodd"/>
      <path id="Path_1144" data-name="Path 1144" d="M376.3,747.42a.846.846,0,0,0-.321.179,4.67,4.67,0,0,0-.287.383,3.005,3.005,0,0,0-.262.564c-.114.225-.365.564-.4.686s-.083.691-.147.961a1.293,1.293,0,0,0,.065.6l.147-.031a.465.465,0,0,0,.148.321c.147.127.173-.43.173-.43l.551-1.861.831-.564.091-.456-.593-.352h0Z" transform="translate(-368.472 -734.664)" fill="#f5eec0" fill-rule="evenodd"/>
      <path id="Path_1145" data-name="Path 1145" d="M396.624,784.033a1.392,1.392,0,0,0-.582.166c-.078.057-.109.1-.191.173a1.266,1.266,0,0,0-.383.41,2.716,2.716,0,0,0-.236.891c-.026.2-.026.383-.044.544a2.266,2.266,0,0,0-.044.512c.026.248.282.378.307.66l.531-.269.5-1.97,1.062-.666-.6-.673-.318.222h0Z" transform="translate(-388.394 -770.433)" fill="#e6db9d" fill-rule="evenodd"/>
      <path id="Path_1146" data-name="Path 1146" d="M318.17,1213.485l.007-.059c.077-.666.091-1.17.147-1.486a3.9,3.9,0,0,0,.127-.782,3.516,3.516,0,0,1-.013-.673c.039-.274.308-.6.3-.826a.7.7,0,0,0-.174-.4c-.078-.109-.14-.2-.14-.2s.531-.365.526-1.836a.136.136,0,0,1,.031.013l.261.743.179.217.686,1.279.883.857,1.3.878.818.89.083,2.374-1.069,1.388-.175.317a15.207,15.207,0,0,1-3.782-2.692Z" transform="translate(-312.74 -1186.617)" fill="#e5cb7a" fill-rule="evenodd"/>
      <path id="Path_1147" data-name="Path 1147" d="M509.56,1310.284a.731.731,0,0,1,.261-.487.291.291,0,0,1,.057.173,1.543,1.543,0,0,1,1.049-.7,1.078,1.078,0,0,0,.865-.634l1.478-1.344,1.691-1.556,2.056-.722.961-.236a.532.532,0,0,1-.018.225,4.681,4.681,0,0,0,.986-.249c.166-.065.321-.091.4-.005a.888.888,0,0,1,.147.544c.2-.044.43-.235.614-.217.3.031.557.378.857.378.4,0,.575-.243.852-.435.166-.114.4-.256.538-.352.321-.236,3.718-1.274,3.718-1.274l1.191.078.192,1.279-.1,3.343-.038.037-5.415,2.828-7.506,1.151a15.053,15.053,0,0,1-4.8-1.651l-.038-.171h0Z" transform="translate(-500.863 -1281.145)" fill="#d8c173" fill-rule="evenodd"/>
      <path id="Path_1148" data-name="Path 1148" d="M344.85,1571.776c.107-.223.2-.41.219-.476.013.134.038.43.087.743q-.155-.131-.306-.267Z" transform="translate(-338.965 -1544.483)" fill="#f1d789" fill-rule="evenodd"/>
      <path id="Path_1149" data-name="Path 1149" d="M666.051,1429.443l.971-.27.083.026s.044.026.044.114c.122-.07.225-.057.3-.1.039.083.078.357.249.391a.76.76,0,0,0,.564-.225,3.763,3.763,0,0,1,.575-.422,3.083,3.083,0,0,1,.161.344c.217-.173.6-.878,1.134-.865a2.043,2.043,0,0,1,.748-.9,1.628,1.628,0,0,1,1.2-.334,2.06,2.06,0,0,1,.564-.5.52.52,0,0,0,.466.031c.225-.1.479-.5.813-.557a.785.785,0,0,1,.518.109,8.449,8.449,0,0,1,1.644-1.287c-.026-.078-.078-.37.709-1.018.044.039.013.148.044.154a1.829,1.829,0,0,0,.448-.269,3.639,3.639,0,0,1,.878-.526,1.228,1.228,0,0,1,.844.127.385.385,0,0,1,.122-.057,1.615,1.615,0,0,0,.236-.051,1.639,1.639,0,0,1,0,.564,1.257,1.257,0,0,0,.256.109,1.157,1.157,0,0,1-.3.456c.135.065.153.14.344.2a3.813,3.813,0,0,0-.261.41c-.057.122-.262.627-.352.818s-.225.544-.287.614a4.925,4.925,0,0,1-.461.518c.154-.057.782-.249,1.049-.321-.079.116-.482.713-.868,1.287a15.192,15.192,0,0,1-12.436,1.44Z" transform="translate(-654.683 -1399.003)" fill="#e0cd81" fill-rule="evenodd"/>
      <path id="Path_1150" data-name="Path 1150" d="M470.221,703.638a.937.937,0,0,0-.269.031c-.044.031.225.1.308.127a.708.708,0,0,1,.308.287,13.13,13.13,0,0,0,1.618.743l1.113-.057.384-.53-.73-.64.512-1.509-.678.109-1.631.973-.818.313-.117.153Z" transform="translate(-461.927 -690.108)" fill="#dfc57c" fill-rule="evenodd"/>
      <path id="Path_1151" data-name="Path 1151" d="M629.053,792.975a.175.175,0,0,0,.154.083.689.689,0,0,1,.531.173c.148.187.557.782.557.782l.979.352.063-1.152-1.069-.743-1.217.448v.057h0Z" transform="translate(-618.314 -778.945)" fill="#e5cc7c" fill-rule="evenodd"/>
      <path id="Path_1152" data-name="Path 1152" d="M584.069,831.115a1.065,1.065,0,0,0,.4-.07c.225-.083.6-.261.756-.191.225.1.179.4.422.666.147.166.417.161.57.339s.678.1.678.1l.2,1.075-.8,1.025-.262,1.274h-1.082l-.988-.392-.487-1.178.243-1.191.346-1.453Z" transform="translate(-573.522 -816.658)" fill="#d2c281" fill-rule="evenodd"/>
      <path id="Path_1153" data-name="Path 1153" d="M738.968,760.555a.293.293,0,0,0,.083.013.214.214,0,0,0-.07.23c.026.148.109.334.039.448a.561.561,0,0,1,.122.212c.044.127.057.243.344.262a.6.6,0,0,0-.114.091,1.89,1.89,0,0,1,.3.334,2.475,2.475,0,0,0,.378-.09l.057.039.122-.051s-.114-.044-.031-.321c.078-.243.148-.23.154-.248a2.545,2.545,0,0,0,.057-.378,4.534,4.534,0,0,0,.07-.544l-.083-.9-.466-.282-.379-.366-.357.673-.235.235-.018.582.028.065Z" transform="translate(-726.329 -746.046)" fill="#e2c270" fill-rule="evenodd"/>
      <path id="Path_1154" data-name="Path 1154" d="M806.28,518.351a3.168,3.168,0,0,1,.114.417.4.4,0,0,0,.018-.109s.065.357.077.505c.026-.005.051-.013.057.013a2.152,2.152,0,0,1,.051.474,1.29,1.29,0,0,1,.435-.435.761.761,0,0,1,.352-.14c.2-.005.344.127.582.127a4.429,4.429,0,0,0,1.478-.551,1.955,1.955,0,0,0,.7-.321,1.821,1.821,0,0,0,.365-.456c.179-.307.365-.575.552-.608a1.157,1.157,0,0,1-.256.018s.057-.057.154-.135a.6.6,0,0,1,.378-.173c.3,0,.443.044.608.044a.827.827,0,0,0,.261-.044,1.042,1.042,0,0,0,.564.122c.391.005.652.039.857.057s.891-.057,1.087-.051a.953.953,0,0,1,.37.091l-.634-1.843-2.279-1.992-1.357.961-2.087,2.087-2.019.748-.422.474v.722Z" transform="translate(-792.52 -504.599)" fill="#ccb360" fill-rule="evenodd"/>
      <path id="Path_1155" data-name="Path 1155" d="M1023.6,548.916s.057-.057.153-.134a.6.6,0,0,1,.378-.174c.3,0,.443.044.608.044a.826.826,0,0,0,.261-.044,1.044,1.044,0,0,0,.564.122c.391.005.652.039.857.057s.891-.057,1.087-.051a.947.947,0,0,1,.37.091l-.287-.831-.334-.634-.953-1.043-1.152-.678c-.005-.005-.4-.109-.4-.109l-1.036.627-.94,2.431-.018.512.608.287c.153-.256.321-.461.479-.487-.143.016-.251.016-.251.016h0Z" transform="translate(-1005.305 -536.22)" fill="#d5b457" fill-rule="evenodd"/>
      <path id="Path_1156" data-name="Path 1156" d="M859.337,733.37c-.091.005-.166-.013-.186-.078-.078-.217-.14-.248-.2-.248s-.153.14-.2.153-.114-.16-.114-.16l-.057-.026a3.471,3.471,0,0,0-.57.474,4.73,4.73,0,0,1-.795.769,8.582,8.582,0,0,1-.973.148,1.261,1.261,0,0,0-.461.225c-.031.034.091.07.109.1s-.2.018-.218.051a.836.836,0,0,0,.083.248.421.421,0,0,1,.179-.044c.2-.005.344.127.582.127a4.424,4.424,0,0,0,1.478-.552,1.955,1.955,0,0,0,.7-.321,1.831,1.831,0,0,0,.365-.456,3.241,3.241,0,0,1,.29-.414h0Z" transform="translate(-841.059 -720.5)" fill="#d2b257" fill-rule="evenodd"/>
      <path id="Path_1157" data-name="Path 1157" d="M382.96,1244.11a2.164,2.164,0,0,0-.526-.686c-.135-.14-.217-.256-.308-.339a4.156,4.156,0,0,0-.518-.391c-.352-.261-.735-.261-1.03-.582a5.363,5.363,0,0,1-.878-1.561c-.236-.627-.3-.826-.3-.844s.065-.14.148-.122.083.179.1.217a1.281,1.281,0,0,0,.14.179,1.7,1.7,0,0,1,.383.557,2.515,2.515,0,0,0-.091-.448s.456.287.844.588.551.4.666.6a9.2,9.2,0,0,0,.512.844,14.514,14.514,0,0,0,1.894.7l.84.626.417.914-.326.512-.627.135-1.018-.456-.326-.442h0Z" transform="translate(-372.925 -1218.427)" fill="#d2b159" fill-rule="evenodd"/>
      <path id="Path_1158" data-name="Path 1158" d="M455.55,1277.249a2.373,2.373,0,0,0,.73.66,7,7,0,0,0,1.862.691,5.2,5.2,0,0,0,1.1.166,15.764,15.764,0,0,0,2.322-.334,11.154,11.154,0,0,0,1.478-.2,7.6,7.6,0,0,0,1.657-.614c.4-.186.774-.326,1.074-.5a4.569,4.569,0,0,1,1.087-.608.923.923,0,0,1-.443.564c.186-.005.443-.018.443-.018a8.309,8.309,0,0,0-.686.479c-.269.2-.627.551-.992.782-.236.148-.492.256-.66.344a2.965,2.965,0,0,0-.844.614.365.365,0,0,1,.1,0,2.017,2.017,0,0,0-.582.173.789.789,0,0,0-.3.026c-.122.039-.282.127-.448.173a.565.565,0,0,1-.313.039l.039.078s-.307-.005-.41.005c.018.005.013.013.013.013a.159.159,0,0,0-.051.018.532.532,0,0,1-.16.07c-.031.005-.057.005-.1.013.013.031.114.2.161.307-.039.026-.621.466-.621.466a.445.445,0,0,1,.044.091c.018.057.026.14.044.179.044.078.07.091.07.091s-.07.013-.192.044a3.365,3.365,0,0,1-.41.1,1.6,1.6,0,0,1-.166.013.452.452,0,0,1-.07.526c-.21.251-.274.288-.339.448a.7.7,0,0,0-.1-.065.434.434,0,0,1-.2-.14,1.666,1.666,0,0,1-.078.243,3.023,3.023,0,0,0-.179.474c-.07-.078-.2-.23-.378-.2s-.321.274-.352.344c0-.044-.031-.078-.039-.026a1.967,1.967,0,0,1-.652,1.134c-.005-.122-.005-.391-.018-.479a1.258,1.258,0,0,1-.487.287c-.365.16-.307.321-.307.321a.8.8,0,0,1,.166-.526c.2-.269.321-.4.321-.417a.116.116,0,0,0-.026-.057c-.026-.026-.078-.057-.078-.078a.52.52,0,0,0,.321-.466.826.826,0,0,0-.217-.518c-.013-.013.122-.109.1-.14s-.179-.14-.2-.2a.594.594,0,0,1,.026-.114.323.323,0,0,0,.026-.135,1.078,1.078,0,0,0-.1-.261,1.4,1.4,0,0,0,.147,0,1.283,1.283,0,0,1-.122-.243,3.142,3.142,0,0,0-.078-.321c.044.005.153.013.153,0,.005-.039-.1-.1-.051-.154a.26.26,0,0,1,.147.1.592.592,0,0,0-.192-.308.47.47,0,0,1,.378.026.508.508,0,0,1,.2.217s.091.07.231.174a2.512,2.512,0,0,0,.691.435.716.716,0,0,0,.378.013.582.582,0,0,0,.16-.065.289.289,0,0,1,.057-.026,1.247,1.247,0,0,0-.1-.161c.044,0,.1.005.1.005s.031-.07-.109-.2c.031-.031.07-.051.07-.1a.306.306,0,0,1-.14-.1c.026-.018.065-.078.109-.1-.039-.031-.135-.161-.179-.173a.813.813,0,0,0,.122-.057,1.494,1.494,0,0,1-.287-.1,1.712,1.712,0,0,0-.236-.166c-.065-.026-.179-.039-.225-.091a.709.709,0,0,0,.166,0c.039,0,.057.005.07.005-.005-.018-.005-.057.1-.07a.473.473,0,0,0,.14-.044.358.358,0,0,1-.2-.109.8.8,0,0,0-.261-.2c-.065-.013-.186.044-.261.039a.236.236,0,0,1-.148-.065,2.167,2.167,0,0,1-1.108-.435,3.908,3.908,0,0,1-.948-.761,1.143,1.143,0,0,1-.178-.083c-.249-.129-.593-.4-.582-.751h0Z" transform="translate(-447.775 -1254.714)" fill="#c2a44d" fill-rule="evenodd"/>
      <path id="Path_1159" data-name="Path 1159" d="M1008.578,390.644a.337.337,0,0,1,.154.1.477.477,0,0,1-.078.686.443.443,0,0,0,.249.039,1.21,1.21,0,0,0-.326.57.217.217,0,0,0,.1.225.861.861,0,0,0-.173.512,2.073,2.073,0,0,1,.256-.243,6.8,6.8,0,0,1,.634-.435.364.364,0,0,0,.018.134s.334-.274.614-.153c.127.057.07.236.07.236a.3.3,0,0,1,.3.057,5.5,5.5,0,0,1,.382.557,4.08,4.08,0,0,1,.243.334,4.222,4.222,0,0,1,.352.743c.005-.135.039-.344.422-.212a2.351,2.351,0,0,1,1.183.973c.365.556.456,1.183.639,1.422a2.026,2.026,0,0,1,.391.774,6.78,6.78,0,0,0,.326,2.079c.109-.435.274-1.4.274-1.4l.091-.852.1-2.636-2.752-2.286-2.151-1.561-1.4.135.088.2h0Z" transform="translate(-991.279 -383.649)" fill="#caa13e" fill-rule="evenodd"/>
      <path id="Path_1160" data-name="Path 1160" d="M1108.721,238.752s-.039-.256-.686-.691-1.152-.43-1.618-.795c-.357-.287-.73-.948-.973-1.165a1.586,1.586,0,0,1-.274-.836l.795-.666,1.182-1.709,1-1.1.479.666.666.782.37,1.569.135,2.3-1.075,1.649Z" transform="translate(-1086.308 -227.834)" fill="#b59544" fill-rule="evenodd"/>
      <path id="Path_1161" data-name="Path 1161" d="M1309.643,519.291a2.915,2.915,0,0,0-.127-1.03,18.98,18.98,0,0,0-.717-1.826c-.07-.391-.018-.422.057-.466a1.145,1.145,0,0,0,.512-.769.73.73,0,0,1,.634-.582l.3-.217.448,1.121.391,1.012.122.774.091.66-.212,1.4-1.048.948-.445-1.019h0Z" transform="translate(-1286.43 -505.621)" fill="#c89d3a" fill-rule="evenodd"/>
      <path id="Path_1162" data-name="Path 1162" d="M502.89,1700.556v-.029a.221.221,0,0,0,.057-.051c.018-.026.031-.057.044-.065a.489.489,0,0,1,.212-.039,1.632,1.632,0,0,0,.326.078,2.14,2.14,0,0,1,.748-.083c.518.1.639.448.94.647a.6.6,0,0,0,.448.078h.07c.013,0,.109-.109.161-.1.1.005.114.091.179.1a5.831,5.831,0,0,1,.6-.039.285.285,0,0,1,.116.474,1.145,1.145,0,0,0-.344.41,1.449,1.449,0,0,1,.114.1,15.076,15.076,0,0,1-3.666-1.468Z" transform="translate(-494.307 -1671.331)" fill="#ceb052" fill-rule="evenodd"/>
      <path id="Path_1163" data-name="Path 1163" d="M1310.68,697.145a8.964,8.964,0,0,0,.544-.805,27.852,27.852,0,0,0-.443-3.757l1.17-3.834-.031-1.248a11.474,11.474,0,0,1,.192-1.652c.161.287.66.634.769.818a9.53,9.53,0,0,0,.2-1.887,14.14,14.14,0,0,1,.326,1.631l.23,1,.3,1.062.334,1.121.2.774.114.186.1.326.091.352.261.826.154.678.122,1.23a1.874,1.874,0,0,1,.057.287,1.2,1.2,0,0,1-.018.236,2.824,2.824,0,0,1,.026.5.7.7,0,0,1-.187.512,3.1,3.1,0,0,0-.261,1.025l-.287-.191a.78.78,0,0,0-.078-.5.5.5,0,0,0-.544-.248,1.64,1.64,0,0,0-.538.16,1.684,1.684,0,0,1-1.413.673,2.391,2.391,0,0,0-.735.383,4.1,4.1,0,0,1-.647.341h0Z" transform="translate(-1288.311 -673.093)" fill="#cca847" fill-rule="evenodd"/>
      <path id="Path_1164" data-name="Path 1164" d="M1310.68,1289.387s.017.011.05.029a15.208,15.208,0,0,0,4.847-3.593c-.015-.524-.034-1.061-.055-1.26-.044-.422-.013-.852-.026-1.1s-.153-1.261-.217-1.522a.662.662,0,0,0-.225-.391,3.121,3.121,0,0,0-.127.614c0,.122-.026.417-.026.492-.018-.005-.026-.051-.026-.07-.026.065-.057.179-.07.192s.018-.109,0-.135-.051-.013-.044-.078a.731.731,0,0,1,.018-.114,1.187,1.187,0,0,0-.135.4c-.057.287-.057.3-.078.321s-.122.135-.127.174c-.005.07.1.14.1.179.005.065-.091.365-.122.512s-.018.435-.051.583-.051.212-.14.269c.065.013.127.031.127.031a.957.957,0,0,1-.14.709c-.083.114-.1.166-.192.269a1.19,1.19,0,0,0-.321.551.927.927,0,0,1-.018-.127,6.117,6.117,0,0,0-.383.492c-.147.23-.352.217-.41.274a.272.272,0,0,0-.051.243c-.051.013-.147.031-.212.23a.485.485,0,0,1-.23.274,1.223,1.223,0,0,1-.344.109.418.418,0,0,1,.122.039,2.05,2.05,0,0,1-.417.3.872.872,0,0,0-.344.417.3.3,0,0,1-.248.192c.051.031.127.1.166.127a.575.575,0,0,0-.326.161c-.181.15-.243.194-.326.207h0Z" transform="translate(-1288.311 -1259.678)" fill="#c39d3c" fill-rule="evenodd"/>
      <path id="Path_1165" data-name="Path 1165" d="M1099.551,1778.033a1.467,1.467,0,0,1,.32-.169,6.818,6.818,0,0,1,1-.243,3.628,3.628,0,0,1,.487-.161c-.005.045-.01.088-.015.128a15.072,15.072,0,0,1-1.792.445Z" transform="translate(-1080.784 -1747.125)" fill="#d2ba6b" fill-rule="evenodd"/>
      <path id="Path_1166" data-name="Path 1166" d="M1196.023,806.712a3.183,3.183,0,0,1-.23.73c-.148.282-.307.673-.307.673a1.234,1.234,0,0,1,.031-.262,7.353,7.353,0,0,0-.768.487,2.594,2.594,0,0,0-.378.391,7.856,7.856,0,0,0,.269-.826,16.641,16.641,0,0,0-1.509,1.326l-1.411,1.142a4.88,4.88,0,0,1-.5.235c-.243.1-.531.191-.743.274a1.178,1.178,0,0,1,.274-.417,3.054,3.054,0,0,0,.6-.768.7.7,0,0,0-.005-.518c-.07.018-.23.026-.339.057a.663.663,0,0,0-.225.147,5.313,5.313,0,0,1,.261-.922c-.135.005-.365.044-.365.044a3.285,3.285,0,0,1,.87-.914,2.828,2.828,0,0,0-.492.153c-.321.135-.673.334-.935.443a20.6,20.6,0,0,0,1.8-3.06,10.636,10.636,0,0,0,.979-2.465,11.253,11.253,0,0,0,.07-1.388,9.3,9.3,0,0,0,.039-1.2,2.843,2.843,0,0,1,.782,2.017,7.721,7.721,0,0,1-1.2,3.865c.154.044.552.1.96-.614a8.366,8.366,0,0,0,.552-1.2,1.074,1.074,0,0,1,.013.2,5.424,5.424,0,0,0,.878-1.631,2.248,2.248,0,0,1-.039,1.453,1.437,1.437,0,0,1-.544.805,1.224,1.224,0,0,0,.378-.161c.039.1.031.2.1.243s.153.1.166.166a1.89,1.89,0,0,0,.212-.334,7.078,7.078,0,0,0,.051,1.556.526.526,0,0,0,.544-.391,1.6,1.6,0,0,0-.031.865,1.021,1.021,0,0,0,.2-.2h0Z" transform="translate(-1169.808 -786.425)" fill="#c0993a" fill-rule="evenodd"/>
      <path id="Path_1167" data-name="Path 1167" d="M861.038,350.761a1.526,1.526,0,0,1-.538.083c-.3,0-.212-.114-.673-.114-.709,0-3.187.41-3.622.4a9.546,9.546,0,0,0,.953.122l3.156.044.634-.051.236-.48Z" transform="translate(-841.551 -344.744)" fill="#a88f33" fill-rule="evenodd"/>
      <path id="Path_1168" data-name="Path 1168" d="M602.97,681.22a3.6,3.6,0,0,0-.575.544,4.011,4.011,0,0,1-.456.582.4.4,0,0,0,.135-.018s0,.051-.031.065a.181.181,0,0,1,.147.051.263.263,0,0,0-.091.37.4.4,0,0,0,.282.153s-.044.127.14.114a10.469,10.469,0,0,1,1.043-.148.571.571,0,0,1,.466.321c.154.249.287.287.287.287a1.469,1.469,0,0,0,.07-.575,1.711,1.711,0,0,0,.122-.583l-.135-.992-.588-.743-.761.422-.057.147Z" transform="translate(-591.667 -669.034)" fill="#e3c571" fill-rule="evenodd"/>
      <path id="Path_1169" data-name="Path 1169" d="M704.64,479.188s.057.135.3.147a.134.134,0,0,0-.018.109l.013.109a.24.24,0,0,0,.07-.051c.013.057-.013.147,0,.212a.469.469,0,0,0,.039.114.216.216,0,0,1,.013-.026,1.018,1.018,0,0,0,.179.256.106.106,0,0,1,.013-.051.179.179,0,0,0,.031.091.094.094,0,0,1-.026-.018,2.957,2.957,0,0,0,.083.621.289.289,0,0,0,.031-.044c0-.013-.005.114-.018.2a.893.893,0,0,0-.005.217.679.679,0,0,1,.153-.091.553.553,0,0,0,.282-.339,2.27,2.27,0,0,0,.1-.37.518.518,0,0,1,.051.154c.005.065.127.031.127.031l.026-.282.154-.639.14-.4.673-1.048,1.216-.937,1.062.243.9-1.217-1.543-.927-1.46.153-1.325,1.836-1.061,1.665-.192.274h0Z" transform="translate(-692.614 -467.149)" fill="#d8b65b" fill-rule="evenodd"/>
      <path id="Path_1170" data-name="Path 1170" d="M796.366,405.043a1.686,1.686,0,0,0-.352.154c-.261.136-.443.179-.544.378a.978.978,0,0,0-.109.357,2.472,2.472,0,0,1,.282-.1c.109-.026.23-.018.217.026a.3.3,0,0,1-.051.083s.2-.005.2.1a.534.534,0,0,1-.077.261c-.039.051-.2.127-.217.187-.044.122.018.127-.005.225a1.557,1.557,0,0,1-.383.608,3.266,3.266,0,0,0-.41.557,3.549,3.549,0,0,1-.212-.487c-.051.026-.326.179-.326.179l-.637-2.219.013-.148a.4.4,0,0,0,.07-.2c-.1-.031-.109-.057-.236-.178a1.584,1.584,0,0,0-.443-.37.281.281,0,0,0-.225-.166c-.155-.031-.249-.057-.249-.057a.271.271,0,0,0,.122-.1,1.6,1.6,0,0,1-.383.039,1.6,1.6,0,0,0-.352.005c-.116.018-.256.07-.308-.109-.057-.044-.179-.005-.282.147s-.14.274-.339.334a.7.7,0,0,1-.091.249,2.842,2.842,0,0,1-.269.334c-.192.225-.161.6-.466.878s.051-.782.051-.782l.492-1.178,1.4-1.37,2.175-.147.212,1.126,1.062.365.671,1.023h0Z" transform="translate(-776.692 -395.66)" fill="#d3ae4d" fill-rule="evenodd"/>
      <path id="Path_1171" data-name="Path 1171" d="M1011.768,405.527l-.914-1.318-.639-.492s-.456-.839-.487-.865a6.026,6.026,0,0,0-.73-.083l.051.127a.336.336,0,0,1,.154.1.477.477,0,0,1-.078.686.443.443,0,0,0,.248.039,1.21,1.21,0,0,0-.326.57.217.217,0,0,0,.1.225.862.862,0,0,0-.173.512,2.078,2.078,0,0,1,.256-.243,6.65,6.65,0,0,1,.634-.435.365.365,0,0,0,.018.135s.334-.274.614-.153c.127.057.07.236.07.236a.3.3,0,0,1,.3.057,5.471,5.471,0,0,1,.383.557,4.082,4.082,0,0,1,.243.334,4.214,4.214,0,0,1,.352.743c.005-.1.026-.249.2-.249l-.272-.487Z" transform="translate(-991.75 -395.896)" fill="#caa13e" fill-rule="evenodd"/>
      <path id="Path_1172" data-name="Path 1172" d="M368.494,621.909a.892.892,0,0,1,0-.474,4.771,4.771,0,0,0,.2-.922,3.286,3.286,0,0,1,.334-1.036l.831-.378.588.16.173.787-.743.41a.57.57,0,0,1-.248.313c-.21.14-.5.249-.57.391a1.142,1.142,0,0,0-.091.274.389.389,0,0,0-.339.1.5.5,0,0,0-.135.378Z" transform="translate(-362.177 -608.534)" fill="#f4efc8" fill-rule="evenodd"/>
      <path id="Path_1173" data-name="Path 1173" d="M339.312,496.257a.378.378,0,0,0-.122.154,3.118,3.118,0,0,1-.179-1.018c-.005-.443-.032-.552.071-.705s.5-.313.447-.588a.43.43,0,0,0-.588-.3c-.2.051-.357.487-.57.7-.161.166-.352.14-.4.23-.07.122-.005.243-.026.321a1.55,1.55,0,0,1-.187.334,3.342,3.342,0,0,0-.686,1.248,2.136,2.136,0,0,1,.07-.518l-.039-.065.256-.839.166-.691.37-1.157.652-1.183.634-.709.66.044.078.992.378,1.862.795.979-1.274.857-.5.044h0Z" transform="translate(-331.317 -483.092)" fill="#ebcc73" fill-rule="evenodd"/>
      <path id="Path_1174" data-name="Path 1174" d="M461.838,703.716a.322.322,0,0,1-.148.005c-.039-.021-.077-.044-.065-.07s.083-.07.083-.091a.073.073,0,0,0-.065-.078.07.07,0,0,0-.078.031.293.293,0,0,0-.1-.051.708.708,0,0,1,.083-.005.808.808,0,0,0-.225-.065c.065-.039.192-.153.274-.153s.135-.013.122-.057a.264.264,0,0,0-.147-.135c.026-.031.044-.078-.018-.2a.246.246,0,0,1-.018-.243,1.656,1.656,0,0,1,.114-.153.416.416,0,0,1,.109-.135,1.363,1.363,0,0,1,.192-.083c.091-.031.166-.07.217-.031a.071.071,0,0,1,.031.091.467.467,0,0,1,.339.018,2.564,2.564,0,0,0,.552.127l.14.282-.927.795-.383.192-.078.013h0Z" transform="translate(-453.447 -690.2)" fill="#e5c66b" fill-rule="evenodd"/>
      <path id="Path_1175" data-name="Path 1175" d="M493.389,607.167a3.577,3.577,0,0,0-.352.261c.039.005.1.031.077.07a4.176,4.176,0,0,0-.321.3,1.981,1.981,0,0,0-.249.365,1.312,1.312,0,0,1-.435.3c.212,0,.639-.261.8-.261a.158.158,0,0,0,.135.173,1.006,1.006,0,0,0,.7-.16c.352-.212.236-.37.383-.474.282-.187.4-.352.551-.456a1.008,1.008,0,0,1,.236-.127s.005-.078.051-.07a.07.07,0,0,1,.057.044,1.589,1.589,0,0,1,.614-.243.036.036,0,0,1-.018-.018s.026-.013.031-.026.018-.026.031-.013.031.109.057.148c.057-.026.166-.269.166-.269l.262-.748v-.683l-.2.039-1.536.652-.932.966-.109.23Z" transform="translate(-483.711 -594.95)" fill="#e6bd62" fill-rule="evenodd"/>
      <path id="Path_1176" data-name="Path 1176" d="M706.448,487.16a.868.868,0,0,0,.236-.1,1.069,1.069,0,0,1-.166.37,3.127,3.127,0,0,0-.248.43c-.109.212-.122.518-.225.652a.473.473,0,0,1,.147-.044.683.683,0,0,0-.147.186.885.885,0,0,1-.313.417,2.49,2.49,0,0,0-.7.487c-.262.282-.531.639-.666.768a1.916,1.916,0,0,0,.192-.525c.026-.16-.005-.352.039-.564a1.843,1.843,0,0,1,.256-.735,12.6,12.6,0,0,0,.575-1.657l.782-.249.236.559h0Z" transform="translate(-692.349 -478.295)" fill="#b6933f" fill-rule="evenodd"/>
      <path id="Path_1177" data-name="Path 1177" d="M772.253,399.4a2.179,2.179,0,0,0-.3.639c-.065.3-.005.274-.044.422a.551.551,0,0,0,0,.274.974.974,0,0,1,.326-.321,2.672,2.672,0,0,0,.512-.344,1.886,1.886,0,0,1,.435-.474c-.1-.013-.23-.057-.256-.051a5.8,5.8,0,0,1,.673-.474,2.6,2.6,0,0,1,.735-.492,3.181,3.181,0,0,1-.352,0c.051-.109.23-.161.41-.339s-.114-.443-.114-.443l-1.365.826-.66.777Z" transform="translate(-758.718 -391.011)" fill="#c49937" fill-rule="evenodd"/>
      <path id="Path_1178" data-name="Path 1178" d="M576,157.78l.031-.248.391-.627.409-1.1v-1.5l-.031-.87.065-.57.049-.181.052-.07.334.173.461.627.044,1.209-.448,1.908-1.279,1.4Z" transform="translate(-566.17 -150.005)" fill="#dfc068" fill-rule="evenodd"/>
      <path id="Path_1179" data-name="Path 1179" d="M340.828,148.14s-.2.005-.248.857-.065,1.3-.1,1.722a9.255,9.255,0,0,1-.14.927,2.549,2.549,0,0,1-.173.795,1.828,1.828,0,0,1-.417.621,2.57,2.57,0,0,1-.782.435,4.036,4.036,0,0,0-.927.212,1.409,1.409,0,0,0-.383.243,4.889,4.889,0,0,0-1.03,1.4,19.444,19.444,0,0,0-.922,3.474l.1-.173a1.645,1.645,0,0,1,.243-.634c.225-.4.161-.857.474-1.631a8.889,8.889,0,0,1,.461-1A3.73,3.73,0,0,1,338,154.145a3.2,3.2,0,0,1,1.235-.492l.7-.461s.122-.236.282-.5a3.269,3.269,0,0,0,.575-1.413,13.1,13.1,0,0,0-.122-2.043c.013-.538.018-.935.127-1.03s.031-.06.031-.06h0Z" transform="translate(-329.981 -145.606)" fill="#a88f33" fill-rule="evenodd"/>
      <path id="Path_1180" data-name="Path 1180" d="M631.551,150.287a9.888,9.888,0,0,0,.448-1.427c.026-.135.078-.269.091-.378a3.416,3.416,0,0,0,0-1.243,2.219,2.219,0,0,0-.443-.666c-.127-.187-.186-.256-.16-.3a.287.287,0,0,1,.225-.1.771.771,0,0,1,.552.256,3.338,3.338,0,0,1,.357,1.012l.166,1.032.422,1.3-1.657.505h0Z" transform="translate(-620.703 -143.688)" fill="#c99e3d" fill-rule="evenodd"/>
      <path id="Path_1181" data-name="Path 1181" d="M664.141,156.26a.263.263,0,0,1-.16,0,.231.231,0,0,1-.1.217,8.743,8.743,0,0,0-1.126.044.865.865,0,0,1-.621-.709c-.1-.417.078-.992.018-1.37a8.381,8.381,0,0,0-.23-.839c-.013-.173-.026-.217-.026-.326a.6.6,0,0,0-.147-.031c-.013-.051.013-.1-.044-.187a1.03,1.03,0,0,1,.492.274.926.926,0,0,1,.236.3,2.407,2.407,0,0,1,.487.575c.135.268.4,1.121.456,1.261a.929.929,0,0,0,.154.243c.15.187.37.495.619.546h0Z" transform="translate(-650.407 -150.448)" fill="#b58634" fill-rule="evenodd"/>
      <path id="Path_1182" data-name="Path 1182" d="M706.47,187.5a7.18,7.18,0,0,1,.422.787,3.57,3.57,0,0,0,.435.857c-.1-.3-.287-.891-.4-1.1a2.523,2.523,0,0,0-.461-.544h0Z" transform="translate(-694.413 -184.3)" fill="#a88f33" fill-rule="evenodd"/>
      <path id="Path_1183" data-name="Path 1183" d="M450.494,436.89a3.786,3.786,0,0,0-.748.321c-.161.083-.313.153-.461.217a8.042,8.042,0,0,1-1.121.422c.026.031.039.044.039.044a.326.326,0,0,0,.07.2c-.039.039-.557.391-.4,1.569.1-.039.225-.091.243-.091s.039.091.078.091a.519.519,0,0,0,.3-.225,1.748,1.748,0,0,0,.334,1.248c.078-.091.274-.391.274-.391l.005-.1a2.6,2.6,0,0,1,.127-.639,1.7,1.7,0,0,1,.321-.531l1.108-1.582-.166-.557h0Z" transform="translate(-440.197 -429.434)" fill="#e6c367" fill-rule="evenodd"/>
      <path id="Path_1184" data-name="Path 1184" d="M532.286,359.291a.612.612,0,0,1-.166.083.641.641,0,0,1,.109-.5,6.76,6.76,0,0,0,.678-.87,1.888,1.888,0,0,1,.66-1.165c.621-.557.865-.748.865-.748l1-.5,1.235.487-.614,2.4-.476,1.126-1.894-.357-1.4.05h0Z" transform="translate(-523.025 -349.511)" fill="#dcba5a" fill-rule="evenodd"/>
      <path id="Path_1185" data-name="Path 1185" d="M585,438.623l.236-.3v-.21a1.339,1.339,0,0,0,.544-.357c.282-.287.673-.839,1.018-.805s.378.748.391.948a5.447,5.447,0,0,0,.127.9c.078.243-.839,1.165-.839,1.165l-.622.474L585,438.623Z" transform="translate(-575.016 -429.497)" fill="#e9ce77" fill-rule="evenodd"/>
      <path id="Path_1186" data-name="Path 1186" d="M627.73,530.936s.192-.3.051-.365a2.213,2.213,0,0,1,.236-.383,1.934,1.934,0,0,1,.461-.6,2,2,0,0,0,.627-.774,2.038,2.038,0,0,0,.057-.443.845.845,0,0,0,.122.083.724.724,0,0,1,.287.7,1.144,1.144,0,0,1-.2.634,3.046,3.046,0,0,1-.274.243c-.122.083-.166.179-.37.186a.244.244,0,0,1,.07-.039.476.476,0,0,0-.326.078c-.114.1-.356.422-.478.518-.122.078-.256.166-.256.166h0Z" transform="translate(-617.017 -519.352)" fill="#cdae50" fill-rule="evenodd"/>
      <path id="Path_1187" data-name="Path 1187" d="M687.638,343.051a3.119,3.119,0,0,0-.953-.186c-.544-.018-1.339.013-2.118.018-.839.005-1.6-.287-2.656-.339-.173-.1-.614-.557-1.991.4.083-.005,1-.212,1.318.187a1.6,1.6,0,0,1,.187,1.23c-.083.357-.352.878-.461,1.243s-.083.557-.161.813-.248.383-.148.678c.135-.083.2-.083.43-.588s.179-.865.552-1.292a8.417,8.417,0,0,1,1.2-1.165,4.487,4.487,0,0,1,3.987-.191c.463-.049.81-.811.81-.811h0Z" transform="translate(-668.316 -336.504)" fill="#d2a83e" fill-rule="evenodd"/>
      <path id="Path_1188" data-name="Path 1188" d="M588.8,350.181a.234.234,0,0,0-.013-.057.414.414,0,0,0-.07-.1,3.323,3.323,0,0,0-.686-.057c-.4.044-.769.544-.94.8a4.73,4.73,0,0,1-.614.857.085.085,0,0,0-.013-.057s.013.018-.013.044-.026.039-.013.051l.039.039a3.173,3.173,0,0,0,.857-.614,4.317,4.317,0,0,1,1.121-.8,1.577,1.577,0,0,1,.344-.1h0Z" transform="translate(-576.425 -343.986)" fill="#c29637" fill-rule="evenodd"/>
      <path id="Path_1189" data-name="Path 1189" d="M1081.989,248.94s-.083.1-.187.217c-.23.243-.531.518-.787.8s-.518.479-.826.831-.666.743-.756.857a.845.845,0,0,0-.147.4c-.044-.031-.1-.065-.1-.065a.645.645,0,0,0,.078.114c.065.091.166.2.217.274a.837.837,0,0,1,.135.3c.031.005.23.044.479-.365s.575-.857.575-.857l.518-.769.326-.652.41-.73.062-.347h0Z" transform="translate(-1060.772 -244.691)" fill="#ac8132" fill-rule="evenodd"/>
      <path id="Path_1190" data-name="Path 1190" d="M1225.635,218.3a3.939,3.939,0,0,0-.435.41c-.122.154-.41.557-.41.557l.1-.013.526-.466.2-.365.01-.122Z" transform="translate(-1203.887 -214.574)" fill="#a88f33" fill-rule="evenodd"/>
      <path id="Path_1191" data-name="Path 1191" d="M1268.581,1150.2a.541.541,0,0,1,.114-.339,2.464,2.464,0,0,0,.73-1.012,6.655,6.655,0,0,0,.334-.857,3.759,3.759,0,0,1-.87.57c.078-.161.122-.274.161-.357-.044-.039-.23-.083-.249-.1.1-.1.16-.357.37-.526.269-.2.761-.557,1.144-.87a7.622,7.622,0,0,0,1.23-1.255.469.469,0,0,1,.07.134s-.378.492-.575.805a.768.768,0,0,0-.161.422l.357-.154s.1.383-.365.966c.2-.078.287-.031.4-.1a1.815,1.815,0,0,0-.7.743,3.2,3.2,0,0,1-1.134,1.318,9.387,9.387,0,0,0-.857.611h0Z" transform="translate(-1246.929 -1125.901)" fill="#a67a2e" fill-rule="evenodd"/>
      <path id="Path_1192" data-name="Path 1192" d="M1129.022,296.251a2.856,2.856,0,0,0-.243.787c-.005.083-.026.148-.026.243a2.981,2.981,0,0,1-.051.813.429.429,0,0,0-.065-.134c-.039.109-.109.448-.166.575a2.7,2.7,0,0,1-.078-.709c.005-.339.013-.4.013-.474a2.071,2.071,0,0,1-.109.326c-.039-.07-.083-.16-.135-.236a1.464,1.464,0,0,1-.1.166c-.005-.031-.018-.114-.026-.23a3.256,3.256,0,0,1-.005-.344,1.557,1.557,0,0,1,.352-.6,4.984,4.984,0,0,0,.64-1.056c.083-.179.435-.922.435-.922h.269l-.391.891s-.235.487-.357.666-.378.691-.492.891c.083-.109.153-.166.236-.269a4.262,4.262,0,0,0,.3-.386h0Z" transform="translate(-1108.773 -289.435)" fill="#8c6228" fill-rule="evenodd"/>
      <path id="Path_1193" data-name="Path 1193" d="M1203.476,216.32a1.114,1.114,0,0,1-.2.37c-.161.192-.505.448-.673.652a1.764,1.764,0,0,0-.321,1.388,2.331,2.331,0,0,1,.4-.73,5.6,5.6,0,0,0,.666-.953,1.6,1.6,0,0,0,.153-.5l.051-.065-.031-.148-.044-.01Z" transform="translate(-1181.724 -212.628)" fill="#cba94c" fill-rule="evenodd"/>
      <path id="Path_1194" data-name="Path 1194" d="M1395.947,516.517a2.833,2.833,0,0,1-.135-.538c-.031-.256.051-.307-.044-.6-.057-.179-.161-.154-.186-.179a1.522,1.522,0,0,1-.039-.443,1.66,1.66,0,0,0-.031-.422c-.039-.031-.065-.057-.122-.248a2.735,2.735,0,0,0-.127-.344c-.031-.057-.122-.109-.122-.166,0-.114.1-.173.1-.2-.005-.065-.083-.013-.1-.031s.065-.217.031-.243c-.013-.013-.1.1-.127.065s-.057-.339-.1-.544-.091-.344-.1-.4-.357-1.062-.443-1.3a6.184,6.184,0,0,1-.173-.627,3.19,3.19,0,0,0-.057-.344c-.013.026-.005.153-.026.148s-.083-.448-.1-.518a3.581,3.581,0,0,1-.154-.479c-.026-.174-.083-.627-.122-.935s-.057-.435-.057-.512a3.186,3.186,0,0,0-.031-.564,5.249,5.249,0,0,0-.243-.953c-.173-.435-.634-1.548-.717-1.825,0-.07.091-.031.091-.031s.225.564.391,1a6.7,6.7,0,0,0,.352.857,3.215,3.215,0,0,1,.383,1.165c.109.7.147,1.344.212,1.773a4.617,4.617,0,0,0,.122.639c.07.236.178.479.321.852a5.639,5.639,0,0,1,.261.8c.057.287.057.5.091.647.031.122.078.365.187.717s.269.805.378,1.087a6.025,6.025,0,0,1,.339,1.287,12.379,12.379,0,0,1,.1,1.424h0Z" transform="translate(-1368.951 -495.652)" fill="#a88f33" fill-rule="evenodd"/>
      <path id="Path_1195" data-name="Path 1195" d="M1250.246,213.026l-.013.031a.055.055,0,0,1,.031.065,1.543,1.543,0,0,1-.013.212c-.013.091-.039.16-.044.217a1.09,1.09,0,0,1-.154.608c-.051.1-.083.179-.109.236a.7.7,0,0,1-.135.225c.091-.051.417-.256.583-.225a1.213,1.213,0,0,0-.4.357.89.89,0,0,0,.307,0,4.275,4.275,0,0,1,.891-.127c.308.018.187-.37.187-.37l-.356-.782-.673-.474-.106.026Z" transform="translate(-1228.48 -209.365)" fill="#be9c44" fill-rule="evenodd"/>
      <path id="Path_1196" data-name="Path 1196" d="M1277.243,195.023a2.4,2.4,0,0,1-.422-1.331,23.99,23.99,0,0,1-.1-2.56l-.243-.6a1.389,1.389,0,0,0-.179-.544c-.128-.147-.378-.4-.492-.518s-.243-.287-.321-.313a.888.888,0,0,1,.878-.435.93.93,0,0,1,.94.5,4.887,4.887,0,0,1,.5,1.826,6.262,6.262,0,0,1-.109,2.8,2.853,2.853,0,0,1-.456,1.168Z" transform="translate(-1253.722 -185.506)" fill="#a17c34" fill-rule="evenodd"/>
      <path id="Path_1197" data-name="Path 1197" d="M1316.637,588.355a.508.508,0,0,0,.287-.065.808.808,0,0,0,.709-.3.605.605,0,0,1-.057.474,1.08,1.08,0,0,1,.174-.109,1.633,1.633,0,0,1-.287,1.108.452.452,0,0,1,.334-.122,1.318,1.318,0,0,1-.114.831.337.337,0,0,1-.334.114.646.646,0,0,0,0-.109c-.005-.07-.031-.14-.013-.186a.929.929,0,0,1-.269-.187,1.679,1.679,0,0,1-.538-.844.333.333,0,0,1,.243-.365.289.289,0,0,1-.057-.07.394.394,0,0,0-.078-.171Z" transform="translate(-1294.058 -577.955)" fill="#8c6228" fill-rule="evenodd"/>
      <path id="Path_1198" data-name="Path 1198" d="M1201.233,296.686s-.013-.018-.083.065c.013-.083.026-.161.031-.236a.812.812,0,0,1,.127-.191c-.039.077-.065.147-.065.147a1.043,1.043,0,0,1,.236-.287c.1-.078.217-.114.269-.186a.477.477,0,0,0,.057-.1,1.61,1.61,0,0,0,.321-.326c.026-.031.065-.065.091-.1.044-.018.147-.065.269-.127s.269-.166.357-.2c.173-.078.357-.07.443-.192.065-.018.134-.212.122-.378a1.568,1.568,0,0,1,.756,1.012,3.67,3.67,0,0,1-.187,1.556,2.381,2.381,0,0,1-.23.774c-.161.212-.678.512-.805.66-.109.122-.435.43-.422.652.013.166.217.256.262.287s.044.07.127.051.114-.057.148-.057.039.013.057.013a.185.185,0,0,0,.039-.005s-.013.236-.564.307c-.039.005-.078.018-.127.026a.316.316,0,0,0,.174-.127c-.078-.013-.3-.026-.357-.044a.687.687,0,0,1,.127-.153c.044-.039-.005-.051-.044-.031a2.072,2.072,0,0,0-.192.147,1.854,1.854,0,0,1-.225.2.5.5,0,0,1,.1-.443c-.031.005-.091.1-.148.078a.823.823,0,0,1,.018-.282,1.29,1.29,0,0,1,.2-.321l.813-1.453.173-1.1-1.861.362h0Z" transform="translate(-1180.65 -289.543)" fill="#92723a" fill-rule="evenodd"/>
      <path id="Path_1199" data-name="Path 1199" d="M1164.958,409.775s-.044.031.044.091a.98.98,0,0,1-.083.127c-.044.051-.091.083-.109.127a.707.707,0,0,0-.07.192.944.944,0,0,1-.122.448,1.9,1.9,0,0,0-.114.217,1.606,1.606,0,0,0-.135.256,2.69,2.69,0,0,0-.044.339l.078-.1a.727.727,0,0,1-.114.186c.031-.026.122-.091.274-.225a6.813,6.813,0,0,1,.948-.717,1.384,1.384,0,0,1-.308.057c.065-.065.647-.748.953-.813a.121.121,0,0,0,.026-.083l-.262-.026-.531.114-.078-.41-.355.215Z" transform="translate(-1144.419 -402.57)" fill="#b18e3e" fill-rule="evenodd"/>
      <path id="Path_1200" data-name="Path 1200" d="M1198.73,387.228a.72.72,0,0,0-.135.243.818.818,0,0,1-.127-.174.446.446,0,0,0-.588-.249,1.086,1.086,0,0,1,0-.243,1.341,1.341,0,0,0,.4-.357,1.655,1.655,0,0,0,.313-.5c.051-.039.14-.1.256-.179.166-.114.365-.269.4-.443a1.059,1.059,0,0,1-.492.1c.1-.044.243-.091.225-.282.039-.026.07-.044.07-.044a.256.256,0,0,0-.091-.013c-.005-.018-.013-.044-.057-.031s-.051.013-.057.031a.275.275,0,0,0-.122.031,1.874,1.874,0,0,1-.212.153c.018-.031.044-.077.044-.077a.9.9,0,0,0-.218.051,4.524,4.524,0,0,0-.551.261c.018-.031.026-.051.039-.057s.044-.013.044-.018a.187.187,0,0,1-.005-.07,2.376,2.376,0,0,1,.2-.352.687.687,0,0,0,.109-.3l.4-.2,1.113-.256.723.044-.091.5-.427.872-.365.795-.417.487-.383.28h0Z" transform="translate(-1177.348 -377.692)" fill="#543e26" fill-rule="evenodd"/>
      <path id="Path_1201" data-name="Path 1201" d="M1204.966,356.137a6.473,6.473,0,0,1-.557.621c.078-.166.557-1.152.73-1.427-.039-.031-.091-.031.031-.512-.1.243-.14.37-.225.435a.16.16,0,0,1-.154.044.108.108,0,0,0,.013-.065s-.365-.044-.614-.044a3.667,3.667,0,0,0-1.017.243,4.166,4.166,0,0,0-.417.147c-.078.065-.122.135-.161.153s-.179.065-.212.114-.083.109-.083.122-.013.031.026.018c.013-.005.109-.057.217-.122.147-.083.326-.178.456-.236a2.11,2.11,0,0,1,.652-.153,4.062,4.062,0,0,1,.588-.1,4.928,4.928,0,0,1,.552.013c-.031.026-.057.057-.044.166a.806.806,0,0,1-.051.14c-.078.212-.225.564-.307.743-.114.243-.243.448-.307.575a4.191,4.191,0,0,1-.344.639c-.14.179-.212.287-.256.326s-.357.269-.334.352a1.729,1.729,0,0,0,.678-.448,5.431,5.431,0,0,1,.518-.634,1.73,1.73,0,0,0,.461-.652,2.863,2.863,0,0,1,.163-.456h0Z" transform="translate(-1181.779 -348.764)" fill="#806031" fill-rule="evenodd"/>
      <path id="Path_1202" data-name="Path 1202" d="M776.664,664.787a.813.813,0,0,1-.187.352c-.127.114-.352.212-.378.4s.225.287.225.287a1,1,0,0,0-.14.4,2.668,2.668,0,0,0,.013.383.171.171,0,0,0-.051.051.423.423,0,0,0,.14.269c.127.1.236.166.3.14a.632.632,0,0,1,.026.065s.1-.243.161-.456.122-.187.147-.479a2.806,2.806,0,0,1,.307-.795l.192-.429-.313-.243-.443.047Z" transform="translate(-762.852 -653.395)" fill="#b6903c" fill-rule="evenodd"/>
      <path id="Path_1203" data-name="Path 1203" d="M806.609,692.2a1.881,1.881,0,0,0-.178.212.622.622,0,0,1-.269.262c-.122.044-.2.044-.192.166s.122.173.186.236a.3.3,0,0,1,.1.3.3.3,0,0,0,.173-.179c.065-.14.517-.992.517-.992h-.334Z" transform="translate(-792.214 -680.386)" fill="#685026" fill-rule="evenodd"/>
      <path id="Path_1204" data-name="Path 1204" d="M805.255,539.805a.256.256,0,0,0,0-.179c-.039-.078-.274-.1-.391-.192a.463.463,0,0,0-.391-.114c.018-.044.091-.14.031-.161a.7.7,0,0,0-.326.122c-.057.044-.187.1-.212.127s-.07.091-.1.065-.039-.065-.083-.039a1.053,1.053,0,0,0-.3.3,1.536,1.536,0,0,1-.391.582c-.264.256-.378.422-.3.518s.114.026.127.109a.7.7,0,0,1-.013.243c-.031.135-.083.261-.013.287.179.057.352-.051.391-.018.078.07-.044.321.14.37a.571.571,0,0,0,.37-.044l.678-.365.652-.344.334-.66-.179-.551-.034-.057Z" transform="translate(-789.076 -529.957)" fill="#d4b968" fill-rule="evenodd"/>
      <path id="Path_1205" data-name="Path 1205" d="M907.979,553.4a.272.272,0,0,1,.026-.326c.14-.153.339-.217.417-.313a.12.12,0,0,0-.057-.039.515.515,0,0,1,.225-.213.216.216,0,0,0-.147-.07c-.127,0-.2.078-.321.078s-.127-.057-.127-.057.192-.018.173-.1-.051-.091-.051-.091a1.945,1.945,0,0,0,.435-.236.474.474,0,0,0,.07-.217c.044,0,.3-.135.4-.078s.031.212.031.212a2.552,2.552,0,0,0,.473-.467c.14.013.2-.1.307-.1.127,0,.326.173.365.544a2.325,2.325,0,0,1,.026.709,3.27,3.27,0,0,0,.051.891c.044.179.147.161.147.161a.29.29,0,0,1-.091.14.433.433,0,0,0-.07.3,1.275,1.275,0,0,0,.039.14.648.648,0,0,0-.1.161.182.182,0,0,1-.166.109.81.81,0,0,0-.114,0c-.083.005-.109.018-.161,0s-.091-.039-.07-.2-.64-.551-.64-.551l-1.075-.383h0Z" transform="translate(-892.44 -541.98)" fill="#cca849" fill-rule="evenodd"/>
      <path id="Path_1206" data-name="Path 1206" d="M838.091,706.875s.236.313,1.2.313a2.435,2.435,0,0,0,.717-.07,1.956,1.956,0,0,0,.883-.639c.352-.417.274-.588.274-.588l-.2-.031-.666.091-1.969.839-.239.085Z" transform="translate(-823.787 -693.813)" fill="#585136" fill-rule="evenodd"/>
      <path id="Path_1207" data-name="Path 1207" d="M832.149,671.6s-.839.187-.839-.344a1.846,1.846,0,0,1,.647-1.157,2.432,2.432,0,0,1,.456-.2h.774l.147.391-.065.844-1.121.471Z" transform="translate(-817.122 -658.457)" fill="#252211" fill-rule="evenodd"/>
      <path id="Path_1208" data-name="Path 1208" d="M856.438,676.124s-.16-.148-.525.051a1.314,1.314,0,0,0-.678.992c-.018.334.274.583.73.6a2.323,2.323,0,0,0,.647-.051c-.026-.031-.161-.2-.161-.2l-.013-1.388h0Z" transform="translate(-840.638 -664.533)" fill="#c3b378" fill-rule="evenodd"/>
      <path id="Path_1209" data-name="Path 1209" d="M865.222,683.553s-.039-.031-.154.031a2.511,2.511,0,0,0-.344.282,1.4,1.4,0,0,0-.154.127c-.161.192-.3.505-.217.66s.334.334.986.212l-.119-1.313h0Z" transform="translate(-849.579 -671.879)" fill="#e6d89c" fill-rule="evenodd"/>
      <path id="Path_1210" data-name="Path 1210" d="M869.383,659.736a.825.825,0,0,0-.1.417.687.687,0,0,0,.691.709c.417.026.7-.6,1-.844a.726.726,0,0,1,.37-.192,3.435,3.435,0,0,0-.865-.588,1.274,1.274,0,0,0-1.7.135c.179-.013.756-.161.756-.161l.282.091-.435.432h0Z" transform="translate(-853.953 -647.741)" fill="#252211" fill-rule="evenodd"/>
      <path id="Path_1211" data-name="Path 1211" d="M943.8,694.51c-.018-.039-.031-.091.044-.1s.109-.005.135.051.051.1.013.127a.179.179,0,0,1-.192-.075Zm-.122-.365s-.026.018-.013-.018.039-.122.122-.1.065.109.051.135a.134.134,0,0,1-.135.051.043.043,0,0,1-.026-.065Z" transform="translate(-927.552 -682.176)" fill="#6f674d" fill-rule="evenodd"/>
      <path id="Path_1212" data-name="Path 1212" d="M534,662.836a.8.8,0,0,0,.443.148,1.2,1.2,0,0,0,.678-.4c.083-.091.154-.186.23-.261a1.369,1.369,0,0,0,.14-.14c.044-.051.091-.147.114-.179a2.373,2.373,0,0,1-.225.174,2.666,2.666,0,0,1-.334.173c-.07.026-.795.41-.795.41l-.251.08Z" transform="translate(-524.886 -650.702)" fill="#ac924c" fill-rule="evenodd"/>
      <path id="Path_1213" data-name="Path 1213" d="M552.34,586.378a1.044,1.044,0,0,1,.334-.127,6.23,6.23,0,0,1,.639-.091l.352.154.14.531-.256.552-.326.2-.37-.6-.512-.627h0Z" transform="translate(-542.913 -576.156)" fill="#9f8e57" fill-rule="evenodd"/>
      <path id="Path_1214" data-name="Path 1214" d="M518.322,531.86l-.122.091a.791.791,0,0,0,.057-.23,2.133,2.133,0,0,1,.357-.839,2.623,2.623,0,0,1,.192-.23.13.13,0,0,0-.1.026,1.24,1.24,0,0,1,.357-.365c.166-.1.23-.135.4-.051s.217.127.344.122a.389.389,0,0,0,.236-.14s.026.083-.07.274a3.861,3.861,0,0,1-.474.583l-.787.538-.391.222h0Z" transform="translate(-509.356 -521.165)" fill="#eac970" fill-rule="evenodd"/>
      <path id="Path_1215" data-name="Path 1215" d="M559.421,532.648s.57.078.743-.083c.005.018.026.018.026.031a.045.045,0,0,1-.013.026.405.405,0,0,1,.057-.005.337.337,0,0,0,.07.013.406.406,0,0,0,.057-.005.1.1,0,0,1-.039.065c.026,0,.051.005.051.026s.005.083-.026.1a.118.118,0,0,1-.078-.005.32.32,0,0,0,.039.14.292.292,0,0,0,.307.173s.077.186-.249.6c-.044.057-.091.135-.147.2a.754.754,0,0,0-.051.153,1.3,1.3,0,0,0,.709-.7,3.657,3.657,0,0,0,.161-1.413.728.728,0,0,0-.057-.282.245.245,0,0,0-.383-.044,4.679,4.679,0,0,1-.634.66,2.16,2.16,0,0,1-.544.352h0Z" transform="translate(-549.873 -522.491)" fill="#d7bc6b" fill-rule="evenodd"/>
      <path id="Path_1216" data-name="Path 1216" d="M508.95,634.134a.479.479,0,0,0-.166.307,1,1,0,0,0,.114.647.653.653,0,0,0,.5.37.548.548,0,0,0,.212-.044,1.346,1.346,0,0,0,.287-.179c.127-.1.23-.179.217-.186-.031-.013-.782-.634-.782-.634l-.282-.315-.1.034Z" transform="translate(-500.086 -623.278)" fill="#585136" fill-rule="evenodd"/>
      <path id="Path_1217" data-name="Path 1217" d="M544.447,653.663a.657.657,0,0,0,.243-.07c.091-.057-.531-.673-.531-.673l.044.666Z" transform="translate(-534.873 -641.777)" fill="#453a25" fill-rule="evenodd"/>
      <path id="Path_1218" data-name="Path 1218" d="M517.68,613.347a.9.9,0,0,0-.078.187,3.263,3.263,0,0,0,.057.652.473.473,0,0,0,.417.339.591.591,0,0,0,.321-.1c0-.026-.192-.051-.243-.148a.871.871,0,0,1-.051-.307c-.005-.083-.005-.173.026-.2a.665.665,0,0,0,.083-.3l.248-.462h-.327l-.391.243Z" transform="translate(-508.766 -602.538)" fill="#84754b" fill-rule="evenodd"/>
      <path id="Path_1219" data-name="Path 1219" d="M516.69,596.78a1.419,1.419,0,0,1,.487-.417.5.5,0,0,1,.334-.031l-.135.344-.192.212.013.109a.663.663,0,0,0,.16.487.5.5,0,0,0,.417.192.543.543,0,0,0,.443-.357,1,1,0,0,0-.018-.961.782.782,0,0,0-.66-.358.924.924,0,0,0-.849.779h0Z" transform="translate(-507.872 -585.828)" fill="#252211" fill-rule="evenodd"/>
      <path id="Path_1220" data-name="Path 1220" d="M899.5,675.317c-.1-.044-.005-.313.091-.4a.675.675,0,0,1,.43-.192c.077-.005.153.044.14.1a.769.769,0,0,1-.274.326C899.721,675.283,899.612,675.366,899.5,675.317Z" transform="translate(-884.112 -663.213)" fill="#f7f7e7" fill-rule="evenodd"/>
      <path id="Path_1221" data-name="Path 1221" d="M588.906,623.161a.185.185,0,0,1,.179.127c.018.083-.044.248-.179.248-.109,0-.166-.135-.166-.173a.2.2,0,0,1,.026-.091A.148.148,0,0,1,588.906,623.161Z" transform="translate(-578.692 -612.526)" fill="#f8f6de" fill-rule="evenodd"/>
      <path id="Path_1222" data-name="Path 1222" d="M520.62,626.67a.6.6,0,0,0-.261.256.679.679,0,0,0-.051.41,1,1,0,0,0,.122.282.2.2,0,0,0,.148.091.262.262,0,0,0,.135-.192,1.365,1.365,0,0,1,.091-.526c.075-.16-.181-.321-.181-.321h0Z" transform="translate(-511.416 -615.975)" fill="#d4c38b" fill-rule="evenodd"/>
      <path id="Path_1223" data-name="Path 1223" d="M536.665,614.27c-.031.018-.083.044-.07.078s.122.051.161.127a.271.271,0,0,1,.031.2.316.316,0,0,0,.091-.065c.057-.065.127-.153.186-.153.039,0,.078.018.114.018.057,0,.114-.018.122-.078.013-.078-.109-.148-.179-.135a.17.17,0,0,0-.026-.179c-.057-.052-.235.039-.274.065s-.155.122-.155.122h0Z" transform="translate(-527.435 -603.588)" fill="#e2d59d" fill-rule="evenodd"/>
      <path id="Path_1224" data-name="Path 1224" d="M684.343,938.113l.383-.113.109.078s.077.166.2.186c-.039.083-.14.154-.135.212a.179.179,0,0,0,.057.1.891.891,0,0,0,.334,1.143c-.161.065-.365.154-.474.2a.839.839,0,0,1,.313.114c.07.063.07.083.135.122s.1.091.091.114c-.044-.026-.192-.1-.217-.031s-.64.044-.64.044l-1.036.2a.187.187,0,0,0-.07-.2c-.127-.114-.282.005-.448-.122-.217-.166-.225-.357-.3-.43a1.369,1.369,0,0,1,.551-.154.228.228,0,0,1-.031-.173c.031-.091.16-.148.122-.256.057-.013.083-.013.225-.192s.217-.217.321-.23a.472.472,0,0,0,.357-.179c.134-.127.091-.235.091-.235s.088-.029.057-.207h0Z" transform="translate(-670.999 -921.991)" fill="#cbac5a" fill-rule="evenodd"/>
      <path id="Path_1225" data-name="Path 1225" d="M715.086,940.584c.005-.026.026-.039.166-.026s1.025-.083,1.266-.1a7.934,7.934,0,0,1,1.517.083c.417.088.839.192,1.043.243s.269.077.261.1a.075.075,0,0,1-.078.044c-.026-.005-.7-.212-.914-.256a8.271,8.271,0,0,0-1.331-.154,6.975,6.975,0,0,0-.831.031,6.665,6.665,0,0,1-.986.07c-.154-.018-.122-.018-.114-.044h0Z" transform="translate(-702.873 -924.405)" fill="#d6bc6f" fill-rule="evenodd"/>
      <path id="Path_1226" data-name="Path 1226" d="M454.778,1064.374a2.107,2.107,0,0,1,.722.64.278.278,0,0,1-.083.391s.3,0,.261.166a2.5,2.5,0,0,1-.852.531,1.377,1.377,0,0,1-.492.166c-.161.026-.6-.051-.691.078a.253.253,0,0,0-.026.282,1.464,1.464,0,0,0,.236.044s-.044.122-.479.135-.544.044-.57.091.083.018.282.051.479.051.479.051a.883.883,0,0,1-.326.14,5.422,5.422,0,0,0-.818.212.75.75,0,0,0,.2.114,1.3,1.3,0,0,0-.287.1c.039.026.091.057.091.057a1.789,1.789,0,0,1-.344.326,2.814,2.814,0,0,1-1.108.339c-.627-.166-.7-.852-.857-.9-.23-.078-.339.077-.544-.031a1.279,1.279,0,0,1,.236-.147c-.1-.051-.639-.391-.639-.391a3.958,3.958,0,0,0-.186-.357c-.1-.179-.256-.417-.37-.627a5.1,5.1,0,0,0-.487-.935c.039-.051.173-.044.173-.044l1.888.621,3.347.1.87-1.243.37.044Z" transform="translate(-440.482 -1046.166)" fill="#dfc677" fill-rule="evenodd"/>
      <path id="Path_1227" data-name="Path 1227" d="M547.18,1121.136a.293.293,0,0,0,.07.057,1.018,1.018,0,0,1,.225.173c.026-.039.091-.109.2,0s.256.031.344.057.1.044.1.044a.647.647,0,0,1,.166-.091c.07-.026.153-.044.243-.07a1.365,1.365,0,0,1,.236-.044c.057.039.261.256,1.082-.065.774-.3.953-.334,1.082-.288.013-.031.026-.091.225-.083a1.541,1.541,0,0,0-.166-.365l-.914-.313h-.5l-1.5.274-.831.474-.065.239Z" transform="translate(-537.841 -1101.033)" fill="#c4a859" fill-rule="evenodd"/>
      <path id="Path_1228" data-name="Path 1228" d="M517.9,1077.381a.485.485,0,0,0,.225.287,1.3,1.3,0,0,1,.269.235s.039-.051.07-.1.057-.122.109-.14c.1-.044.339.039.391.026s.031-.1.078-.1c.109-.005.179.07.217.07s.134-.005.147-.026.018-.236.166-.339a.443.443,0,0,1,.41-.039c0,.039.005.135.109.14a.526.526,0,0,1,.2.018c.091.031.2-.005.249.147.044-.013.148-.026.122-.173a.752.752,0,0,0,.2-.217c.026-.039.07-.083.1-.14a.422.422,0,0,1,.344.109c-.044.031-.07.051-.083.083a.93.93,0,0,1,.1.122c.039.051.065.114.114.127a4.319,4.319,0,0,0,.487,0,.98.98,0,0,1,.422.127c.026-.013.026-.018.091-.005s.114.018.044-.065c.039.018.083.057.122.018a.254.254,0,0,1,.179-.109c.109-.013.148.005.192-.109.057-.14-.14-.14-.14-.14s.091-.083.192-.192a.873.873,0,0,0,.3-.443.312.312,0,0,0-.269-.378l-1.582.487-1.934-.1-1.649.821h0Z" transform="translate(-509.061 -1057.803)" fill="#927d49" fill-rule="evenodd"/>
      <path id="Path_1229" data-name="Path 1229" d="M412.814,849.409a.555.555,0,0,0-.083.217c-.032.153-.018.135-.044.243a4.54,4.54,0,0,0-.225,1.556c.119.365.326.5.456.795a1.147,1.147,0,0,1,.065.161c.044.191.005.339.057.531a.587.587,0,0,0,.135.217c.154.16.4.313.512.422.153.161.37.487.647.518a.933.933,0,0,0,.531-.147,4.43,4.43,0,0,1,.41-.307,1.527,1.527,0,0,1,.344-.1,1.559,1.559,0,0,1,.552-.026,5.312,5.312,0,0,0,.87.174,2.369,2.369,0,0,0,.564-.078c.37-.109.818-.3,1.113-.378.173-.051.313-.065.456-.1a.982.982,0,0,0,.564-.282c-.078-.091-.173-.23-.691-.225a9.142,9.142,0,0,0-1.6.391,1.346,1.346,0,0,1-.852-.039c-.366-.136-.378-.226-.378-.226a1.638,1.638,0,0,1-.544-.953,1.705,1.705,0,0,1,.417-1.657.274.274,0,0,0,.083-.23,1.043,1.043,0,0,0,.2-.717c-.083-.344-.614-.274-.614-.274l-2.944.515h0Z" transform="translate(-405.397 -834.4)" fill="#6e6342" fill-rule="evenodd"/>
      <path id="Path_1230" data-name="Path 1230" d="M458.751,946.91a.268.268,0,0,0-.031.14c.005.07.026.16.236.365a.447.447,0,0,1,.14.378.654.654,0,0,0,.334-.1c.192-.091.256.07.256.07a.542.542,0,0,1,.179-.057.391.391,0,0,0,.16-.051,2.31,2.31,0,0,0,.422.339c.179.1.282.161.37.1a.245.245,0,0,0,.077-.225.672.672,0,0,0-.077-.135c-.057-.083-.148-.179-.154-.256-.013-.179.135-.391.1-.443s-.147-.065-.435.039a6.477,6.477,0,0,1-1.582-.163h0Z" transform="translate(-450.89 -930.749)" fill="#39331f" fill-rule="evenodd"/>
      <path id="Path_1231" data-name="Path 1231" d="M494.152,967.593s-.147-.14-.1-.818a.842.842,0,0,1,.186.018A1.469,1.469,0,0,1,494.152,967.593Z" transform="translate(-485.614 -950.275)" fill="#292311" fill-rule="evenodd"/>
      <path id="Path_1232" data-name="Path 1232" d="M432.23,810.253a.4.4,0,0,0,.057-.051,1.285,1.285,0,0,0-.1,1.082,1.435,1.435,0,0,0,1.266,1.069,1.451,1.451,0,0,0,1.261-.7c.14-.173.3-.391.443-.538.212-.231.378-.3.378-.518,0-.456-.466-.66-1.152-.865a2.617,2.617,0,0,0-1.626-.039.889.889,0,0,0-.531.564h0Z" transform="translate(-424.742 -795.763)" fill="#252211" fill-rule="evenodd"/>
      <path id="Path_1233" data-name="Path 1233" d="M567.78,1013.719l.051-.026s.013-.2.1-.2a.161.161,0,0,1,.114.161.1.1,0,0,1-.109.1.254.254,0,0,1-.153-.031Z" transform="translate(-558.09 -996.197)" fill="#3f3824" fill-rule="evenodd"/>
      <path id="Path_1234" data-name="Path 1234" d="M554.31,975.589s.051-.018.114.044a.928.928,0,0,1,.344.018.262.262,0,0,1,.091.083.9.9,0,0,1-.4,0C554.31,975.685,554.31,975.589,554.31,975.589Z" transform="translate(-544.85 -958.936)" fill="#2d2815" fill-rule="evenodd"/>
      <path id="Path_1235" data-name="Path 1235" d="M596.338,968.151a.64.64,0,0,0-.287-.14c-.026-.005-.031.013-.051.013s-.018-.044-.018-.044l-.084.044s-.013.018.031.051.1.057.122.109a.451.451,0,0,0,.026.078.277.277,0,0,0,.14-.026c.044-.026.127-.068.122-.085h0Z" transform="translate(-585.726 -951.46)" fill="#82764f" fill-rule="evenodd"/>
      <path id="Path_1236" data-name="Path 1236" d="M545.21,998.026a.218.218,0,0,1,.2-.186.2.2,0,0,1,.212.16l-.1.1s-.078-.111-.307-.078Z" transform="translate(-535.905 -980.81)" fill="#2d2816" fill-rule="evenodd"/>
      <path id="Path_1237" data-name="Path 1237" d="M591.739,956.928a.541.541,0,0,1-.308.135.122.122,0,0,1,0-.16c.057-.083.122-.109.186-.083A.152.152,0,0,1,591.739,956.928Z" transform="translate(-581.308 -940.481)" fill="#574f35" fill-rule="evenodd"/>
      <path id="Path_1238" data-name="Path 1238" d="M631.574,952.838c.005-.026-.013-.031,0-.044s.083-.039.1-.026,0,.026,0,.051a.123.123,0,0,1-.013.07.1.1,0,0,1-.1.031c-.026-.008-.031-.044-.031-.051S631.574,952.851,631.574,952.838Zm.442-.28c0-.013.044-.039.07-.039s.039.031.044.039.013-.005.026.018.031.065.018.091a.094.094,0,0,1-.078.039A.69.69,0,0,1,632.016,952.559Z" transform="translate(-620.752 -936.264)" fill="#82764f" fill-rule="evenodd"/>
      <path id="Path_1239" data-name="Path 1239" d="M607.86,974.66a.361.361,0,0,1,.135.078c-.026.018-.065.039-.065.039a.194.194,0,0,0-.07-.117Z" transform="translate(-597.486 -958.026)" fill="#6e6342" fill-rule="evenodd"/>
      <path id="Path_1240" data-name="Path 1240" d="M600.312,896.816c-.013-.013.039-.044.07-.039s.044.026.078.031.039-.013.051-.026.057-.005.065,0l.013.018a.072.072,0,0,1,.026-.051.082.082,0,0,1,.07-.013.383.383,0,0,1,.026.1c-.005.013-.083.031-.1.018a.915.915,0,0,0,.078.109c.008.013-.057.044-.083.039a1.057,1.057,0,0,1-.3-.181Zm.339-.43a.06.06,0,0,0-.026-.031c-.018-.005-.078,0-.078.031a.961.961,0,0,0,.109.3c.065.091.109.166.153.186a.06.06,0,0,0,.078-.026,1.564,1.564,0,0,0,.013-.334,3.078,3.078,0,0,0-.026-.456.069.069,0,0,0-.083.013,2.408,2.408,0,0,0-.14.321h0Z" transform="translate(-590.065 -880.751)" fill="#585136" fill-rule="evenodd"/>
      <path id="Path_1241" data-name="Path 1241" d="M592.033,991.955a.21.21,0,0,0-.179-.018c-.083.039-.078.192-.078.192a.123.123,0,0,0,.114-.013.348.348,0,0,0,.142-.16Z" transform="translate(-581.677 -974.995)" fill="#574f35" fill-rule="evenodd"/>
      <path id="Path_1242" data-name="Path 1242" d="M613.861,940.523c-.005-.051-.051-.051-.051-.078a.058.058,0,0,1,.057-.044c.026,0,.051.031.083.051s.078.051.083.091-.051.147-.114.147-.044-.117-.057-.168Zm.5-.07s-.1.031-.1,0,.031-.039.065-.039a.1.1,0,0,1,.065-.031.056.056,0,0,1,.039.013s.07-.031.091-.013.005.018.018.039a.182.182,0,0,1,.031.078c0,.021-.078.065-.14.057S614.374,940.466,614.361,940.453Zm.6-.117s.031.018.005.039a.422.422,0,0,1-.187.057c-.078,0-.147.013-.147-.013s.065-.078.1-.091a.082.082,0,0,1,.065-.031c.031,0,.153-.013.186-.018s.057.013.039.039S614.964,940.336,614.964,940.336Zm.179-.8s-.039.083-.083.083-.044-.018-.044-.031.044-.065.039-.078-.044,0-.039-.031.044-.057.083-.051a.171.171,0,0,1,.1-.039c.044,0,.083.013.083.039s-.051.083-.07.1-.047.034-.072.013Zm-.59,1.53s-.051.005-.051.031.013.013.031.005a.141.141,0,0,0,.031-.005c.005.005.005.031.044.031a.246.246,0,0,0,.091-.031c.031-.013.057-.026.057-.051a.077.077,0,0,0-.078-.065.1.1,0,0,0-.057.013s-.013-.026-.057,0-.039.026-.026.039.016.034.016.034Zm-.292.269c0-.013.065-.039.083-.031a.33.33,0,0,1,.07.114c0,.013-.065.044-.091.044a.12.12,0,0,1-.07-.051c0-.005.031-.013.031-.018s-.023-.044-.023-.057Zm-.2-.378c.013-.005.013-.018.031-.031a.045.045,0,0,1,.039-.005.063.063,0,0,1,.044-.031c.031-.005.057,0,.051.013,0,.039.026.065.026.1s-.018.07-.083.1a.458.458,0,0,1-.166.013.085.085,0,0,1-.013-.083.214.214,0,0,1,.07-.067h0Z" transform="translate(-603.334 -923.358)" fill="#82764f" fill-rule="evenodd"/>
      <path id="Path_1243" data-name="Path 1243" d="M630.164,1032.31s-.044.026-.044.039a.115.115,0,0,0-.005.039c0,.008.057-.005.065-.013S630.164,1032.323,630.164,1032.31Z" transform="translate(-619.361 -1014.692)" fill="#6e6342" fill-rule="evenodd"/>
      <path id="Path_1244" data-name="Path 1244" d="M603.858,1024.4a.543.543,0,0,1,.1.013c.026.013.044.039.018.07s-.051.078-.109.07-.127-.039-.127-.065a.124.124,0,0,1,.031-.091c.026-.021.039-.008.083,0h0Z" transform="translate(-593.44 -1006.904)" fill="#585136" fill-rule="evenodd"/>
      <path id="Path_1245" data-name="Path 1245" d="M587.708,1026.7a.73.73,0,0,0-.1.1c-.026.031-.153.191-.191.225a.494.494,0,0,1,.044-.065.265.265,0,0,0-.109.14c-.031.1.174.148.308.187s.187.051.187.051a1.446,1.446,0,0,1-.127-.236c-.051-.122-.078-.135-.044-.192s.065-.1.065-.14C587.721,1026.726,587.708,1026.7,587.708,1026.7Z" transform="translate(-577.321 -1009.178)" fill="#574f35" fill-rule="evenodd"/>
      <path id="Path_1246" data-name="Path 1246" d="M435.66,1031.193a.154.154,0,0,0,.057,0,2.638,2.638,0,0,1,.865-.127,4.633,4.633,0,0,1,.935.154c.531.14,1.191.417,1.618.575.114.044.225.122.307.153a1.96,1.96,0,0,0,.531.161,2.076,2.076,0,0,0,.7-.1c.3-.065.8-.1,1.243-.161a2.549,2.549,0,0,0,.422-.1,2.222,2.222,0,0,1-1.2.479,3.744,3.744,0,0,1-1.03.013,3.142,3.142,0,0,1-.582-.1c-.153-.044-.466-.161-.852-.256-.269-.07-.57-.122-.914-.186a10.811,10.811,0,0,1-2.1-.507Z" transform="translate(-428.225 -1013.466)" fill="#252211" fill-rule="evenodd"/>
      <line id="Line_39" data-name="Line 39" x1="2.157" y1="2.014" transform="translate(4.839 12.43)" fill="none"/>
      <path id="Path_1247" data-name="Path 1247" d="M230.877,944.94c-.2.173-.422.339-.634.5l-.639.491c-.217.16-.43.326-.647.487s-.435.313-.666.461c.2-.173.422-.334.639-.492s.443-.313.653-.473l.639-.492c.22-.16.432-.326.655-.481Zm-1.131,1.812s.23-.192.518-.461a11.08,11.08,0,0,1,.935-.839l-1.453,1.3Z" transform="translate(-224.394 -928.813)" fill="#cfb66c" fill-rule="evenodd"/>
      <path id="Path_1248" data-name="Path 1248" d="M313.56,975.965c.114-.114.236-.225.357-.334l.186-.16c.057-.051.122-.109.179-.166.114-.114.225-.236.339-.352a2.18,2.18,0,0,1,.179-.166.481.481,0,0,1,.1-.07.3.3,0,0,1,.109-.057c-.026.039-.057.057-.083.091s-.057.057-.083.083c-.057.057-.122.109-.179.161-.122.1-.249.2-.37.313s-.236.225-.357.334-.254.22-.381.324Zm1.548-1.036s-.844.826-1.018.961Z" transform="translate(-308.209 -958.026)" fill="#cfb66c" fill-rule="evenodd"/>
      <path id="Path_1249" data-name="Path 1249" d="M345.678,990.44a2.75,2.75,0,0,1-.244.248l-.256.243c-.083.083-.161.166-.248.248s-.173.154-.269.225l.248-.243c.083-.083.174-.153.262-.236l.248-.243C345.5,990.6,345.587,990.515,345.678,990.44Zm.039.448a5.385,5.385,0,0,1-.274.634c-.217.435-.544.979-.686,1.256Z" transform="translate(-338.778 -973.536)" fill="#cfb66c" fill-rule="evenodd"/>
      <path id="Path_1250" data-name="Path 1250" d="M351.378,1016.69a.727.727,0,0,1-.057.261,2.568,2.568,0,0,1-.1.243c-.039.078-.083.161-.127.236s-.1.153-.135.23l-.261.461c-.091.154-.179.308-.274.456a4.227,4.227,0,0,1,.236-.474c.091-.154.173-.307.256-.466a2.634,2.634,0,0,0,.109-.243c.039-.083.077-.161.109-.236s.07-.161.109-.235a1.522,1.522,0,0,1,.14-.233Z" transform="translate(-344.439 -999.338)" fill="#cfb66c" fill-rule="evenodd"/>
      <path id="Path_1251" data-name="Path 1251" d="M447.187,1141.08a1.281,1.281,0,0,0-.23.769C447.026,1141.624,447.114,1141.279,447.187,1141.08Zm.243.34s-.091.922-.166,1.375A5.55,5.55,0,0,0,447.43,1141.42Zm1.7,1.429a9.74,9.74,0,0,0-.391,1.439c.083-.322.243-.979.391-1.44Z" transform="translate(-439.327 -1121.605)" fill="#dec270" fill-rule="evenodd"/>
      <path id="Path_1252" data-name="Path 1252" d="M626.67,1137s.621,1.025,1.087,1.9A4.311,4.311,0,0,0,626.67,1137Z" transform="translate(-615.975 -1117.595)" fill="#cbaf59" fill-rule="evenodd"/>
      <path id="Path_1253" data-name="Path 1253" d="M724.52,1225.43a18.844,18.844,0,0,1,.922,1.861A2.845,2.845,0,0,0,724.52,1225.43Z" transform="translate(-712.155 -1204.516)" fill="#e3c677" fill-rule="evenodd"/>
      <path id="Path_1254" data-name="Path 1254" d="M874.78,989.3c.1-.065.308-.417.487-.5a1.224,1.224,0,0,0,.474-.287,1.141,1.141,0,0,1,.557-.448c.492-.212.154-.487.154-.487a1.592,1.592,0,0,1,.173-.147.491.491,0,0,0,.262-.417,1.814,1.814,0,0,0-.365-1.134c.274-.057.8-.1,1.126-.179a1.61,1.61,0,0,0,.551-.231.629.629,0,0,1,.135-.743,4.331,4.331,0,0,0,.852-1.012,2.486,2.486,0,0,0-1.561.2,1.186,1.186,0,0,1,.148.083,2.927,2.927,0,0,0-.795.339c-.37.313-.417.57-.818.761s-.805.14-1.139.3a3.008,3.008,0,0,0-.505.344c.026.031-.005.083.044.127-.031.044-.212.339-.4.339.018.07.173.122.173.122a.835.835,0,0,1-.4.1,2.941,2.941,0,0,0,.673.564c-.031.065-.161.161-.109.282s.2.287.795.422a5.215,5.215,0,0,1-1.126.018,1.864,1.864,0,0,0-.844-.018c.031.031.114.031.186.114-.078.005-.564-.057-.73.161a1.412,1.412,0,0,0-.236.844.22.22,0,0,0-.135.282c.044.161.274.212.422.313s.16.147.3.122.365-.179.492-.179a.331.331,0,0,1,.217.1s.344-.166.378-.135.005.23.039.261a2.478,2.478,0,0,0,.526-.272Z" transform="translate(-857.506 -966.872)" fill="#ecd592" fill-rule="evenodd"/>
      <path id="Path_1255" data-name="Path 1255" d="M472.271,421.673a8.145,8.145,0,0,0-5.618-4.953H455.24l.044,4.256h2.273v9.5H455.24v4.249h11.1c2.674,0,4.818-2.687,4.818-2.687,3.433-4.872,1.116-10.369,1.116-10.369Zm-5.875,7.505s-.87,1.256-1.817,1.256h-1.894l-.045-9.447h2.431s1.126.236,1.913,2.465A7.432,7.432,0,0,1,466.4,429.178Z" transform="translate(-447.471 -409.608)" fill="rgba(255,255,255,0.8)" fill-rule="evenodd"/>
    </g>
  </g>
</svg>
