<svg id="pic_fakeqrcode" xmlns="http://www.w3.org/2000/svg" width="160" height="160" viewBox="0 0 160 160">
  <path id="Icon_metro-qrcode" data-name="Icon metro-qrcode" d="M52.571,11.928h-40v40h40Zm10-10v60h-60v-60Zm-40,20h20v20h-20Zm130-10h-40v40h40Zm10-10v60h-60v-60h60Zm-40,20h20v20h-20Zm-70,90h-40v40h40Zm10-10v60h-60v-60Zm-40,20h20v20h-20Zm50-120h10v10h-10Zm10,10h10v10h-10Zm-10,10h10v10h-10Zm10,10h10v10h-10Zm-10,10h10v10h-10Zm10,10h10v10h-10Zm-10,10h10v10h-10Zm0,20h10v10h-10Zm10,10h10v10h-10Zm-10,10h10v10h-10Zm10,10h10v10h-10Zm-10,10h10v10h-10Zm10,10h10v10h-10Zm-10,10h10v10h-10Zm10,10h10v10h-10Zm70-70h10v10h-10Zm-140,0h10v10h-10Zm10-10h10v10h-10Zm-20,0h10v10h-10Zm40,0h10v10h-10Zm10,10h10v10h-10Zm10-10h10v10h-10Zm30,10h10v10h-10Zm10-10h10v10h-10Zm10,10h10v10h-10Zm10-10h10v10h-10Zm10,10h10v10h-10Zm10-10h10v10h-10Zm10,30h10v10h-10Zm-60,0h10v10h-10Zm10-10h10v10h-10Zm10,10h10v10h-10Zm20,0h10v10h-10Zm10-10h10v10h-10Zm10,30h10v10h-10Zm-60,0h10v10h-10Zm10-10h10v10h-10Zm20,0h10v10h-10Zm10,10h10v10h-10Zm10-10h10v10h-10Zm10,30h10v10h-10Zm-50-10h10v10h-10Zm10,10h10v10h-10Zm10-10h10v10h-10Zm10,10h10v10h-10Zm-30,10h10v10h-10Zm20,0h10v10h-10Zm20,0h10v10h-10Z" transform="translate(-2.57 -1.928)" fill="#fff"/>
  <rect id="Rectangle_2770" data-name="Rectangle 2770" width="160" height="160" transform="translate(0 0)" fill="#fff" opacity="0.002"/>
</svg>
