<svg id="pic_state_faild" xmlns="http://www.w3.org/2000/svg" width="140.001" height="140" viewBox="0 0 140.001 140">
  <g id="Group_441" data-name="Group 441" transform="translate(-130.747 -362.358)">
    <path id="Polygon_3" data-name="Polygon 3" d="M81.747,20.1a13.563,13.563,0,0,0-6.369,1.57,12.648,12.648,0,0,0-4.941,4.717L17.895,113.833a12.069,12.069,0,0,0-1.788,6.5,12.385,12.385,0,0,0,1.77,6.125,12.946,12.946,0,0,0,4.6,4.55,13.211,13.211,0,0,0,6.724,1.768H134.29a13.212,13.212,0,0,0,6.724-1.768,12.946,12.946,0,0,0,4.6-4.55,12.385,12.385,0,0,0,1.77-6.125,12.069,12.069,0,0,0-1.788-6.5L93.057,26.391a12.648,12.648,0,0,0-4.941-4.717,13.564,13.564,0,0,0-6.369-1.57m0-4.2a17.4,17.4,0,0,1,15.08,8.383l52.543,87.442c6.738,11.213-1.647,25.256-15.08,25.256H29.2c-13.433,0-21.818-14.043-15.08-25.256L66.668,24.282A17.4,17.4,0,0,1,81.748,15.9Z" transform="translate(119 356.459)" fill="#868bff"/>
    <path id="Line_23" data-name="Line 23" d="M.358,54.83A4.358,4.358,0,0,1-4,50.473V.358a4.358,4.358,0,0,1,8.716,0V50.473A4.358,4.358,0,0,1,.358,54.83Z" transform="translate(200.934 402.66)" fill="#868bff"/>
    <path id="Line_24" data-name="Line 24" d="M.358,5.76A4.358,4.358,0,0,1-4,1.4C-4-1-2.049-3.5.358-3.5S4.716-2.094,4.716.313V1.4A4.358,4.358,0,0,1,.358,5.76Z" transform="translate(200.934 474.608)" fill="#868bff"/>
  </g>
  <rect id="Rectangle_2761" data-name="Rectangle 2761" width="140" height="140" transform="translate(0.001)" fill="#868bff" opacity="0"/>
</svg>
