<svg xmlns="http://www.w3.org/2000/svg" width="246" height="97.596" viewBox="0 0 246 97.596">
  <g id="Group_308" data-name="Group 308" transform="translate(573.474 -300.001)">
    <path id="Path_421" data-name="Path 421" d="M0,37.19,3.779,5.842h6.449s2.444-.892,6.891,3.113S30.683,21.181,30.683,21.181l2-14.893H45.573L42.909,32.52s-.446,4.668-4.668,4.668-5.335,1.106-11.116-4.224S14.9,22.071,14.9,22.071L13.118,37.636S.446,37.636,0,37.19" transform="translate(-573.474 301.315)" fill="#b30017"/>
    <path id="Path_419" data-name="Path 419" d="M44.777,5.917h13.45L55.448,27.26s-.78,2.556,2.222,2.556h7.449a2.948,2.948,0,0,0,3.308-2.538,3.068,3.068,0,0,0,.025-.353C68.9,23.593,70.9,6.251,70.9,6.251H83.683L80.794,33.375s-.334,4.335-4.224,4.335H46.555s-5.781.554-5-4.113,3.227-27.68,3.227-27.68" transform="translate(-564.001 301.352)" fill="#b30017"/>
    <path id="Path_412" data-name="Path 412" d="M176.4,5.311l.04-2.292a2.784,2.784,0,0,1,2.553-3,2.817,2.817,0,0,1,.367,0h22.429S205.955-.4,205.7,2.933s-1.582,17.844-1.582,17.844-.334,3.5-2.92,3.5h-3.083l1.418-16.169s.081-2.836-3.675-2.836-19.218.041-19.467.041" transform="translate(-533.189 300)" fill="#b30017"/>
    <path id="Path_420" data-name="Path 420" d="M89.414,26.1c.022.176.134.7.353.7s.415-.526.475-.657l4.8-11.232c.431-1.009,1.443-2.457,5.216-2.457s4.43,1.448,4.611,2.457l2.044,11.232c.027.131.095.657.314.657s.459-.526.525-.7l5.153-13.382h8.16l-7.625,18.866c-1.021,2.589-2.415,4.651-6.713,4.651-4.256,0-5.275-1.71-5.552-3.378L99.349,22.724c-.093-.308-.088-.7-.264-.7s-.268.394-.437.7L94.333,32.858c-.688,1.668-2.126,3.378-6.381,3.378-4.3,0-5.187-2.061-5.572-4.651L79.387,12.72h8.161Z" transform="translate(-555.344 302.845)" fill="#fff"/>
    <path id="Path_413" data-name="Path 413" d="M131.089,12.671c4.826,0,7.521,3.071,6.928,7.9L136.725,31.1a5.064,5.064,0,0,1-5.421,4.826H116.915c-4.387,0-5.391-2.545-4.8-7.372.539-4.387,2.2-7.195,6.588-7.195h10.617l.054-.439c.189-1.535-.728-2.281-2.351-2.281H114.913l.733-5.967ZM122.555,26.8a1.92,1.92,0,0,0-1.839,1.754,1.373,1.373,0,0,0,1.332,1.668h4.431c1.316,0,1.808-.44,1.97-1.755l.2-1.667Z" transform="translate(-547.904 302.894)" fill="#fff"/>
    <path id="Path_414" data-name="Path 414" d="M138.124,6.6h8.6L142.951,37.31h-8.6Z" transform="translate(-542.79 301.507)" fill="#fff"/>
    <path id="Path_415" data-name="Path 415" d="M147.838,6.6h8.6L152.667,37.31h-8.6Z" transform="translate(-540.571 301.507)" fill="#fff"/>
    <path id="Path_416" data-name="Path 416" d="M162.08,35.973c-7.459,0-8.736-2.105-7.551-11.758,1.292-10.528,3.417-11.757,13.948-11.757,8.774,0,12.373.7,11.3,9.476-.323,2.632-1.25,5.178-4.32,5.178H162.773c-.269,2.194.829,2.9,3.9,2.9h11.275l-.733,5.966Zm7.723-14.3a1.422,1.422,0,0,0,1.581-1.448c.205-1.667-2.323-1.8-3.638-1.8-2.2,0-3.949.35-4.3,3.247Z" transform="translate(-538.271 302.846)" fill="#fff"/>
    <path id="Path_417" data-name="Path 417" d="M186.28,37.311c-4.828,0-8.505-2.194-7.805-7.9l1.131-9.213h-3.292l.754-6.143h3.292l.915-7.458h8.6l-.915,7.458h6.626l-.754,6.143H188.2l-.646,5.265c-.431,3.509.615,5.7,4.563,5.7h1.361l-.754,6.143Z" transform="translate(-533.207 301.508)" fill="#fff"/>
    <path id="Path_418" data-name="Path 418" d="M88.311,44.766h11.835l22.935,34.785h14.55L122.713,54.234h-1.974l-4.315,8.445L110.258,52.9l4.318-8.132h13.069l25.278,42.6H117.78l-21.7-33.138H93.735L79.552,79.551H96.935l4.194-6.793,5.3,6.072-4.812,8.543H63.893Z" transform="translate(-558.882 310.224)" fill="#fff"/>
  </g>
</svg>
