<svg id="coin_trx" xmlns="http://www.w3.org/2000/svg" width="32" height="32" viewBox="0 0 32 32">
  <g id="tron" transform="translate(-0.551 0.001)">
    <path id="Path_1128" data-name="Path 1128" d="M31.55,9.639c-1.5-1.385-3.575-3.5-5.265-5l-.1-.07a1.91,1.91,0,0,0-.555-.31h0C21.555,3.5,2.59-.045,2.22,0a.7.7,0,0,0-.29.11L1.835.185a1.115,1.115,0,0,0-.26.42L1.55.67v.41C3.685,7.024,12.115,26.5,13.775,31.069c.1.31.29.9.645.93h.08c.19,0,1-1.07,1-1.07S29.98,13.369,31.445,11.5a4.73,4.73,0,0,0,.5-.74A1.2,1.2,0,0,0,31.55,9.639ZM19.215,11.684l6.18-5.125L29.02,9.9Zm-2.4-.335L6.175,2.63,23.39,5.8Zm.96,2.285,10.89-1.755-12.45,15ZM4.73,3.5,15.925,13,14.3,26.889Z" transform="translate(0 0)" fill="#ff060a"/>
  </g>
  <rect id="Rectangle_2808" data-name="Rectangle 2808" width="32" height="32" fill="#fff" opacity="0"/>
</svg>
