<svg id="coin_xmr" xmlns="http://www.w3.org/2000/svg" width="31.996" height="32" viewBox="0 0 31.996 32">
  <path id="Path_1257" data-name="Path 1257" d="M404,387.748a16,16,0,1,1-16-16A16,16,0,0,1,404,387.748Z" transform="translate(-372 -371.75)" fill="#fff"/>
  <path id="_149931032" data-name=" 149931032" d="M388.2,371.75a16.015,16.015,0,0,0-15.184,21.05H377.8V379.342l10.4,10.4,10.4-10.4V392.8h4.787A16.013,16.013,0,0,0,388.2,371.752Z" transform="translate(-372.195 -371.75)" fill="#f26822"/>
  <path id="_149931160" data-name=" 149931160" d="M656.37,2236.008l-4.538-4.538v8.469H645.09a16,16,0,0,0,27.344,0h-6.745v-8.469l-4.538,4.538-2.39,2.39-2.391-2.39h0Z" transform="translate(-642.762 -2215.628)" fill="#4d4d4d"/>
</svg>
