<svg id="pic_state_logout" xmlns="http://www.w3.org/2000/svg" width="140" height="140" viewBox="0 0 140 140">
  <g id="logout-svgrepo-com" transform="translate(10 2.32)">
    <g id="Group_461" data-name="Group 461" transform="translate(0 10.68)">
      <g id="Group_460" data-name="Group 460">
        <path id="Path_1107" data-name="Path 1107" d="M70.822,99.4a2.612,2.612,0,0,0-3,2.582v18.26H5.217V15.9H67.822V34.079a2.671,2.671,0,0,0,2.217,2.661,2.612,2.612,0,0,0,3-2.582V13.289a2.616,2.616,0,0,0-2.609-2.609H2.609A2.616,2.616,0,0,0,0,13.289V122.848a2.616,2.616,0,0,0,2.609,2.609H70.431a2.616,2.616,0,0,0,2.609-2.609v-20.79A2.671,2.671,0,0,0,70.822,99.4Z" transform="translate(0 -10.68)" fill="#335a29"/>
        <path id="Path_1108" data-name="Path 1108" d="M207.913,155.052l-26.085-26.086a2.6,2.6,0,0,0-3.678,3.678l21.625,21.625H120.057a2.638,2.638,0,0,0-2.635,2.165A2.6,2.6,0,0,0,120,159.486h79.8l-21.651,21.625a2.6,2.6,0,1,0,3.626,3.73l.052-.052L207.913,158.7A2.566,2.566,0,0,0,207.913,155.052Z" transform="translate(-88.676 -99.489)" fill="#335a29"/>
      </g>
    </g>
  </g>
  <rect id="Rectangle_2764" data-name="Rectangle 2764" width="140" height="140" fill="#335a29" opacity="0"/>
</svg>
