<svg xmlns="http://www.w3.org/2000/svg" width="32" height="32.004" viewBox="0 0 32 32.004">
  <g id="Layer_x0020_1" transform="translate(0 -0.001)">
    <g id="_1421344023328" transform="translate(0 0.001)">
      <path id="Path_336" data-name="Path 336" d="M31.521,19.873A16,16,0,1,1,19.868.48,16,16,0,0,1,31.521,19.873h0Z" transform="translate(0 -0.001)" fill="#f7931a"/>
      <path id="Path_337" data-name="Path 337" d="M1010.74,720.9c.318-2.13-1.3-3.274-3.52-4.038l.719-2.885-1.756-.438-.7,2.809c-.462-.115-.936-.224-1.407-.331l.705-2.827-1.755-.438-.72,2.884c-.382-.087-.757-.173-1.121-.263l0-.009-2.422-.6-.467,1.875s1.3.3,1.275.317a.935.935,0,0,1,.818,1.021l-.819,3.286a1.436,1.436,0,0,1,.183.059l-.186-.046-1.148,4.6a.639.639,0,0,1-.8.417c.018.026-1.276-.318-1.276-.318l-.872,2.01,2.285.57c.425.107.842.218,1.252.323l-.727,2.918,1.754.438.72-2.887c.479.13.944.25,1.4.363l-.717,2.873,1.756.438.727-2.912c2.994.567,5.246.338,6.193-2.37.764-2.181-.038-3.438-1.613-4.258a2.8,2.8,0,0,0,2.242-2.578h0Zm-4.012,5.626c-.543,2.18-4.214,1-5.4.706l.964-3.865c1.19.3,5.007.885,4.44,3.159Zm.543-5.657c-.5,1.983-3.551.976-4.542.729l.874-3.506c.991.247,4.183.708,3.668,2.777Z" transform="translate(-987.684 -707.175)" fill="#fff"/>
    </g>
  </g>
</svg>
