<svg id="pic_btm" xmlns="http://www.w3.org/2000/svg" xmlns:xlink="http://www.w3.org/1999/xlink" width="284" height="320" viewBox="0 0 284 320">
  <defs>
    <clipPath id="clip-path">
      <rect id="Rectangle_2760" data-name="Rectangle 2760" width="60.444" height="301.617" fill="#343434"/>
    </clipPath>
    <clipPath id="clip-path-2">
      <path id="Path_1106" data-name="Path 1106" d="M205.16,189.118H266.3l13.727-76.6-55.468.082Z" transform="translate(-205.16 -112.52)" fill="#404040"/>
    </clipPath>
  </defs>
  <g id="Group_526" data-name="Group 526" transform="translate(3 4.013)">
    <path id="Path_1050" data-name="Path 1050" d="M128.991,219.5s8.283,67.649,9.31,78.468-38.091,68.495-38.091,68.495L83.72,346.895l25.161-46.978-8.476-46.8L111.577,210.9l15.858.187Z" transform="translate(-25.958 -78.467)" fill="#343434"/>
    <rect id="Rectangle_2755" data-name="Rectangle 2755" width="36.236" height="9.629" transform="translate(42.642 171.457)" fill="#ebebeb"/>
    <path id="Path_988" data-name="Path 988" d="M203.031,48.39l-34.851,130V350.516H324.82V49.131Z" transform="translate(-47.509 -37.543)" fill="#505050"/>
    <path id="Path_991" data-name="Path 991" d="M175.28,191.137,202.1,86.58l14.837,19.49-19.4,76.515Z" transform="translate(-49.045 -47.16)" fill="#3e3e3e"/>
    <path id="Path_992" data-name="Path 992" d="M211.29,86.58h73.866l-3.56,19.407-55.468.082Z" transform="translate(-58.509 -47.16)" fill="#464646"/>
    <path id="Path_993" data-name="Path 993" d="M205.16,189.118H266.3l13.727-76.6-55.468.082Z" transform="translate(-56.944 -53.693)" fill="#4b4b4b"/>
    <g id="Group_420" data-name="Group 420" transform="translate(216.866 11.356)">
      <g id="Group_419" data-name="Group 419">
        <g id="Group_418" data-name="Group 418" clip-path="url(#clip-path)">
          <path id="Path_996" data-name="Path 996" d="M297.33,350.687V173.139L319.75,49.07l38.024.232V350.687Z" transform="translate(-297.33 -49.07)" fill="#343434"/>
        </g>
      </g>
    </g>
    <path id="Path_997" data-name="Path 997" d="M218.9,73.876l3.344-12.7h67.78l-3.262,12.7Z" transform="translate(-60.45 -40.763)" fill="#3d843d"/>
    <path id="Path_999" data-name="Path 999" d="M227.956,146.93c-.224.786-4.156,15.8-4.156,15.8h9.206l4.082-15.8Z" transform="translate(-61.701 -62.358)" fill="#3e3e3e"/>
    <path id="Path_1000" data-name="Path 1000" d="M239.326,143.985H229.39l.566-1.945h9.936Z" transform="translate(-63.127 -61.126)" fill="#3e3e3e"/>
    <path id="Path_1002" data-name="Path 1002" d="M230.256,175.985H220.32l.559-1.945h9.936Z" transform="translate(-60.813 -69.185)" fill="#3e3e3e"/>
    <path id="Path_1004" data-name="Path 1004" d="M243.564,205.981H214.97l.894-4.841h28.6Z" transform="translate(-59.448 -76.01)" fill="#3e3e3e"/>
    <path id="Union_5" data-name="Union 5" d="M0,10.325,1.981,3.21H5.452L3.858,10.325ZM.984,3.21,4.469,0l2,3.21Z" transform="translate(165.637 87.325)" fill="#4e4e4e" stroke="rgba(0,0,0,0)" stroke-miterlimit="10" stroke-width="1"/>
    <path id="Path_1008" data-name="Path 1008" d="M248.743,125.5l-10.7,44H278.8l8.081-43.805Z" transform="translate(-65.334 -56.961)" fill="#333"/>
    <path id="Path_1009" data-name="Path 1009" d="M255.723,131.272l-8.283,34.865,34.628.06,6.465-35.067Z" transform="translate(-67.733 -58.379)" fill="#3d843d"/>
    <path id="Path_1012" data-name="Path 1012" d="M175.28,223.452h83.437V214.9H197.536Z" transform="translate(-49.32 -79.475)" fill="#464646"/>
    <path id="Path_1024" data-name="Path 1024" d="M163.674,72.376c-4.514.262-7.56-.576-11.746-2.738l-7.076,2.409,2.041-7.182c-2.547-3.067-3.218-6.315-3.463-10.609a19.173,19.173,0,1,1,20.245,18.121" transform="translate(-41.186 -33.892)" fill="#f7931a"/>
    <path id="Path_1033" data-name="Path 1033" d="M82.07,392.63l-19.82,18.2,22.427,24.884c2.234-2.3-4.618-19.49-4.618-19.49L92.438,404.2Z" transform="translate(-20.48 -124.233)" fill="#333"/>
    <path id="Path_1034" data-name="Path 1034" d="M77.605,412.515a1.366,1.366,0,0,0-1.788.352,1.321,1.321,0,0,0,.328,1.781,1.426,1.426,0,0,0,1.892-.382,1.365,1.365,0,0,0-.544-1.811" transform="translate(-23.888 -129.192)" fill="#fff"/>
    <path id="Path_1035" data-name="Path 1035" d="M62.25,416.315,64.3,414.4l20.654,24.757s.507,1.549-.387,2.125Z" transform="translate(-20.48 -129.715)" fill="#404040"/>
    <path id="Path_1036" data-name="Path 1036" d="M85.643,424.1c-.127.1-.745-.456-1.654-.7s-1.728-.1-1.78-.254.812-.614,1.929-.3,1.639,1.175,1.5,1.249" transform="translate(-25.572 -131.817)" fill="#fff"/>
    <path id="Path_1037" data-name="Path 1037" d="M87.4,429.16c-.089.135-.745-.2-1.654-.15s-1.534.426-1.639.3.454-.823,1.557-.86,1.847.569,1.735.711" transform="translate(-26.054 -133.252)" fill="#fff"/>
    <path id="Path_1038" data-name="Path 1038" d="M86.139,434.7c-.149-.1.209-.748,1.274-1.092.938-.3,1.721.037,1.661.18s-.745.112-1.49.367-1.326.658-1.445.546" transform="translate(-26.566 -134.522)" fill="#fff"/>
    <path id="Path_1039" data-name="Path 1039" d="M89.622,419.876c-.156.045-.492-.666-1.154-1.309s-1.363-.98-1.318-1.137.938-.038,1.713.748.909,1.668.76,1.7" transform="translate(-26.832 -130.463)" fill="#fff"/>
    <path id="Path_1040" data-name="Path 1040" d="M92.952,414.628c-.045.045-.559-.367-1.117-1.249a7.77,7.77,0,0,1-.745-1.668,7.341,7.341,0,0,1-.268-1.062,2.073,2.073,0,0,1-.045-.636.7.7,0,0,1,.588-.644.893.893,0,0,1,.745.284,2.133,2.133,0,0,1,.358.524,5.992,5.992,0,0,1,.432,1.018,5.709,5.709,0,0,1,.283,1.826,2.846,2.846,0,0,1-.343,1.653,10.74,10.74,0,0,1-.06-1.631,7,7,0,0,0-.372-1.683,6.629,6.629,0,0,0-.425-.913c-.171-.322-.372-.554-.551-.516s-.089,0-.112.157a1.592,1.592,0,0,0,.037.471,7.854,7.854,0,0,0,.216,1,9.241,9.241,0,0,0,.626,1.623,11.434,11.434,0,0,1,.752,1.452" transform="translate(-27.758 -128.447)" fill="#fff"/>
    <path id="Path_1041" data-name="Path 1041" d="M93.277,415.413c-.06,0,.156-.659.9-1.422a5.446,5.446,0,0,1,1.49-1.062,5.288,5.288,0,0,1,1.035-.367,1.4,1.4,0,0,1,1.348.225.75.75,0,0,1,.119.838,2.086,2.086,0,0,1-.343.539,3.8,3.8,0,0,1-2.592,1.392,2.227,2.227,0,0,1-1.654-.322,14.707,14.707,0,0,0,1.594-.075,3.721,3.721,0,0,0,2.235-1.339c.223-.277.35-.569.231-.643a.935.935,0,0,0-.8-.067,6.141,6.141,0,0,0-.953.3,6.261,6.261,0,0,0-1.49.883c-.715.591-1.05,1.122-1.125,1.122" transform="translate(-28.395 -129.231)" fill="#fff"/>
    <path id="Path_1042" data-name="Path 1042" d="M82.43,416.072l.253,26.979,33.413-.142c-.209-3.21-17.519-9.569-17.519-9.569l.544-17.29Z" transform="translate(-25.629 -130.131)" fill="#333"/>
    <path id="Path_1044" data-name="Path 1044" d="M82.755,451.238l-.045-2.888,32.14,1.1s1.49.651,1.318,1.706Z" transform="translate(-25.7 -138.265)" fill="#404040"/>
    <path id="Path_1049" data-name="Path 1049" d="M76.613,210.4s-2.13,7.527-2.376,8.065c-2.19,4.878-7.977,16.939-7.977,16.939s-4.4,15.712-3.419,23.1,7.568,58.028,7.568,58.028-1.3,40.132,4.335,57.991l1.043,4.736L94.623,375.9,98.8,276.553l11.493-65.682Z" transform="translate(-20.595 -78.342)" fill="#414141"/>
    <path id="Path_1052" data-name="Path 1052" d="M91.722,51.549a6.194,6.194,0,0,0-1.363-3.786,8.268,8.268,0,0,0-3.538-2.753,7.334,7.334,0,0,0-9.509,4.2,7.409,7.409,0,0,0-.1,5.08,9.475,9.475,0,0,0,7,5.619L88.4,56.711c1.743-1.182,3.277-3.023,3.322-5.162" transform="translate(-24.195 -36.564)" fill="#1c331d"/>
    <path id="Path_1053" data-name="Path 1053" d="M81.72,46.04a1.605,1.605,0,0,1,.492-.292,3.818,3.818,0,0,1,1.564-.269,4.9,4.9,0,0,1,2.235.636,5.762,5.762,0,0,1,2.048,2.043,8.674,8.674,0,0,1,1.095,5.05,6.746,6.746,0,0,1-.38,2.11c-.074,0,.052-.823.067-2.117a9.072,9.072,0,0,0-1.117-4.788,5.582,5.582,0,0,0-1.877-1.923,4.928,4.928,0,0,0-2.086-.681,6.374,6.374,0,0,0-2.041.232" transform="translate(-25.448 -36.809)" fill="#27481b"/>
    <path id="Path_1054" data-name="Path 1054" d="M78.435,57.118a3.006,3.006,0,0,1-.052-1.773,6.2,6.2,0,0,1,2.324-3.576,9.739,9.739,0,0,1,3.91-1.683,5.1,5.1,0,0,1,1.743-.18,10.685,10.685,0,0,1-1.676.479A11.036,11.036,0,0,0,80.96,52.12a6.4,6.4,0,0,0-2.294,3.292,14.137,14.137,0,0,0-.231,1.706" transform="translate(-24.568 -37.921)" fill="#27481b"/>
    <path id="Path_1055" data-name="Path 1055" d="M99.384,54.9c-4.141-.628-7.746,1.032-11.173,3.434a21.448,21.448,0,0,0-7.97,23,16.44,16.44,0,0,0,8.253,9.936c5.422,2.641,12.282,1.556,17.02-2.177A20.908,20.908,0,0,0,113.022,73.2a20.14,20.14,0,0,0-3.374-11.843A15.189,15.189,0,0,0,99.391,54.9" transform="translate(-24.862 -39.147)" fill="#1c331d"/>
    <path id="Path_1056" data-name="Path 1056" d="M90.611,69.291c.574-1.6.313-3.367.521-5.058.454-3.741,3.374-6.734,6.786-8.23,3.173-1.4,7.091-1.182,10.964,0a14.669,14.669,0,0,1,6.964,4.384A11.689,11.689,0,0,1,118.17,70.8L99.243,68.386a21.233,21.233,0,0,1-5.653,3.883,3.9,3.9,0,0,1-1.966.352,1.775,1.775,0,0,1-1.49-1.19,3.806,3.806,0,0,1,.477-2.14" transform="translate(-27.583 -39.216)" fill="#1c331d"/>
    <path id="Union_4" data-name="Union 4" d="M9.008,51.481,7.4,49.475a11.176,11.176,0,0,1-2.443-6.733l-.324-14.31c-1.76.012-4.745-.69-4.629-4.926.108-3.977,2.668-4.407,4.422-4.224L4.145,6.913A3.093,3.093,0,0,1,6.968,3.837L23.353.022c5.215-.449,8.573,6.06,8.8,11.41.282,5.865.32,13.032-.462,17.387-1.594,8.747-8.3,9.726-8.3,9.726s-.03,1.3-.126,4.489a25.876,25.876,0,0,1-.193,5.432,6.64,6.64,0,0,1-.142.808,3.585,3.585,0,0,1-.357.942,7.9,7.9,0,0,1-7.137,4.349A8.194,8.194,0,0,1,9.008,51.481Z" transform="translate(58.451 21.981)" fill="#8b7b74"/>
    <path id="Path_1058" data-name="Path 1058" d="M123.842,87.049a1.128,1.128,0,0,1-1.11,1.115,1.067,1.067,0,0,1-1.131-1c0-.013,0-.026,0-.04a1.127,1.127,0,0,1,1.1-1.115,1.082,1.082,0,0,1,1.139,1.023v.017" transform="translate(-35.624 -47.016)" fill="#151515"/>
    <path id="Path_1059" data-name="Path 1059" d="M124.1,82.984c-.142.142-.976-.509-2.182-.531s-2.108.569-2.235.419.082-.329.477-.606a3.117,3.117,0,0,1,1.788-.516,2.97,2.97,0,0,1,1.735.606c.365.322.492.628.417.628" transform="translate(-35.127 -45.943)" fill="#151515"/>
    <path id="Path_1060" data-name="Path 1060" d="M109.352,87.049a1.119,1.119,0,0,1-1.1,1.115,1.082,1.082,0,0,1-1.139-1.023v-.017a1.135,1.135,0,0,1,1.11-1.115,1.075,1.075,0,0,1,1.131,1.015v.025" transform="translate(-31.927 -47.016)" fill="#151515"/>
    <path id="Path_1061" data-name="Path 1061" d="M108.714,82.906c-.142.142-.976-.5-2.182-.524s-2.108.561-2.235.411.082-.329.477-.6a3,3,0,0,1,1.788-.516,2.912,2.912,0,0,1,1.735.6c.365.3.492.569.417.628" transform="translate(-31.199 -45.925)" fill="#151515"/>
    <path id="Path_1062" data-name="Path 1062" d="M115.205,92.145a8.225,8.225,0,0,1,1.966-.314c.305,0,.6-.082.655-.292a1.552,1.552,0,0,0-.186-.92c-.276-.748-.559-1.549-.864-2.379a41.491,41.491,0,0,1-1.922-6.21,40.4,40.4,0,0,1,2.421,6.045l.819,2.387a1.763,1.763,0,0,1,.134,1.22.745.745,0,0,1-.514.441,2.043,2.043,0,0,1-.521.067,7.438,7.438,0,0,1-1.989-.045" transform="translate(-33.899 -46.014)" fill="#725e54"/>
    <path id="Path_1063" data-name="Path 1063" d="M112.059,113.622a22.155,22.155,0,0,1-11.649-3.382s2.815,6.142,11.59,5.507Z" transform="translate(-30.217 -53.118)" fill="#625752"/>
    <path id="Path_1064" data-name="Path 1064" d="M110.459,96.58c.2,0,.171,1.309,1.274,2.244s2.5.838,2.51,1.025-.313.247-.909.254a3.293,3.293,0,0,1-2.093-.748,2.832,2.832,0,0,1-.983-1.9c-.037-.561.112-.89.2-.875" transform="translate(-32.729 -49.678)" fill="#725e54"/>
    <path id="Path_1065" data-name="Path 1065" d="M108.169,78.194c-.119.329-1.326.15-2.741.292s-2.577.509-2.763.209c-.074-.15.127-.449.6-.748a4.786,4.786,0,0,1,4.193-.374c.514.2.775.471.715.621" transform="translate(-30.788 -44.812)" fill="#151515"/>
    <path id="Path_1066" data-name="Path 1066" d="M123.9,75.9c-.216.269-1.043,0-2.048-.067s-1.847.15-2.033-.142c-.089-.142.052-.419.432-.673a2.826,2.826,0,0,1,1.668-.411,2.755,2.755,0,0,1,1.616.584c.35.292.462.576.365.711" transform="translate(-35.163 -44.144)" fill="#151515"/>
    <path id="Path_1067" data-name="Path 1067" d="M86.379,66.807c1.616-5.073,8.938-12.075,14.241-11.7l8.439,5.11a8.158,8.158,0,0,1-5.542,6.247c-1.49.456-3.292.576-4.179,1.87s-.387,3.232-1.229,4.586c-1.177,1.885-4.372,1.788-5.214,3.823-.387.89-.186,1.953-.588,2.836-.536,1.175-3.5,2.663-4.73,2.244s-1.222-2.484-1.624-3.584a5.9,5.9,0,0,1-.171-3.905c.507-2.461-.171-5.11.6-7.527" transform="translate(-26.42 -39.23)" fill="#1c331d"/>
    <path id="Path_1069" data-name="Path 1069" d="M89.3,96.335a1.868,1.868,0,0,1-.29.15,1.016,1.016,0,0,1-.745,0,2.574,2.574,0,0,1-1.125-2.349,3.529,3.529,0,0,1,.328-1.5,1.224,1.224,0,0,1,.8-.748.528.528,0,0,1,.6.307c.082.165.037.284.067.3s.134-.1.089-.344a.7.7,0,0,0-.223-.389.811.811,0,0,0-.574-.165,1.492,1.492,0,0,0-1.11.9,3.617,3.617,0,0,0-.4,1.661,2.689,2.689,0,0,0,1.445,2.626,1.1,1.1,0,0,0,.953-.127c.164-.172.194-.307.179-.322" transform="translate(-26.724 -48.423)" fill="#725e54"/>
    <path id="Path_1070" data-name="Path 1070" d="M114.74,59.528c.6,2.424,4.335,5.484,5.959,7.354,3.158,3.561,3.791,4.751,3.9,12.846,1.408-2.821,2.473-5.581,2.309-8.731a13.1,13.1,0,0,0-3.612-8.522,10.087,10.087,0,0,0-8.588-2.948" transform="translate(-33.866 -40.324)" fill="#1c331d"/>
    <path id="Path_1071" data-name="Path 1071" d="M79.76,77.189a10.7,10.7,0,0,1,1.318.292,13.506,13.506,0,0,0,3.59.479,6.2,6.2,0,0,0,2.406-.539,4.971,4.971,0,0,0,2.235-1.87,24.774,24.774,0,0,0,1.266-3.27,4.38,4.38,0,0,1,2.681-2.461c1.207-.322,2.391,0,3.389-.4a4.387,4.387,0,0,0,2-2.476,8.907,8.907,0,0,1,1.661-2.723,7,7,0,0,1,2.16-1.5,6.045,6.045,0,0,1,3.635-.479,4.52,4.52,0,0,1,.976.284,1.192,1.192,0,0,1,.32.157c0,.045-.462-.157-1.311-.269a6.166,6.166,0,0,0-3.516.6,6.771,6.771,0,0,0-2.041,1.5,8.661,8.661,0,0,0-1.564,2.641,9.348,9.348,0,0,1-.819,1.549,2.983,2.983,0,0,1-1.371,1.115c-1.14.419-2.331.112-3.419.419a3.991,3.991,0,0,0-2.473,2.245,22.472,22.472,0,0,1-1.318,3.307,5.222,5.222,0,0,1-2.369,1.968,6.475,6.475,0,0,1-2.518.516,12.673,12.673,0,0,1-3.635-.621c-.417-.127-.745-.239-.961-.322s-.328-.127-.32-.142" transform="translate(-24.948 -41.009)" fill="#27481b"/>
    <path id="Path_1072" data-name="Path 1072" d="M84.63,64.891a5.447,5.447,0,0,1,.745-1.646A13.133,13.133,0,0,1,91.967,57.7a5.2,5.2,0,0,1,1.743-.441A19.749,19.749,0,0,0,88.5,60.253a19.422,19.422,0,0,0-3.866,4.639" transform="translate(-26.189 -39.776)" fill="#27481b"/>
    <path id="Union_3" data-name="Union 3" d="M0,12.907,24.549,2.888,33.488,0l9.466,1.175s.261,1.363-1.489,1.713a13.89,13.89,0,0,1-2.568.155c.119.029.408.192.615,1.079a5.945,5.945,0,0,1-.334,2.791s.462,1.706-.336,2.319l-.79.614s-.051,2.589-.841,3.285-7.337,2.992-7.337,2.992L25.31,14.248.937,24.893ZM35.684,2.919l.031-.022.156.007-.186-.015S35.685,2.9,35.684,2.919Z" transform="translate(97.924 98.031)" fill="#8b7b74"/>
    <path id="Path_1074" data-name="Path 1074" d="M157.084,170.71l1.832,15.225L143.5,195.5l-1.378-19.886Z" transform="translate(-40.859 -68.347)" fill="#4e4e4e"/>
    <path id="Path_1075" data-name="Path 1075" d="M112.13,127.3c.521,1.04,12.238,17.447,13.444,25.109.812,5.155,2.13,22.871,2.756,34.476.082,1.5,1.378,3.09,1.125,4.28-.916,4.272-3.128,3.861-6,3.614l-32.028-.913L77.2,195.44l7.128-21.353s-6.152-28.071-7.128-28.939,4.089-23.926,4.089-23.926l5.78-.531s10.718,5.275,16.178,4.429a3.733,3.733,0,0,0,3.151-3.172Z" transform="translate(-24.262 -55.75)" fill="#646464"/>
    <path id="Path_1079" data-name="Path 1079" d="M185.83,176.338a4.4,4.4,0,0,1-.939-.613c-.566-.419-1.37-1.033-2.309-1.766h.186a1.4,1.4,0,0,0-.745.988,2.4,2.4,0,0,0,.313,1.422,5.761,5.761,0,0,0,.521.823l.477.6-.7-.3a2.812,2.812,0,0,0-2.525.18l-.179.112-.067-.2a2.668,2.668,0,0,0-1.49-1.623c-.506-.225-.834-.217-.834-.262a1.485,1.485,0,0,1,.909.082,2.763,2.763,0,0,1,1.706,1.706l-.246-.09a3.1,3.1,0,0,1,2.86-.262l-.223.307a5.005,5.005,0,0,1-.574-.89,2.723,2.723,0,0,1-.343-1.668,1.705,1.705,0,0,1,.983-1.227l.1-.052.082.067c.924.748,1.691,1.407,2.234,1.878a4.267,4.267,0,0,1,.8.793" transform="translate(-49.897 -69.074)" fill="#725e54"/>
    <path id="Path_1080" data-name="Path 1080" d="M184.192,172.721a2.082,2.082,0,0,1-.655-1.055,1.7,1.7,0,0,1,.127-1.414,2.449,2.449,0,0,1,1.43-1h.1l.082.075.179.165a25.2,25.2,0,0,1,3.166,3.112,25.552,25.552,0,0,1-3.426-2.828l-.179-.157.179.045a2.176,2.176,0,0,0-1.229.808,1.5,1.5,0,0,0-.164,1.16c.171.666.462,1.062.395,1.092" transform="translate(-51.402 -67.979)" fill="#725e54"/>
    <path id="Path_1081" data-name="Path 1081" d="M38.273,143.9c.641.748,47.357,34.85,47.357,34.85L62.3,224.867s-16.036-7.482-29.317-15.023S6.17,183.538,6.17,183.538Z" transform="translate(-6.17 -61.595)" fill="#343434"/>
    <path id="Path_1082" data-name="Path 1082" d="M72.217,121.826c-.492-.067-8.737-.943-13.705,10.16-2.637,5.9-10.711,24.308-12.3,28.782-1.058,2.993-4.35,14.814-1.274,19.789,2.808,4.541,5.907,5.334,12.409,3.92,6.763-1.5,22.867-11.133,22.867-11.133l-7.039-14.492-4.64,1.624,4.074-9.988c2.629-7.482,4.246-17.365,4.342-17.47s3.814-10.026-4.737-11.193" transform="translate(-15.736 -56.025)" fill="#646464"/>
    <path id="Path_1084" data-name="Path 1084" d="M119.675,156.716l4.469-7.571a2.734,2.734,0,0,1,3.583-1.062l11.068,6.217a2.8,2.8,0,0,1,1.065,4.354L125.8,180.807a2.727,2.727,0,0,1-3.65.92l-10.785-6.09a2.76,2.76,0,0,1-1.039-3.751c.018-.031.036-.064.056-.094Z" transform="translate(-32.656 -62.575)" fill="#f7931a"/>
    <path id="Path_1085" data-name="Path 1085" d="M80.35,121.473l1.594-.569a5.453,5.453,0,0,1,3.5-.1,5.027,5.027,0,0,1,2.235,1.451c4.305,4.878,4.365,18.876,4.469,22.243S93.7,167.231,93.7,167.231H88.022s.626-26.687.693-30.675c.216-12.794-8.365-15.083-8.365-15.083" transform="translate(-25.098 -55.717)" fill="#343434"/>
    <path id="Path_1087" data-name="Path 1087" d="M185.782,168.91a1.522,1.522,0,0,1-.41-1,2.751,2.751,0,0,1,.112-1.2.874.874,0,0,1,.223-.359.52.52,0,0,1,.507-.082,2.818,2.818,0,0,1,.655.419,8.578,8.578,0,0,1,2.518,2.589c-.089.075-1.169-1.107-2.749-2.244a3.284,3.284,0,0,0-.551-.374h-.141a.579.579,0,0,0-.127.194,3.012,3.012,0,0,0-.179,1.055c.022.606.194.98.142,1" transform="translate(-51.891 -67.22)" fill="#725e54"/>
    <path id="Path_1088" data-name="Path 1088" d="M183.551,168.542a.412.412,0,0,1-.365.112c-.261-.022-.581-.15-.745.187a9.312,9.312,0,0,1-1.721,2.753,8.481,8.481,0,0,1-2.622,1.953,3.221,3.221,0,0,1-1.289.412,13.912,13.912,0,0,0,3.627-2.626,11.989,11.989,0,0,0,1.773-2.641.625.625,0,0,1,.581-.292,2.516,2.516,0,0,1,.424.1c.209.06.32.008.335.037" transform="translate(-49.711 -67.764)" fill="#725e54"/>
    <path id="Path_1092" data-name="Path 1092" d="M83.55,169.447s12.282-5.985,15.843-6.576,14.979-.561,14.979-.561,6.54,2.6,7.538,4.841,0,3.075,0,3.075a3.411,3.411,0,0,1-.171,2.244c-.283.561-1.549.786-1.549.786l.127.546s0,.456-1.058.868a1.775,1.775,0,0,1-1.855-.322l-3.382-1.5-4.179-.5,3.545,1.272s3.084,1.13,3.463,2.035a.9.9,0,0,1-1.095,1.22c-.991-.165-14.07-2.5-14.07-2.5l-2.153-.6s-10.286,7.1-10.279,7.138-5.705-11.469-5.705-11.469" transform="translate(-25.915 -66.231)" fill="#8b7b74"/>
    <path id="Path_1093" data-name="Path 1093" d="M118.88,170.927a3.93,3.93,0,0,1,1.721-.3,9.9,9.9,0,0,1,4.126.905,10.765,10.765,0,0,1,3.463,2.417,4.478,4.478,0,0,1,1.013,1.429c-.052,0-.439-.509-1.207-1.235a12.49,12.49,0,0,0-3.426-2.244,11.442,11.442,0,0,0-3.977-.98c-1.05-.067-1.7.075-1.713.007" transform="translate(-34.929 -68.325)" fill="#725e54"/>
    <path id="Path_1094" data-name="Path 1094" d="M131.425,171.343c-.045.045-.559-.412-1.49-1.018s-2.235-1.444-3.65-2.4a16.7,16.7,0,0,0-2-1.264,6.347,6.347,0,0,0-1.847-.419,9.479,9.479,0,0,0-1.8,0,3.939,3.939,0,0,1,1.81-.247,5.7,5.7,0,0,1,1.974.359,14.423,14.423,0,0,1,2.078,1.272c1.415.958,2.689,1.826,3.59,2.5a5.012,5.012,0,0,1,1.333,1.22" transform="translate(-35.379 -67.154)" fill="#725e54"/>
    <g id="Group_428" data-name="Group 428" transform="translate(165.637 23.392)">
      <path id="Path_1095" data-name="Path 1095" d="M0,6.824,1.788,1.457h1.1s.452-.153,1.067.533L5.836,4.083,6.72,1.534H8.928L7.517,6.024s-.247.8-.97.8S5.594,7.013,4.8,6.1,3.1,4.236,3.1,4.236L2.229,6.9S.06,6.9,0,6.824" transform="translate(0 -0.231)" fill="#fff"/>
      <path id="Path_1096" data-name="Path 1096" d="M12.111,1.482h2.3L13.161,5.136s-.227.438.288.438h1.275a.65.65,0,0,0,.659-.435.541.541,0,0,0,.017-.06c.2-.57,1.172-3.54,1.172-3.54H18.76L17.278,6.184s-.215.742-.881.742H11.258s-1.01.095-.707-.7,1.56-4.739,1.56-4.739" transform="translate(-1.685 -0.238)" fill="#fff"/>
      <path id="Path_1097" data-name="Path 1097" d="M19.911,6.914l1.811-5.387h1.372a.726.726,0,0,1,.628.267c.221.3,1.345,1.732,1.345,1.732h.153l2.687-1.809a1.274,1.274,0,0,1,.707-.189h1.371L28.194,6.9h-2.36l.929-2.76-2.1,1.446h-.4L23.06,4.193l-.9,2.721Z" transform="translate(-3.198 -0.245)" fill="#fff"/>
      <path id="Path_1098" data-name="Path 1098" d="M33.14,1.5l-1.777,5.4h2.265l1.83-5.386s-2.322,0-2.318-.019" transform="translate(-5.037 -0.241)" fill="#fff"/>
      <path id="Path_1099" data-name="Path 1099" d="M35.831,6.93l1.545-4.7s.3-.686.851-.686h.723a1.187,1.187,0,0,1,.7.285c.339.363,2,2.3,2,2.3l.912-2.588h2.227l-1.45,4.492s-.262.875-1,.875h-.686a1.211,1.211,0,0,1-.944-.57C40.282,5.755,39,4.27,39,4.27L38.09,6.936l-2.237.028a.023.023,0,0,1-.024-.029v0" transform="translate(-5.754 -0.248)" fill="#fff"/>
      <path id="Path_1100" data-name="Path 1100" d="M48.73,1.516H54.4l-.431,1.356H50.283a.657.657,0,0,0-.665.44v0c-.178.5-.588,1.9-.588,1.9s-.174.342.384.342h3.64l-.468,1.328H47.047s-.865-.029-.617-.728,1.324-4.012,1.324-4.012a.921.921,0,0,1,.976-.628" transform="translate(-7.449 -0.243)" fill="#fff"/>
      <path id="Path_1101" data-name="Path 1101" d="M51.024,3.744h3.083l-.466,1.385H50.515Z" transform="translate(-8.112 -0.601)" fill="#fff"/>
      <path id="Path_1102" data-name="Path 1102" d="M57.057,2.849l.476-1.3h5.925s.7-.071.564.5S63.3,4.376,63.3,4.376s-.218.757-.746.757H62.1l.838,1.77H60.549l-.857-1.742h-.4l.457-1.342H60.82s.483-.057.549-.37l.067-.315s.1-.271-.318-.257-4.062-.029-4.062-.029" transform="translate(-9.163 -0.248)" fill="#fff"/>
      <path id="Path_1103" data-name="Path 1103" d="M56.6,3.88h2.27l-1.079,3.4H55.5Z" transform="translate(-8.913 -0.623)" fill="#fff"/>
      <path id="Path_1104" data-name="Path 1104" d="M61.422.909l.091-.393A.621.621,0,0,1,62.058,0a.53.53,0,0,1,.063,0h3.84s.729-.071.565.5-.921,3.055-.921,3.055-.185.6-.627.6H64.45l.831-2.768S65.4.9,64.756.9s-3.292.007-3.335.007" transform="translate(-9.864 0)" fill="#fff"/>
    </g>
    <g id="Mask_Group_11" data-name="Mask Group 11" transform="translate(148.216 58.827)" clip-path="url(#clip-path-2)">
      <path id="Path_1105" data-name="Path 1105" d="M35.977,78.61h4.751l6.238,14.025h5.84L48.977,82.428h-.793l-2.453,3.405-1.64-3.944,2.427-3.278h5.245l6.512,17.176H44.17l-5.884-13.36h-.94L29.493,92.635H36.47L38.733,89.9l1.611,2.448-2.66,3.445H22.541Z" transform="translate(14.894 -55.99)" fill="#fff"/>
    </g>
    <path id="Path_337" data-name="Path 337" d="M1011.123,721.139c.326-2.193-1.335-3.371-3.608-4.158l.737-2.97-1.8-.45-.718,2.892c-.473-.119-.959-.23-1.442-.341l.723-2.911-1.8-.451-.738,2.969c-.392-.09-.776-.178-1.149-.271l0-.009-2.482-.622-.479,1.931s1.336.308,1.307.326a.961.961,0,0,1,.839,1.052l-.84,3.384a1.456,1.456,0,0,1,.187.06l-.19-.047-1.177,4.74a.655.655,0,0,1-.825.43c.018.026-1.308-.328-1.308-.328l-.894,2.07,2.343.586c.436.11.863.225,1.283.333l-.745,3,1.8.45.738-2.972c.491.134.968.257,1.435.374l-.735,2.958,1.8.45.745-3c3.069.584,5.377.348,6.349-2.44.783-2.245-.039-3.54-1.654-4.385a2.878,2.878,0,0,0,2.3-2.655h0Zm-4.113,5.793c-.556,2.245-4.32,1.032-5.54.727l.988-3.98C1003.679,723.985,1007.592,724.59,1007.011,726.932Zm.557-5.825c-.508,2.042-3.64,1-4.656.75l.9-3.61c1.016.254,4.288.729,3.76,2.859Z" transform="translate(-881.933 -704.355)" fill="#fff"/>
  </g>
  <rect id="Rectangle_2804" data-name="Rectangle 2804" width="284" height="320" fill="#fff" opacity="0"/>
</svg>
