<svg id="coin_luna" xmlns="http://www.w3.org/2000/svg" width="32" height="32" viewBox="0 0 32 32">
  <circle id="Ellipse_16" data-name="Ellipse 16" cx="16" cy="16" r="16" fill="#172852"/>
  <g id="Group_531" data-name="Group 531" transform="translate(6.699 6.607)">
    <path id="Path_1132" data-name="Path 1132" d="M743.953,413.493a9.3,9.3,0,0,1,5.891-.126,9.458,9.458,0,0,1,5.678,5,5.762,5.762,0,0,1,.621,2.115,21.633,21.633,0,0,0-4.462-1.813,57.488,57.488,0,0,1-7.347-2.715c-.541-.323-1.23-.654-1.378-1.328-.059-.582.557-.907,1-1.133" transform="translate(-737.763 -412.95)" fill="#ffd83d"/>
    <path id="Path_1133" data-name="Path 1133" d="M419.182,564.051a9.139,9.139,0,0,1,2.64-3.851,11.866,11.866,0,0,0,3.158,6.8,11.371,11.371,0,0,0,8.25,3.52,16.566,16.566,0,0,0,3.619-.474,9.33,9.33,0,1,1-17.667-6Z" transform="translate(-418.649 -557.844)" fill="#ffd83d"/>
  </g>
  <path id="Path_1134" data-name="Path 1134" d="M1288.5,770.4a21.626,21.626,0,0,1,4.462,1.813l.094.05a9.615,9.615,0,0,1,.051,2.944,8.743,8.743,0,0,1-1.867-1.283,7.625,7.625,0,0,1-2.741-3.523" transform="translate(-1267.885 -758.074)" fill="#ff6f03"/>
</svg>
