<svg xmlns="http://www.w3.org/2000/svg" width="20" height="20" viewBox="0 0 20 20">
  <g id="Group_307" data-name="Group 307" transform="translate(-5004 87)">
    <path id="Icon_ionic-md-notifications-outline" data-name="Icon ionic-md-notifications-outline" d="M14.135,6.859a6.95,6.95,0,0,1,1.15.215,4.9,4.9,0,0,1,3.735,4.8V18.01l.448.45.374.376H8.332l.374-.376.448-.45V11.875a4.9,4.9,0,0,1,3.735-4.8,8.511,8.511,0,0,1,1.15-.215m.048-3.484a1.47,1.47,0,0,0-1.493,1.5v.7a6.482,6.482,0,0,0-4.977,6.3v5.5l-1.991,2v1H22.548v-1l-1.991-2v-5.5a6.482,6.482,0,0,0-4.977-6.3v-.7a1.47,1.47,0,0,0-1.493-1.5Zm1.991,18H12.1a1.991,1.991,0,1,0,3.982,0Z" transform="translate(4999.375 -90.375)" fill="#fff"/>
    <rect id="Rectangle_57" data-name="Rectangle 57" width="20" height="20" transform="translate(5004 -87)" fill="#fff" opacity="0"/>
  </g>
</svg>
