<svg id="pic_state_success" xmlns="http://www.w3.org/2000/svg" width="140" height="140" viewBox="0 0 140 140">
  <g id="Group_446" data-name="Group 446" transform="translate(-116 -306)">
    <path id="Icon_feather-check" data-name="Icon feather-check" d="M23.979,51.632a2.611,2.611,0,0,1-1.846-.765L3.765,32.5a2.611,2.611,0,0,1,3.693-3.693L23.979,45.328,62.543,6.765a2.611,2.611,0,1,1,3.693,3.693l-40.41,40.41A2.611,2.611,0,0,1,23.979,51.632Z" transform="translate(151 347)" fill="#ffff79"/>
    <path id="Ellipse_9" data-name="Ellipse 9" d="M60,4a55.72,55.72,0,0,0-31.307,9.562A56.175,56.175,0,0,0,8.4,38.2a55.921,55.921,0,0,0,5.162,53.1A56.175,56.175,0,0,0,38.2,111.6a55.921,55.921,0,0,0,53.1-5.162A56.175,56.175,0,0,0,111.6,81.8a55.921,55.921,0,0,0-5.162-53.1A56.175,56.175,0,0,0,81.8,8.4,55.646,55.646,0,0,0,60,4m0-4A60,60,0,1,1,0,60,60,60,0,0,1,60,0Z" transform="translate(126 316)" fill="#ffff79"/>
  </g>
  <rect id="Rectangle_2763" data-name="Rectangle 2763" width="140" height="140" fill="#fff" opacity="0"/>
</svg>
