<svg id="cosmos-atom-logo" xmlns="http://www.w3.org/2000/svg" width="32" height="32" viewBox="0 0 32 32">
  <circle id="Ellipse_1" data-name="Ellipse 1" cx="16" cy="16" r="16" fill="#2e3148"/>
  <circle id="Ellipse_2" data-name="Ellipse 2" cx="9.284" cy="9.284" r="9.284" transform="translate(6.716 6.716)" fill="#1b1e36"/>
  <path id="Path_368" data-name="Path 368" d="M1011.358,159.47c-1.727,0-3.128,6.264-3.128,13.992s1.4,13.992,3.128,13.992,3.128-6.264,3.128-13.992S1013.085,159.47,1011.358,159.47Zm.216,27.194a.248.248,0,0,1-.4.066,7.43,7.43,0,0,1-1.193-2.634c-1.391-4.477-1.06-14.09-1.06-14.09.654-7.632,1.843-9.435,2.248-9.835a.247.247,0,0,1,.317-.026c.587.416,1.08,2.156,1.08,2.156a41.132,41.132,0,0,1,1.323,10.469,54.328,54.328,0,0,1-.729,9.35C1012.5,185.873,1011.573,186.664,1011.573,186.664Z" transform="translate(-995.325 -157.429)" fill="#6f7390"/>
  <path id="Path_369" data-name="Path 369" d="M320.881,669.1c-.86-1.5-6.99.4-13.7,4.25s-11.436,8.178-10.577,9.676,6.99-.4,13.7-4.25,11.436-8.178,10.577-9.676ZM297.4,682.82c-.329-.041-.255-.312-.255-.312a7.442,7.442,0,0,1,1.689-2.345c3.193-3.435,11.7-7.932,11.7-7.932,6.944-3.231,9.1-3.095,9.649-2.944a.247.247,0,0,1,.179.263c-.066.717-1.333,2.01-1.333,2.01a41.064,41.064,0,0,1-8.42,6.359,54.234,54.234,0,0,1-8.473,4.02c-3.585,1.292-4.732.88-4.732.88h0Z" transform="translate(-292.712 -660.031)" fill="#6f7390"/>
  <path id="Path_370" data-name="Path 370" d="M323.1,679.6c.867-1.495-3.852-5.847-10.534-9.721s-12.812-5.8-13.678-4.3,3.852,5.847,10.538,9.721S322.235,681.1,323.1,679.6Zm-23.638-13.447a.25.25,0,0,1,.142-.377,7.428,7.428,0,0,1,2.877.289c4.572,1.041,12.723,6.147,12.723,6.147,6.276,4.392,7.239,6.326,7.383,6.875a.247.247,0,0,1-.137.287,5.566,5.566,0,0,1-2.407-.147,41.164,41.164,0,0,1-9.723-4.1,53.976,53.976,0,0,1-7.721-5.316c-2.917-2.456-3.136-3.654-3.136-3.654Z" transform="translate(-294.962 -656.553)" fill="#6f7390"/>
  <circle id="Ellipse_3" data-name="Ellipse 3" cx="1.646" cy="1.646" r="1.646" transform="translate(14.354 14.354)" fill="#b7b9c8"/>
  <ellipse id="Ellipse_4" data-name="Ellipse 4" cx="0.955" cy="0.988" rx="0.955" ry="0.988" transform="translate(21.794 8.691)" fill="#b7b9c8"/>
  <ellipse id="Ellipse_5" data-name="Ellipse 5" cx="0.955" cy="0.988" rx="0.955" ry="0.988" transform="translate(6.123 12.049)" fill="#b7b9c8"/>
  <ellipse id="Ellipse_6" data-name="Ellipse 6" cx="0.955" cy="0.988" rx="0.955" ry="0.988" transform="translate(13.103 24.165)" fill="#b7b9c8"/>
</svg>
