<svg id="icon_toolbar_state_finish" xmlns="http://www.w3.org/2000/svg" width="20" height="20" viewBox="0 0 20 20">
  <g id="Group_504" data-name="Group 504" transform="translate(-11983.5 -3440)">
    <g id="shield-svgrepo-com" transform="translate(11949.098 3440)">
      <path id="Path_431" data-name="Path 431" d="M53.477,4.212a.916.916,0,0,0-.834-.9A17.349,17.349,0,0,1,44.556.119a.621.621,0,0,0-.732,0,17.329,17.329,0,0,1-8.086,3.194.918.918,0,0,0-.834.9c-.047,3.059.444,13.446,9.052,15.757a.906.906,0,0,0,.467,0C53.031,17.66,53.522,7.271,53.477,4.212Z" transform="translate(0 0)" fill="#0aa31c"/>
    </g>
    <path id="Icon_awesome-check" data-name="Icon awesome-check" d="M3.567,12.255.154,8.842a.525.525,0,0,1,0-.743L.9,7.357a.525.525,0,0,1,.743,0l2.3,2.3L8.863,4.731a.525.525,0,0,1,.743,0l.743.743a.525.525,0,0,1,0,.743L4.31,12.255A.525.525,0,0,1,3.567,12.255Z" transform="translate(11988.037 3441.507)" fill="#fff"/>
  </g>
  <rect id="Rectangle_2799" data-name="Rectangle 2799" width="20" height="20" fill="#fff" opacity="0"/>
</svg>
