<svg xmlns="http://www.w3.org/2000/svg" width="1919.998" height="305.023" viewBox="0 0 1919.998 305.023">
  <g id="Group_551" data-name="Group 551" transform="translate(16725 7894.216)">
    <path id="Path_421" data-name="Path 421" d="M0,251.088,29.491,6.418H79.825S98.9-.542,133.61,30.712s105.864,95.423,105.864,95.423L255.073,9.9h100.62L334.9,214.637s-3.48,36.432-36.432,36.432S256.827,259.7,211.709,218.1s-95.423-85.011-95.423-85.011l-13.9,121.482s-98.9,0-102.384-3.48" transform="translate(-16725 -7844.783)" fill="#b30017"/>
    <path id="Path_419" data-name="Path 419" d="M67.225,5.917H172.2L150.51,172.5s-6.088,19.951,17.344,19.951h58.138a23.012,23.012,0,0,0,25.819-19.808A23.943,23.943,0,0,0,252,169.89C255.483,143.88,271.11,8.525,271.11,8.525h99.766l-22.55,211.7s-2.608,33.834-32.971,33.834H81.1s-45.118,4.324-39.059-32.1S67.225,5.917,67.225,5.917" transform="translate(-16368.811 -7843.409)" fill="#b30017"/>
    <path id="Path_412" data-name="Path 412" d="M176.432,41.452l.316-17.89A21.728,21.728,0,0,1,196.67.169,21.984,21.984,0,0,1,199.537.13H374.594s32.53-3.25,30.565,22.76-12.349,139.266-12.349,139.266-2.608,27.315-22.789,27.315H345.956l11.064-126.2s.633-22.137-28.685-22.137-149.995.316-151.941.316" transform="translate(-15210.246 -7894.216)" fill="#b30017"/>
    <path id="Path_420" data-name="Path 420" d="M157.649,118.954c.172,1.371,1.045,5.474,2.751,5.474s3.241-4.1,3.711-5.129l37.477-87.667c3.365-7.871,11.265-19.175,40.708-19.175s34.572,11.3,35.991,19.175L294.24,119.3c.211,1.026.738,5.129,2.455,5.129s3.586-4.1,4.094-5.474L341.008,14.509H404.7L345.188,161.752c-7.967,20.21-18.849,36.3-52.4,36.3-33.22,0-41.168-13.346-43.335-26.365l-14.266-79.1c-.729-2.406-.69-5.484-2.061-5.484s-2.09,3.078-3.413,5.484l-33.681,79.1c-5.369,13.02-16.6,26.365-49.807,26.365-33.565,0-40.488-16.088-43.488-36.3L79.387,14.509h63.7Z" transform="translate(-16043.271 -7787.248)" fill="#fff"/>
    <path id="Path_413" data-name="Path 413" d="M261.256,12.671c37.669,0,58.7,23.968,54.073,61.637l-10.086,82.183c-2.943,23.968-18.331,37.669-42.309,37.669H150.627c-34.237,0-42.079-19.865-37.458-57.534,4.209-34.237,17.181-56.153,51.417-56.153H247.45l.422-3.423c1.477-11.984-5.685-17.8-18.35-17.8H135l5.724-46.576ZM194.642,122.936c-6.845,0-13.346,5.474-14.352,13.691-.757,6.165,2.512,13.02,10.393,13.02h34.582c10.268,0,14.113-3.432,15.378-13.7l1.592-13.01Z" transform="translate(-15763.546 -7785.406)" fill="#fff"/>
    <path id="Path_414" data-name="Path 414" d="M163.786,6.6H230.9L201.464,246.294H134.353Z" transform="translate(-15571.266 -7837.548)" fill="#fff"/>
    <path id="Path_415" data-name="Path 415" d="M173.5,6.6h67.121L211.188,246.294H144.067Z" transform="translate(-15487.845 -7837.548)" fill="#fff"/>
    <path id="Path_416" data-name="Path 416" d="M216.093,195.989c-58.215,0-68.186-16.433-58.934-91.771,10.086-82.173,26.672-91.761,108.865-91.761,68.483,0,96.573,5.474,88.165,73.957-2.522,20.546-9.76,40.411-33.719,40.411H221.5c-2.1,17.123,6.472,22.6,30.45,22.6h88l-5.723,46.566ZM276.369,84.363c10.949,0,11.917-7.871,12.339-11.3,1.6-13.01-18.13-14.036-28.4-14.036-17.133,0-30.824,2.732-33.594,25.339Z" transform="translate(-15401.324 -7787.237)" fill="#fff"/>
    <path id="Path_417" data-name="Path 417" d="M254.1,246.294c-37.678,0-66.383-17.123-60.919-61.637l8.83-71.905H176.314L182.2,64.805H207.9L215.038,6.6h67.111l-7.142,58.205h51.714l-5.887,47.947H269.12l-5.043,41.092c-3.365,27.391,4.8,44.5,35.617,44.5h10.623l-5.887,47.947Z" transform="translate(-15210.921 -7837.546)" fill="#fff"/>
  </g>
</svg>
