<svg id="icon_main_avatar" xmlns="http://www.w3.org/2000/svg" width="32" height="32" viewBox="0 0 32 32">
  <path id="_inner-path_" data-name="&lt;inner-path&gt;" d="M8.007,24.93A5,5,0,0,1,13,20h6a5,5,0,0,1,4.993,4.93,11.94,11.94,0,0,1-15.986,0ZM20.5,12.5A4.5,4.5,0,1,1,16,8,4.5,4.5,0,0,1,20.5,12.5Z" fill="none"/>
  <path id="Path_422" data-name="Path 422" d="M26.749,24.93a14,14,0,1,0-21.5,0l-.018.019c.07.084.15.157.222.239.09.1.186.2.28.3.28.3.567.6.87.87.091.083.186.161.28.242.32.276.648.537.99.781.044.031.083.069.128.1v-.013a13.9,13.9,0,0,0,16,0v.013c.044-.031.083-.069.128-.1.341-.244.67-.505.99-.781.094-.08.189-.159.28-.242.3-.275.59-.567.87-.87.093-.1.189-.2.28-.3.072-.082.152-.155.222-.239ZM16,8a4.5,4.5,0,1,1-4.5,4.5A4.5,4.5,0,0,1,16,8ZM8.007,24.93A5,5,0,0,1,13,20h6a5,5,0,0,1,4.993,4.93,11.94,11.94,0,0,1-15.986,0Z" fill="#fff"/>
  <rect id="_Transparent_Rectangle_" data-name="&lt;Transparent Rectangle&gt;" width="32" height="32" fill="#fff" opacity="0"/>
</svg>
