<svg id="button_textfields_eyes_open" xmlns="http://www.w3.org/2000/svg" width="24" height="24" viewBox="0 0 24 24">
  <g id="Group_333" data-name="Group 333" transform="translate(766 -2073)">
    <path id="Icon_ionic-md-eye" data-name="Icon ionic-md-eye" d="M14.25,7.383a12.9,12.9,0,0,0-12,8.089,12.945,12.945,0,0,0,24,0A12.9,12.9,0,0,0,14.25,7.383Zm0,13.484A5.395,5.395,0,1,1,19.7,15.472,5.439,5.439,0,0,1,14.25,20.867Zm0-8.63a3.236,3.236,0,1,0,3.273,3.236A3.265,3.265,0,0,0,14.25,12.236Z" transform="translate(-768.25 2070.117)" fill="#1f892b"/>
    <rect id="Rectangle_78" data-name="Rectangle 78" width="24" height="24" transform="translate(-766 2073)" fill="#1f892b" opacity="0"/>
  </g>
  <rect id="Rectangle_2777" data-name="Rectangle 2777" width="24" height="24" fill="#1f892b" opacity="0"/>
</svg>
