<svg id="coin_bch" xmlns="http://www.w3.org/2000/svg" width="32" height="32" viewBox="0 0 32 32">
  <circle id="Ellipse_15" data-name="Ellipse 15" cx="16" cy="16" r="16" fill="#0ac18d"/>
  <path id="symbol_1_" d="M205.674,151.754c-.8-1.823-2.652-2.213-4.914-1.836l-.727-2.818-1.714.443.715,2.81c-.451.114-.914.211-1.373.341l-.715-2.794-1.714.443.727,2.818c-.37.106-3.46.9-3.46.9l.471,1.836s1.259-.353,1.247-.325a.912.912,0,0,1,1.182.5l2,7.724a.634.634,0,0,1-.5.735c.028.016-1.247.321-1.247.321l.187,2.14s3.062-.784,3.464-.885l.735,2.851,1.714-.443-.735-2.871q.707-.164,1.377-.341l.731,2.855,1.714-.443-.735-2.847c2.64-.642,4.5-2.307,4.122-4.853a3.958,3.958,0,0,0-3.314-2.936,2.83,2.83,0,0,0,.759-3.318Zm-.824,6.721c.341,2.522-3.163,2.83-4.321,3.135l-1.007-3.773C200.683,157.532,204.273,156.253,204.849,158.475Zm-2.112-5.137c.361,2.242-2.636,2.5-3.6,2.749l-.918-3.423C199.188,152.424,202,151.262,202.738,153.338Z" transform="translate(-184.684 -141.126)" fill="#fff"/>
</svg>
