<svg xmlns="http://www.w3.org/2000/svg" width="20" height="20" viewBox="0 0 20 20">
  <g id="Group_318" data-name="Group 318" transform="translate(455 -2074)">
    <path id="Icon_awesome-qrcode" data-name="Icon awesome-qrcode" d="M0,9.964H7.714V2.25H0ZM2.571,4.821H5.143V7.393H2.571ZM10.286,2.25V9.964H18V2.25Zm5.143,5.143H12.857V4.821h2.571ZM0,20.25H7.714V12.536H0Zm2.571-5.143H5.143v2.571H2.571Zm14.143-2.571H18v5.143H14.143V16.393H12.857V20.25H10.286V12.536h3.857v1.286h2.571Zm0,6.429H18V20.25H16.714Zm-2.571,0h1.286V20.25H14.143Z" transform="translate(-454 2072.75)" fill="#fff"/>
    <rect id="Rectangle_83" data-name="Rectangle 83" width="20" height="20" transform="translate(-455 2074)" fill="#fff" opacity="0"/>
  </g>
</svg>
