<svg xmlns="http://www.w3.org/2000/svg" width="20.002" height="20.002" viewBox="0 0 20.002 20.002">
  <g id="icon_toolbar_settingup" transform="translate(0.002)">
    <path id="person-name-svgrepo-com" d="M37.236,20H22.725a2.633,2.633,0,0,0-2.72,2.6V37.4a2.333,2.333,0,0,0,.087.743,13.748,13.748,0,0,1,2.577-1.3c1.46-.6,1.63-1.127,1.63-1.713a2.444,2.444,0,0,0-.9-1.587,4.057,4.057,0,0,1-1.287-3,4,4,0,1,1,8,0,3.764,3.764,0,0,1-1.287,3,2.37,2.37,0,0,0-.9,1.587c0,.587.217,1.113,1.63,1.713,1.893.773,3.667,1.65,4.047,3.163h3.667A2.693,2.693,0,0,0,40,37.4V22.6A2.707,2.707,0,0,0,37.236,20ZM37,28.616a.667.667,0,0,1-.667.667h-5a.667.667,0,0,1-.667-.667v-1a.667.667,0,0,1,.667-.667h5a.667.667,0,0,1,.667.667Zm1.667-4.334a.667.667,0,0,1-.667.667H31.336a.667.667,0,0,1-.667-.667v-1a.667.667,0,0,1,.667-.667H38a.667.667,0,0,1,.667.667Z" transform="translate(-20.003 -19.998)" fill="#696969" fill-rule="evenodd"/>
    <rect id="Rectangle_2793" data-name="Rectangle 2793" width="20" height="20" fill="#fff" opacity="0"/>
  </g>
</svg>
