<svg id="coin_usdc" xmlns="http://www.w3.org/2000/svg" width="32" height="32" viewBox="0 0 32 32">
  <path id="Path_1125" data-name="Path 1125" d="M16,32A16,16,0,1,0,0,16,15.962,15.962,0,0,0,16,32Z" fill="#2775ca"/>
  <path id="Path_1126" data-name="Path 1126" d="M725.6,518.73c0-2.333-1.4-3.133-4.2-3.467-2-.267-2.4-.8-2.4-1.733S719.67,512,721,512a1.973,1.973,0,0,1,2.2,1.4.5.5,0,0,0,.467.333h1.067a.456.456,0,0,0,.467-.467V513.2a3.331,3.331,0,0,0-3-2.733v-1.6c0-.267-.2-.467-.533-.533h-1c-.267,0-.467.2-.533.533V510.4a3.4,3.4,0,0,0-3.267,3.267c0,2.2,1.333,3.067,4.133,3.4,1.867.333,2.467.733,2.467,1.8s-.933,1.8-2.2,1.8c-1.733,0-2.333-.733-2.533-1.733a.487.487,0,0,0-.467-.4h-1.133a.456.456,0,0,0-.467.467v.067c.267,1.667,1.333,2.867,3.533,3.2v1.6c0,.267.2.467.533.533h1c.267,0,.467-.2.533-.533v-1.6A3.652,3.652,0,0,0,725.6,518.73Z" transform="translate(-705.203 -500.197)" fill="#fff"/>
  <path id="Path_1127" data-name="Path 1127" d="M256.6,312.537a9.976,9.976,0,0,1,0-18.733.669.669,0,0,0,.4-.667V292.2a.507.507,0,0,0-.4-.533.4.4,0,0,0-.267.067,12,12,0,0,0,0,22.867.405.405,0,0,0,.6-.267c.067-.067.067-.133.067-.267v-.933A.888.888,0,0,0,256.6,312.537Zm7.067-20.8a.405.405,0,0,0-.6.267c-.067.067-.067.133-.067.267v.933a.884.884,0,0,0,.4.667,9.976,9.976,0,0,1,0,18.733.669.669,0,0,0-.4.667v.933a.507.507,0,0,0,.4.533.4.4,0,0,0,.267-.067,12.048,12.048,0,0,0,0-22.933Z" transform="translate(-243.998 -287.003)" fill="#fff"/>
</svg>
