<svg id="icon_toolbar_security" xmlns="http://www.w3.org/2000/svg" width="20" height="20" viewBox="0 0 20 20">
  <g id="shield-svgrepo-com" transform="translate(-21.945)">
    <path id="Path_423" data-name="Path 423" d="M40.072,2.729,32.675.06a1,1,0,0,0-.682,0l-7.37,2.669a1.02,1.02,0,0,0-.678.947V10a7.832,7.832,0,0,0,1.324,4.2,13.956,13.956,0,0,0,2.739,3.067,20.876,20.876,0,0,0,3.9,2.631,1.013,1.013,0,0,0,.89,0,20.517,20.517,0,0,0,3.9-2.609,13.694,13.694,0,0,0,2.727-3.067A7.855,7.855,0,0,0,40.73,10V3.676A1,1,0,0,0,40.072,2.729ZM25.556,10V4.429a.5.5,0,0,1,.329-.473L32.15,1.677a.554.554,0,0,1,.187-.035V10h6.829a.091.091,0,0,1,0,.015c0,1.821-.919,3.627-2.726,5.384a19.074,19.074,0,0,1-3.84,2.814.622.622,0,0,1-.263.063V10Z" fill="#696969"/>
  </g>
  <rect id="Rectangle_2786" data-name="Rectangle 2786" width="20" height="20" fill="#fff" opacity="0"/>
</svg>
