<svg id="pic_kyc_re" xmlns="http://www.w3.org/2000/svg" width="140" height="140" viewBox="0 0 140 140">
  <g id="Group_343" data-name="Group 343" transform="translate(-8673 -1594)">
    <g id="climbing-svgrepo-com" transform="translate(8686.429 1604)">
      <g id="Group_342" data-name="Group 342" transform="translate(0 0)">
        <path id="Path_436" data-name="Path 436" d="M38.657,86.171l16.59,8.56,4.569-11.092L54.236,80.76l.456-1.516-2-.362c-4.361-.789-7.108-4.37-7.541-6.79L41.565,52.047l8.29,19.2a4.98,4.98,0,0,0,3.686,2.927L73.12,77.719a4.98,4.98,0,0,0,1.773-9.8L57.942,64.851l-7.507-17.39L60.408,60.24l2.635-8.761a7.426,7.426,0,0,0-4.972-9.25L45.39,38.415a7.382,7.382,0,0,0-4.478.069l.251-.66a8.49,8.49,0,0,0-4.924-10.95l-2.691-1.022L27.416,42.838a2.391,2.391,0,0,1-3.078,1.431L15.52,41.008l-1.351,3.56-1.975-.75A2.033,2.033,0,0,0,9.572,45L7.04,51.665a2.033,2.033,0,0,0,1.179,2.622l1.975.75L9.173,57.726A8.49,8.49,0,0,0,14.1,68.677l5.481,2.081a8.49,8.49,0,0,0,8.869-1.787l-2.522,8.386a5.954,5.954,0,0,0-.671,4.536L30.8,103.887l-2.532,24.938a5.976,5.976,0,1,0,11.891,1.207l2.638-25.983a5.964,5.964,0,0,0-.151-2.064L38.657,86.171Z" transform="translate(-6.908 -15.552)" fill="#696969"/>
        <path id="Path_437" data-name="Path 437" d="M156.82,217.676,149.4,235.688a5.976,5.976,0,0,0,10.961-4.494Z" transform="translate(-92.629 -130.95)" fill="#696969"/>
        <circle id="Ellipse_13" data-name="Ellipse 13" cx="10.992" cy="10.992" r="10.992" transform="translate(39.964)" fill="#696969"/>
        <path id="Path_438" data-name="Path 438" d="M181.549,103.78l3.9-9.479a3.984,3.984,0,1,0-7.368-3.035l-3.88,9.421,2.184.4a9.686,9.686,0,0,1,5.16,2.7Z" transform="translate(-107.551 -53.42)" fill="#696969"/>
        <path id="Path_439" data-name="Path 439" d="M132.389,166.278c-1.147,0-1.176-.054-8.055-1.3l-20.086,48.767a3.984,3.984,0,1,0,7.368,3.035l20.8-50.5h-.028Z" transform="translate(-65.285 -99.249)" fill="#696969"/>
        <path id="Path_440" data-name="Path 440" d="M199.873,175.423a1.322,1.322,0,0,0-1.479.491L192.8,183.75a29.437,29.437,0,0,1-5.545,5.863l-9.748,7.814a36.482,36.482,0,0,0-6.678,7l-1.184,1.628a21.62,21.62,0,0,1-7.25,6.325l-7.022,3.774-15.7,6.7a1.322,1.322,0,0,0,.519,2.537h52.79a7.808,7.808,0,0,0,7.808-7.808v-40.9a1.322,1.322,0,0,0-.918-1.259Z" transform="translate(-86.295 -105.494)" fill="#696969"/>
        <path id="Path_441" data-name="Path 441" d="M44.58,21.9a8.491,8.491,0,0,0-9.206,5.381L32.785,34.1l6.52,2.412L44.58,21.9Z" transform="translate(-22.475 -13.118)" fill="#696969"/>
      </g>
    </g>
    <rect id="Rectangle_113" data-name="Rectangle 113" width="120" height="120" transform="translate(8683 1604)" fill="#fff" opacity="0"/>
  </g>
  <rect id="Rectangle_2767" data-name="Rectangle 2767" width="140" height="140" fill="#fff" opacity="0"/>
</svg>
