<svg id="pic_logo_wallet" xmlns="http://www.w3.org/2000/svg" width="115" height="18.27" viewBox="0 0 115 18.27">
  <path id="Path_421" data-name="Path 421" d="M0,20.451,1.766,5.8H4.781S5.924,5.38,8,7.252s6.341,5.715,6.341,5.715l.934-6.962H21.3L20.059,18.268s-.208,2.182-2.182,2.182-2.494.517-5.2-1.975-5.715-5.092-5.715-5.092L6.132,20.66S.208,20.66,0,20.451" transform="translate(0 -2.452)" fill="#3c3c3c"/>
  <path id="Path_419" data-name="Path 419" d="M43.021,5.917h6.287l-1.3,9.977s-.365,1.195,1.039,1.195H52.53A1.378,1.378,0,0,0,54.077,15.9a1.436,1.436,0,0,0,.011-.165c.208-1.558,1.144-9.665,1.144-9.665h5.976l-1.351,12.68S59.7,20.78,57.883,20.78H43.852s-2.7.259-2.339-1.923,1.509-12.94,1.509-12.94" transform="translate(-17.659 -2.52)" fill="#3c3c3c"/>
  <path id="Path_412" data-name="Path 412" d="M176.4,2.483l.019-1.072a1.3,1.3,0,0,1,1.193-1.4,1.317,1.317,0,0,1,.172,0h10.485s1.948-.195,1.831,1.363-.74,8.341-.74,8.341-.156,1.636-1.365,1.636h-1.441l.663-7.559s.038-1.326-1.718-1.326-8.984.019-9.1.019" transform="translate(-75.101 0)" fill="#3c3c3c"/>
  <path id="Path_420" data-name="Path 420" d="M84.075,18.836c.01.082.063.328.165.328s.194-.246.222-.307l2.245-5.251c.2-.471.675-1.148,2.438-1.148s2.071.677,2.156,1.148l.956,5.251c.013.061.044.307.147.307s.215-.246.245-.328l2.409-6.256h3.815L95.307,21.4a2.927,2.927,0,0,1-3.138,2.174c-1.99,0-2.466-.8-2.6-1.579l-.854-4.738c-.044-.144-.041-.328-.123-.328s-.125.184-.2.328l-2.017,4.738c-.322.78-.994,1.579-2.983,1.579-2.01,0-2.425-.964-2.6-2.174l-1.4-8.819H83.2Z" transform="translate(-33.8 -5.304)" fill="#3c3c3c"/>
  <path id="Path_413" data-name="Path 413" d="M120.9,12.671a3.006,3.006,0,0,1,3.239,3.692l-.6,4.922A2.367,2.367,0,0,1,121,23.541h-6.727c-2.051,0-2.52-1.19-2.244-3.446.252-2.051,1.029-3.363,3.08-3.363h4.963l.025-.205c.088-.718-.341-1.066-1.1-1.066h-5.661l.343-2.79Zm-3.99,6.6a.9.9,0,0,0-.86.82.642.642,0,0,0,.622.78h2.071c.615,0,.845-.206.921-.821l.1-.779Z" transform="translate(-47.668 -5.395)" fill="#3c3c3c"/>
  <path id="Path_414" data-name="Path 414" d="M136.116,6.6h4.02l-1.763,14.357h-4.02Z" transform="translate(-57.201 -2.81)" fill="#3c3c3c"/>
  <path id="Path_415" data-name="Path 415" d="M145.83,6.6h4.02l-1.763,14.357h-4.02Z" transform="translate(-61.337 -2.81)" fill="#3c3c3c"/>
  <path id="Path_416" data-name="Path 416" d="M157.853,23.451c-3.487,0-4.084-.984-3.53-5.5.6-4.922,1.6-5.5,6.521-5.5,4.1,0,5.784.328,5.281,4.43-.151,1.231-.585,2.42-2.02,2.42h-5.928c-.126,1.026.388,1.353,1.824,1.353h5.271l-.343,2.789Zm3.61-6.686a.665.665,0,0,0,.739-.677c.1-.779-1.086-.841-1.7-.841-1.026,0-1.846.164-2.012,1.518Z" transform="translate(-65.627 -5.304)" fill="#3c3c3c"/>
  <path id="Path_417" data-name="Path 417" d="M180.973,20.957c-2.257,0-3.976-1.026-3.649-3.692l.529-4.307h-1.539l.353-2.872h1.539l.428-3.486h4.02l-.428,3.486h3.1l-.353,2.872h-3.1l-.3,2.461c-.2,1.641.288,2.666,2.133,2.666h.636l-.353,2.872Z" transform="translate(-75.067 -2.81)" fill="#3c3c3c"/>
</svg>
