<svg id="coin_near" xmlns="http://www.w3.org/2000/svg" width="32" height="32" viewBox="0 0 32 32">
  <path id="near-protocol-near-logo" d="M25.643,1.634l-6.677,9.909a.71.71,0,0,0,1.065.923L26.6,6.748a.257.257,0,0,1,.426.213V24.826a.266.266,0,0,1-.462.178L6.677,1.208A3.286,3.286,0,0,0,4.084,0h-.71A3.4,3.4,0,0,0,0,3.41V28.555a3.411,3.411,0,0,0,6.322,1.776L13,20.422a.71.71,0,0,0-1.065-.923l-6.57,5.683a.257.257,0,0,1-.426-.213V7.139A.266.266,0,0,1,5.4,6.961l19.889,23.8a3.338,3.338,0,0,0,2.593,1.208h.71A3.41,3.41,0,0,0,32,28.555V3.41a3.433,3.433,0,0,0-6.357-1.776Z" fill="#fff"/>
  <rect id="Rectangle_2813" data-name="Rectangle 2813" width="32" height="32" fill="#fff" opacity="0"/>
</svg>
