<svg id="coin_ada" xmlns="http://www.w3.org/2000/svg" width="32" height="32" viewBox="0 0 32 32">
  <g id="Layer_2_1_" transform="translate(0.009 1.015)">
    <g id="Layer_1-2" transform="translate(-0.008 -0.015)">
      <path id="Path_338" data-name="Path 338" d="M102.761,150.139a2.155,2.155,0,0,0,2.031,2.27h.128a2.155,2.155,0,1,0-2.159-2.27Z" transform="translate(-93.989 -135.461)" fill="#fff"/>
      <path id="Path_339" data-name="Path 339" d="M.726,165.484a.7.7,0,1,0,.657.734.691.691,0,0,0-.657-.734Z" transform="translate(0.008 -151.36)" fill="#fff"/>
      <path id="Path_340" data-name="Path 340" d="M90.351,11.258a.7.7,0,1,0-.631-1.246.7.7,0,0,0,.631,1.246Z" transform="translate(-81.715 -9.09)" fill="#fff"/>
      <path id="Path_341" data-name="Path 341" d="M110.125,48.3a1.074,1.074,0,1,0-1.442-.478A1.077,1.077,0,0,0,110.125,48.3Z" transform="translate(-99.305 -42.32)" fill="#fff"/>
      <path id="Path_342" data-name="Path 342" d="M36.279,83.348a.888.888,0,1,0-.256-1.229h0A.883.883,0,0,0,36.279,83.348Z" transform="translate(-32.814 -74.746)" fill="#fff"/>
      <path id="Path_343" data-name="Path 343" d="M43.715,160.981a1.077,1.077,0,1,0,1.015,1.135h0A1.077,1.077,0,0,0,43.715,160.981Z" transform="translate(-38.945 -147.241)" fill="#fff"/>
      <path id="Path_344" data-name="Path 344" d="M36.77,244.678a.889.889,0,1,0,1.195.393h0a.892.892,0,0,0-1.195-.393Z" transform="translate(-33.186 -223.711)" fill="#fff"/>
      <path id="Path_345" data-name="Path 345" d="M84.837,109.986a1.264,1.264,0,1,0-.367-1.749,1.256,1.256,0,0,0,.367,1.749Z" transform="translate(-77.072 -98.474)" fill="#fff"/>
      <path id="Path_346" data-name="Path 346" d="M241.258,47.915a1.078,1.078,0,1,0-.307-1.493h0a1.066,1.066,0,0,0,.307,1.493Z" transform="translate(-220.224 -42.018)" fill="#fff"/>
      <path id="Path_347" data-name="Path 347" d="M268.94,10.837a.7.7,0,1,0-.2-.973.719.719,0,0,0,.2.973Z" transform="translate(-245.704 -8.736)" fill="#fff"/>
      <path id="Path_348" data-name="Path 348" d="M224.031,147.861a2.154,2.154,0,1,0-.239,4.3h.119a2.152,2.152,0,0,0,.119-4.3Z" transform="translate(-202.835 -135.24)" fill="#fff"/>
      <path id="Path_349" data-name="Path 349" d="M132.609,99.511a2.156,2.156,0,1,0,.956-2.9,2.159,2.159,0,0,0-.956,2.9Z" transform="translate(-121.081 -88.152)" fill="#fff"/>
      <path id="Path_350" data-name="Path 350" d="M319.121,82.837a.887.887,0,1,0-1.2-.393.9.9,0,0,0,1.2.393Z" transform="translate(-290.706 -74.235)" fill="#fff"/>
      <path id="Path_351" data-name="Path 351" d="M261.511,107.388a1.265,1.265,0,1,0,1.7.563A1.265,1.265,0,0,0,261.511,107.388Z" transform="translate(-238.557 -98.103)" fill="#fff"/>
      <path id="Path_352" data-name="Path 352" d="M177.523,1.761a.9.9,0,0,0,.939-.836.889.889,0,0,0-1.775-.111.9.9,0,0,0,.836.947Z" transform="translate(-161.608 0.015)" fill="#fff"/>
      <path id="Path_353" data-name="Path 353" d="M173.578,59a1.265,1.265,0,1,0-1.195-1.331A1.256,1.256,0,0,0,173.578,59Z" transform="translate(-157.672 -51.652)" fill="#fff"/>
      <path id="Path_354" data-name="Path 354" d="M86.346,212.009a1.265,1.265,0,1,0-1.7-.563A1.265,1.265,0,0,0,86.346,212.009Z" transform="translate(-77.301 -191.725)" fill="#fff"/>
      <path id="Path_355" data-name="Path 355" d="M192.234,97.373a2.154,2.154,0,1,0,1.8-.973A2.148,2.148,0,0,0,192.234,97.373Z" transform="translate(-175.509 -88.173)" fill="#fff"/>
      <path id="Path_356" data-name="Path 356" d="M196.158,200.665a2.154,2.154,0,1,0-.956,2.893h0a2.144,2.144,0,0,0,.964-2.876C196.166,200.674,196.166,200.674,196.158,200.665Z" transform="translate(-175.686 -182.454)" fill="#fff"/>
      <path id="Path_357" data-name="Path 357" d="M263.02,209.37a1.264,1.264,0,1,0,.367,1.749,1.256,1.256,0,0,0-.367-1.749Z" transform="translate(-238.785 -191.313)" fill="#fff"/>
      <path id="Path_358" data-name="Path 358" d="M309.331,161.515a1.077,1.077,0,1,0-1.135,1.015h0A1.083,1.083,0,0,0,309.331,161.515Z" transform="translate(-280.967 -146.692)" fill="#fff"/>
      <path id="Path_359" data-name="Path 359" d="M359.426,164.684a.7.7,0,1,0,.657.734A.7.7,0,0,0,359.426,164.684Z" transform="translate(-328.084 -150.629)" fill="#fff"/>
      <path id="Path_360" data-name="Path 360" d="M319.692,244.164a.888.888,0,1,0,.256,1.229.883.883,0,0,0-.256-1.229Z" transform="translate(-291.157 -223.197)" fill="#fff"/>
      <path id="Path_361" data-name="Path 361" d="M91.032,320.668a.7.7,0,1,0,.2.964h0A.685.685,0,0,0,91.032,320.668Z" transform="translate(-82.276 -293.199)" fill="#fff"/>
      <path id="Path_362" data-name="Path 362" d="M269.72,320.275a.7.7,0,1,0,.631,1.246.7.7,0,0,0-.631-1.246Z" transform="translate(-246.356 -292.874)" fill="#fff"/>
      <path id="Path_363" data-name="Path 363" d="M136.5,202.92a2.157,2.157,0,1,0-2.987.623,2.164,2.164,0,0,0,2.987-.623Z" transform="translate(-121.228 -182.551)" fill="#fff"/>
      <path id="Path_364" data-name="Path 364" d="M110.608,275.515a1.078,1.078,0,1,0,.307,1.493h0A1.068,1.068,0,0,0,110.608,275.515Z" transform="translate(-99.642 -251.843)" fill="#fff"/>
      <path id="Path_365" data-name="Path 365" d="M177.316,325.687a.889.889,0,1,0,.836.947.9.9,0,0,0-.836-.947Z" transform="translate(-161.325 -297.894)" fill="#fff"/>
      <path id="Path_366" data-name="Path 366" d="M173.206,260.375a1.265,1.265,0,1,0,1.195,1.331,1.256,1.256,0,0,0-1.195-1.331Z" transform="translate(-157.206 -238.153)" fill="#fff"/>
      <path id="Path_367" data-name="Path 367" d="M241.893,275.143a1.078,1.078,0,1,0,1.459.478,1.078,1.078,0,0,0-1.459-.478Z" transform="translate(-220.714 -251.557)" fill="#fff"/>
    </g>
  </g>
  <rect id="Rectangle_88" data-name="Rectangle 88" width="32" height="32" fill="#fff" opacity="0"/>
</svg>
