<svg id="pic_kyc_verifying" xmlns="http://www.w3.org/2000/svg" width="140" height="140" viewBox="0 0 140 140">
  <g id="Group_341" data-name="Group 341" transform="translate(-8113 -1904)">
    <g id="search-svgrepo-com_1_" data-name="search-svgrepo-com (1)" transform="translate(8135 1914)">
      <path id="Path_433" data-name="Path 433" d="M94.125,0H30.375a9.376,9.376,0,0,0-9.2,7.673,9.377,9.377,0,0,0-7.5,7.5A9.376,9.376,0,0,0,6,24.375v86.25A9.386,9.386,0,0,0,15.375,120h63.75a9.376,9.376,0,0,0,9.2-7.673,9.377,9.377,0,0,0,7.5-7.5,9.376,9.376,0,0,0,7.673-9.2V9.375A9.386,9.386,0,0,0,94.125,0Zm-15,116.25H15.375a5.632,5.632,0,0,1-5.625-5.625V24.375a5.632,5.632,0,0,1,5.625-5.625H62.25V39.375a1.876,1.876,0,0,0,1.875,1.875H84.75v69.375A5.632,5.632,0,0,1,79.125,116.25ZM66,21.4,82.1,37.5H66Zm22.5,87.028V39.375c0-.041-.021-.077-.024-.118a1.927,1.927,0,0,0-.1-.482,1.526,1.526,0,0,0-.064-.176,1.87,1.87,0,0,0-.368-.549l-22.5-22.5a1.819,1.819,0,0,0-.551-.367,1.514,1.514,0,0,0-.169-.06,1.857,1.857,0,0,0-.5-.1c-.038,0-.071-.023-.109-.023H17.571a5.636,5.636,0,0,1,5.3-3.75h56.25V22.5A1.876,1.876,0,0,0,81,24.375H92.25v78.75A5.636,5.636,0,0,1,88.5,108.429ZM82.875,13.9,89.6,20.625H82.875ZM99.75,95.625a5.636,5.636,0,0,1-3.75,5.3V22.5c0-.041-.021-.077-.024-.118a1.927,1.927,0,0,0-.1-.482,1.409,1.409,0,0,0-.064-.176,1.87,1.87,0,0,0-.368-.549L82.324,8.049a1.869,1.869,0,0,0-.549-.368c-.058-.026-.116-.043-.176-.064a1.786,1.786,0,0,0-.484-.1c-.039,0-.075-.023-.114-.023H25.071a5.636,5.636,0,0,1,5.3-3.75h63.75A5.632,5.632,0,0,1,99.75,9.375Z" transform="translate(-6)" fill="#696969"/>
      <rect id="Rectangle_104" data-name="Rectangle 104" width="37.5" height="3.75" transform="translate(11.25 30)" fill="#696969"/>
      <path id="Path_434" data-name="Path 434" d="M49.543,71.75a24.462,24.462,0,1,0-20.7-11.573L11.454,77.563a5.625,5.625,0,0,0,7.954,7.956l17.4-17.4A24.194,24.194,0,0,0,49.543,71.75Zm0-45A20.625,20.625,0,1,1,36.686,63.474l-3.242-3.242a20.6,20.6,0,0,1,16.1-33.482ZM16.758,82.867a1.875,1.875,0,0,1-2.651-2.653L31.079,63.241a24.6,24.6,0,0,0,2.655,2.649Z" transform="translate(-2.668 20.125)" fill="#696969"/>
      <path id="Path_435" data-name="Path 435" d="M38.875,60.75A16.875,16.875,0,1,0,22,43.875,16.9,16.9,0,0,0,38.875,60.75Zm0-30A13.125,13.125,0,1,1,25.75,43.875,13.139,13.139,0,0,1,38.875,30.75Z" transform="translate(8 23.625)" fill="#696969"/>
      <rect id="Rectangle_105" data-name="Rectangle 105" width="7.5" height="3.75" transform="translate(11.25 37.5)" fill="#696969"/>
      <rect id="Rectangle_106" data-name="Rectangle 106" width="9.375" height="3.75" transform="translate(22.5 37.5)" fill="#696969"/>
      <rect id="Rectangle_107" data-name="Rectangle 107" width="13.125" height="3.75" transform="translate(60 91.875)" fill="#696969"/>
      <rect id="Rectangle_108" data-name="Rectangle 108" width="5.625" height="3.75" transform="translate(67.5 84.375)" fill="#696969"/>
      <rect id="Rectangle_109" data-name="Rectangle 109" width="22.5" height="3.75" transform="translate(28.125 99.375)" fill="#696969"/>
      <rect id="Rectangle_110" data-name="Rectangle 110" width="18.75" height="3.75" transform="translate(54.375 99.375)" fill="#696969"/>
      <rect id="Rectangle_111" data-name="Rectangle 111" width="9.375" height="3.75" transform="translate(11.25 45)" fill="#696969"/>
    </g>
    <rect id="Rectangle_112" data-name="Rectangle 112" width="120" height="120" transform="translate(8123 1914)" fill="#696969" opacity="0"/>
  </g>
  <rect id="Rectangle_2768" data-name="Rectangle 2768" width="140" height="140" fill="#fff" opacity="0"/>
</svg>
