<svg id="icon_toolbar_language" xmlns="http://www.w3.org/2000/svg" width="20" height="20" viewBox="0 0 20 20">
  <path id="Icon_awesome-globe" data-name="Icon awesome-globe" d="M13.569,6.692C12.984,3.091,11.6.563,10,.563S7.016,3.091,6.431,6.692Zm-7.44,3.871a25.274,25.274,0,0,0,.133,2.581h7.472a25.274,25.274,0,0,0,.133-2.581,25.274,25.274,0,0,0-.133-2.581H6.262A25.274,25.274,0,0,0,6.129,10.563ZM19.222,6.692A10.021,10.021,0,0,0,12.851.982a13.609,13.609,0,0,1,2.016,5.71ZM7.145.982A10.014,10.014,0,0,0,.778,6.692H5.133A13.554,13.554,0,0,1,7.145.982Zm12.508,7H15.028c.085.847.133,1.714.133,2.581s-.048,1.734-.133,2.581h4.621A9.914,9.914,0,0,0,20,10.563,10.087,10.087,0,0,0,19.653,7.982ZM4.839,10.563c0-.867.048-1.734.133-2.581H.347a9.776,9.776,0,0,0,0,5.161H4.968C4.887,12.3,4.839,11.429,4.839,10.563Zm1.593,3.871c.585,3.6,1.964,6.129,3.569,6.129s2.984-2.528,3.569-6.129Zm6.423,5.71a10.031,10.031,0,0,0,6.371-5.71H14.871a13.609,13.609,0,0,1-2.016,5.71ZM.778,14.433a10.021,10.021,0,0,0,6.371,5.71,13.609,13.609,0,0,1-2.016-5.71H.778Z" transform="translate(0 -0.563)" fill="#696969"/>
  <rect id="Rectangle_2788" data-name="Rectangle 2788" width="20" height="20" fill="#fff" opacity="0"/>
</svg>
