<svg id="icon_toolbar_referralreward" xmlns="http://www.w3.org/2000/svg" width="20" height="20" viewBox="0 0 20 20">
  <path id="Icon_awesome-gift" data-name="Icon awesome-gift" d="M1.25,18.5A1.249,1.249,0,0,0,2.5,19.75H8.75V13.5H1.25Zm10,1.25H17.5a1.249,1.249,0,0,0,1.25-1.25v-5h-7.5Zm7.5-12.5H17.105A3.406,3.406,0,0,0,17.5,5.688,3.443,3.443,0,0,0,14.063,2.25c-1.625,0-2.676.832-4.023,2.668C8.691,3.082,7.641,2.25,6.016,2.25A3.443,3.443,0,0,0,2.578,5.688,3.358,3.358,0,0,0,2.973,7.25H1.25A1.249,1.249,0,0,0,0,8.5v3.125a.627.627,0,0,0,.625.625h18.75A.627.627,0,0,0,20,11.625V8.5A1.249,1.249,0,0,0,18.75,7.25Zm-12.738,0a1.563,1.563,0,0,1,0-3.125c.777,0,1.352.129,3.363,3.125H6.012Zm8.051,0H10.7c2.008-2.988,2.566-3.125,3.363-3.125a1.563,1.563,0,0,1,0,3.125Z" transform="translate(0 -1.25)" fill="#696969"/>
  <rect id="Rectangle_2785" data-name="Rectangle 2785" width="20" height="20" fill="#fff" opacity="0"/>
</svg>
