<svg id="pic_logo_navigationbar" xmlns="http://www.w3.org/2000/svg" width="100.714" height="16" viewBox="0 0 100.714 16">
  <path id="Path_421" data-name="Path 421" d="M0,18.626,1.547,5.792h2.64s1-.365,2.821,1.274,5.553,5.005,5.553,5.005l.818-6.1h5.278l-1.091,10.74s-.183,1.911-1.911,1.911-2.184.453-4.551-1.729S6.1,12.436,6.1,12.436l-.729,6.372s-5.188,0-5.371-.183" transform="translate(0 -2.862)" fill="#b30017"/>
  <path id="Path_419" data-name="Path 419" d="M42.829,5.917h5.506L47.2,14.655s-.319,1.047.91,1.047h3.05a1.207,1.207,0,0,0,1.354-1.039,1.256,1.256,0,0,0,.01-.144c.183-1.364,1-8.464,1-8.464h5.233l-1.183,11.1s-.137,1.775-1.729,1.775H43.557s-2.367.227-2.049-1.684S42.829,5.917,42.829,5.917" transform="translate(-20.618 -2.942)" fill="#b30017"/>
  <path id="Path_412" data-name="Path 412" d="M176.4,2.175l.017-.938A1.14,1.14,0,0,1,177.457.009a1.153,1.153,0,0,1,.15,0h9.183s1.706-.17,1.6,1.194-.648,7.305-.648,7.305-.137,1.433-1.2,1.433h-1.262l.58-6.62s.033-1.161-1.5-1.161-7.868.017-7.97.017" transform="translate(-87.684 0)" fill="#b30017"/>
  <path id="Path_420" data-name="Path 420" d="M83.492,18.043c.009.072.055.287.144.287s.17-.215.195-.269l1.966-4.6c.177-.413.591-1.006,2.135-1.006s1.813.593,1.888,1.006l.837,4.6c.011.054.039.269.129.269s.188-.215.215-.287l2.11-5.479h3.341L93.33,20.288a2.563,2.563,0,0,1-2.748,1.9c-1.743,0-2.159-.7-2.273-1.383L87.56,16.66c-.038-.126-.036-.288-.108-.288s-.11.161-.179.288l-1.767,4.149c-.282.683-.871,1.383-2.613,1.383-1.761,0-2.124-.844-2.281-1.9l-1.225-7.724h3.341Z" transform="translate(-39.463 -6.193)" fill="#fff"/>
  <path id="Path_413" data-name="Path 413" d="M119.792,12.671a2.632,2.632,0,0,1,2.836,3.233l-.529,4.311a2.073,2.073,0,0,1-2.219,1.976h-5.891c-1.8,0-2.207-1.042-1.965-3.018.221-1.8.9-2.946,2.7-2.946h4.347l.022-.18c.077-.629-.3-.934-.963-.934h-4.958l.3-2.443ZM116.3,18.455a.786.786,0,0,0-.753.718.562.562,0,0,0,.545.683H117.9c.539,0,.74-.18.807-.719l.083-.682Z" transform="translate(-55.655 -6.299)" fill="#fff"/>
  <path id="Path_414" data-name="Path 414" d="M135.9,6.6h3.52l-1.544,12.573h-3.52Z" transform="translate(-66.785 -3.281)" fill="#fff"/>
  <path id="Path_415" data-name="Path 415" d="M145.611,6.6h3.521l-1.544,12.573h-3.521Z" transform="translate(-71.614 -3.281)" fill="#fff"/>
  <path id="Path_416" data-name="Path 416" d="M157.392,22.085c-3.054,0-3.577-.862-3.091-4.814.529-4.31,1.4-4.813,5.71-4.813,3.592,0,5.066.287,4.625,3.879-.132,1.078-.512,2.12-1.769,2.12h-5.191c-.11.9.339,1.185,1.6,1.185h4.616l-.3,2.443Zm3.162-5.855a.582.582,0,0,0,.647-.593c.084-.682-.951-.736-1.49-.736-.9,0-1.617.143-1.762,1.329Z" transform="translate(-76.623 -6.193)" fill="#fff"/>
  <path id="Path_417" data-name="Path 417" d="M180.394,19.173c-1.976,0-3.482-.9-3.2-3.233l.463-3.772h-1.348l.309-2.515h1.348l.375-3.053h3.52l-.375,3.053H184.2l-.309,2.515h-2.713l-.265,2.155c-.177,1.437.252,2.334,1.868,2.334h.557l-.309,2.515Z" transform="translate(-87.645 -3.281)" fill="#fff"/>
</svg>
